<svg width="100" height="100" viewBox="0 0 100 100" fill="none" xmlns="http://www.w3.org/2000/svg">
<rect width="100" height="100" rx="20" fill="#E41F26"/>
<path fill-rule="evenodd" clip-rule="evenodd" d="M31.9538 20.0766C30.1348 20.4467 28.7377 21.7298 28.1689 23.5524L28.0237 24.0179L28.0049 49.6745C27.9912 68.4535 28.0055 75.4675 28.0582 75.8398C28.2919 77.4906 29.3402 78.8836 30.8776 79.586C31.8787 80.0435 30.1953 80.01 51.2206 79.9904L70.136 79.9728L70.6473 79.7943C71.4197 79.5245 71.9851 79.1634 72.598 78.5484C73.1881 77.9563 73.5395 77.3775 73.8176 76.5392C73.9596 76.1113 73.9661 76.0005 73.9878 73.6689L74.0103 71.2436L75.6518 71.2147C77.1058 71.189 77.3411 71.1702 77.7132 71.0497C78.871 70.675 79.7459 69.6777 79.9424 68.5084C79.9931 68.207 80.0087 66.0276 79.9956 61.0562L79.9771 54.0301L79.811 53.6054C79.3743 52.4892 78.5837 51.769 77.4875 51.4887C77.1976 51.4146 76.7433 51.3913 75.5863 51.3913H74.0661V43.5449V35.6985L66.4759 27.8553L58.8856 20.0121L45.6274 20.0021C34.8192 19.994 32.2924 20.0077 31.9538 20.0766ZM55.6772 29.2478C55.6988 35.6141 55.6625 35.1432 56.2184 36.2581C56.4709 36.7645 56.613 36.9546 57.0972 37.4344C57.9797 38.3087 58.8019 38.7109 60.0167 38.8624C60.3429 38.9031 62.4362 38.9286 65.4534 38.9286H70.3597V45.16V51.3913H54.1369C43.4286 51.3913 37.7972 51.4133 37.57 51.4559C37.0934 51.5453 36.3918 51.8923 36.0162 52.2245C35.6109 52.5829 35.2445 53.1499 35.0841 53.6666C34.9607 54.0641 34.9572 54.2727 34.9572 61.2788C34.9572 68.2849 34.9607 68.4935 35.0841 68.891C35.4049 69.9245 36.2695 70.7621 37.3124 71.0499C37.7161 71.1613 38.4341 71.1663 54.0469 71.1663H70.3597L70.3583 73.2805C70.357 75.1941 70.3458 75.419 70.2395 75.6516C70.0964 75.9652 69.7969 76.226 69.479 76.3139C69.3181 76.3584 63.3439 76.3792 50.965 76.3785C33.4249 76.3775 32.6784 76.3728 32.4325 76.2617C32.1375 76.1283 31.7862 75.7577 31.715 75.5048C31.6512 75.2777 31.6512 24.7072 31.715 24.4801C31.7862 24.2272 32.1375 23.8566 32.4325 23.7232C32.6772 23.6126 33.2029 23.6074 44.1733 23.606L55.6579 23.6046L55.6772 29.2478ZM64.2234 30.758L68.5128 35.2089L64.4358 35.2276C61.7207 35.24 60.2811 35.224 60.1262 35.1795C59.8369 35.0964 59.4635 34.6955 59.3729 34.3709C59.3282 34.2109 59.305 32.6846 59.3048 29.9003L59.3044 25.6727L59.6191 25.9898C59.7922 26.1642 61.8641 28.3099 64.2234 30.758Z" fill="white"/>
<path d="M47.176 55.8C50.168 55.8 52.04 57.352 52.04 59.864C52.04 62.36 50.168 63.912 47.176 63.912H44.92V67H42.328V55.8H47.176ZM47.032 61.8C48.616 61.8 49.416 61.08 49.416 59.864C49.416 58.632 48.616 57.912 47.032 57.912H44.92V61.8H47.032ZM53.8905 67V55.8H58.9785C62.6425 55.8 65.1545 58.008 65.1545 61.4C65.1545 64.792 62.6425 67 58.9785 67H53.8905ZM56.4825 64.872H58.8505C61.0745 64.872 62.5305 63.544 62.5305 61.4C62.5305 59.256 61.0745 57.928 58.8505 57.928H56.4825V64.872ZM75.5733 57.88H69.7013V60.84H74.8853V62.92H69.7013V67H67.1093V55.8H75.5733V57.88Z" fill="#353535"/>
</svg>
