<svg width="40" height="40" viewBox="0 0 40 40" fill="none" xmlns="http://www.w3.org/2000/svg">
<path fill-rule="evenodd" clip-rule="evenodd" d="M27.4638 0.06077C25.4752 0.340864 23.5949 1.15541 21.9817 2.43564C21.7508 2.61892 20.1791 4.14827 18.4889 5.83422C15.0195 9.29504 15.1425 9.14699 15.1419 9.86397C15.1416 10.1856 15.1637 10.2805 15.3062 10.57C15.4986 10.961 15.8126 11.2398 16.2087 11.3714C16.5605 11.4883 17.084 11.4519 17.4043 11.2884C17.5767 11.2004 18.496 10.3217 20.7474 8.0932C22.7691 6.09209 24.0112 4.90042 24.3068 4.67842C24.8007 4.30739 25.6987 3.82238 26.2662 3.62014C28.6031 2.78727 31.1424 3.07853 33.2175 4.41745C34.6667 5.35258 35.8538 6.88183 36.4028 8.52075C36.7167 9.45791 36.7701 9.82515 36.7701 11.0485C36.7701 12.0113 36.7556 12.2245 36.6622 12.6421C36.4246 13.7034 36.0509 14.583 35.4578 15.4772C35.1438 15.9507 34.8485 16.2694 32.925 18.2114C28.642 22.5357 28.6729 22.503 28.5763 22.7979C28.3241 23.5681 28.6387 24.3656 29.3502 24.7599C29.5859 24.8905 29.6567 24.905 30.0566 24.9046C30.795 24.9038 30.6294 25.0403 34.0618 21.6034C35.7214 19.9416 37.2533 18.3707 37.4661 18.1126C38.0341 17.4236 38.4949 16.7014 38.9002 15.865C39.394 14.8459 39.6948 13.9038 39.886 12.7768C39.9954 12.1323 40.036 10.6582 39.9636 9.95749C39.6956 7.36224 38.5961 5.03776 36.7755 3.2167C35.1637 1.6047 33.2474 0.591962 30.9703 0.1488C30.3904 0.0359223 30.1525 0.0170024 29.143 0.00336816C28.31 -0.0078455 27.8359 0.00835724 27.4638 0.06077ZM26.2974 11.7841C25.8483 11.8998 25.7701 11.9746 18.84 18.9142C13.2824 24.4795 11.9469 25.8415 11.8516 26.0412C11.6791 26.4027 11.6841 26.9737 11.8629 27.3503C12.0274 27.6969 12.3029 27.9719 12.6474 28.1334C12.8649 28.2353 12.9929 28.2604 13.2895 28.2595C14.0278 28.2571 13.3989 28.8304 21.082 21.1556C28.7528 13.4929 28.2218 14.0734 28.2267 13.3456C28.2289 13.0105 28.2085 12.908 28.0925 12.6717C27.9318 12.3445 27.5982 12.0192 27.2779 11.8775C27.0296 11.7676 26.5416 11.7211 26.2974 11.7841ZM9.40266 15.1882C9.26141 15.2387 9.05917 15.3401 8.95328 15.4135C8.64802 15.6251 2.77887 21.5505 2.42352 22.0058C1.38495 23.3368 0.71525 24.6867 0.323605 26.2388C-0.106315 27.9427 -0.107946 29.9485 0.31921 31.632C1.32455 35.5943 4.41099 38.6816 8.36675 39.6819C9.99408 40.0934 11.9631 40.1064 13.6105 39.7166C15.0551 39.3748 16.4467 38.7259 17.6501 37.8331C18.3183 37.3373 19.1153 36.5764 22.0406 33.6415C24.9995 30.6728 24.9202 30.7719 24.9203 30.0426C24.9203 29.7322 24.8964 29.5989 24.8089 29.4213C24.5222 28.8394 23.987 28.4807 23.4003 28.4773C22.7129 28.4734 22.7929 28.4125 20.4266 30.7383C19.2582 31.8866 17.869 33.263 17.3393 33.7971C16.3079 34.8371 15.8865 35.209 15.3391 35.5622C12.1434 37.6241 7.9959 37.1249 5.36946 34.362C4.35409 33.2938 3.6879 32.0281 3.34979 30.5247C3.25566 30.1061 3.24139 29.8962 3.24139 28.9311C3.24139 27.966 3.25566 27.7561 3.34979 27.3375C3.59026 26.2684 3.96497 25.3886 4.55723 24.5026C4.87844 24.0221 5.23873 23.6397 8.05196 20.793C10.3012 18.517 11.2225 17.5526 11.3084 17.3842C11.4703 17.067 11.5061 16.5417 11.3898 16.1914C11.1236 15.3898 10.1765 14.9116 9.40266 15.1882Z" fill="white"/>
</svg>
