<svg width="279" height="69" viewBox="0 0 279 69" fill="none" xmlns="http://www.w3.org/2000/svg">
<g filter="url(#filter0_d_373_976)">
<path d="M88.0402 37.056V16.7986H81.668V12.7894H99.0245V16.7986H92.6523V37.056H88.0402Z" fill="#353535"/>
<path d="M102.414 37.056V12.7894H108.95L112.453 24.5723C112.779 25.6262 113.051 26.6584 113.268 27.6688C113.496 28.6793 113.67 29.6625 113.79 30.6186C113.985 29.7168 114.208 28.7933 114.458 27.8481C114.708 26.892 115.012 25.8218 115.371 24.6375L118.94 12.7894H125.214V37.056H121.303V16.7008C121.096 17.6026 120.874 18.4989 120.635 19.3898C120.396 20.2807 120.14 21.1717 119.869 22.0626L115.436 37.056H112.095L107.792 22.0626C107.347 20.498 107.026 19.3572 106.831 18.6402C106.646 17.9122 106.489 17.2658 106.358 16.7008V37.056H102.414Z" fill="#353535"/>
<path d="M135.074 27.8807H141.251L138.154 17.0267L135.074 27.8807ZM128.099 37.056L135.416 12.7894H141.12L148.421 37.056H143.858L142.359 31.7431H133.982L132.434 37.056H128.099Z" fill="#353535"/>
<path d="M151.208 37.056V12.7894H156.081L163.056 24.9798C163.589 25.925 164.083 26.8811 164.539 27.8481C164.996 28.8151 165.414 29.7929 165.794 30.7816C165.675 30.0645 165.588 29.2985 165.534 28.4837C165.479 27.658 165.452 26.7779 165.452 25.8435V12.7894H169.689V37.056H165.452L157.874 24.5398C157.461 23.8335 157.021 22.9861 156.554 21.9974C156.097 21.0087 155.625 19.9113 155.136 18.7053C155.245 19.3681 155.321 20.096 155.364 20.8892C155.418 21.6823 155.446 22.6004 155.446 23.6434V37.056H151.208Z" fill="#353535"/>
<path d="M189.605 27.8807H195.781L192.685 17.0267L189.605 27.8807ZM182.629 37.056L189.947 12.7894H195.651L202.952 37.056H198.389L196.889 31.7431H188.513L186.964 37.056H182.629Z" fill="#353535"/>
<path d="M205.804 28.1414V12.7894H210.367V28.337C210.367 30.1406 210.731 31.4443 211.459 32.2483C212.187 33.0523 213.36 33.4543 214.979 33.4543C216.696 33.4543 217.918 33.0686 218.646 32.2972C219.385 31.515 219.754 30.1949 219.754 28.337V12.7894H224.187V28.8748C224.187 31.6345 223.389 33.7586 221.792 35.247C220.205 36.7247 217.935 37.4635 214.979 37.4635C211.894 37.4635 209.59 36.6975 208.069 35.1656C206.559 33.6227 205.804 31.2814 205.804 28.1414Z" fill="#353535"/>
<path d="M233.933 37.056V16.7986H227.561V12.7894H244.917V16.7986H238.545V37.056H233.933Z" fill="#353535"/>
<path d="M251.469 24.9798C251.469 27.7286 251.931 29.8146 252.854 31.2379C253.778 32.6503 255.13 33.3566 256.912 33.3566C258.694 33.3566 260.047 32.6503 260.97 31.2379C261.894 29.8146 262.355 27.7286 262.355 24.9798C262.355 22.2092 261.894 20.1069 260.97 18.6727C260.047 17.2386 258.694 16.5215 256.912 16.5215C255.13 16.5215 253.778 17.2386 252.854 18.6727C251.931 20.1069 251.469 22.2092 251.469 24.9798ZM246.84 24.9798C246.84 21.0576 247.731 17.9991 249.513 15.8044C251.295 13.5989 253.761 12.4961 256.912 12.4961C260.063 12.4961 262.529 13.5989 264.311 15.8044C266.104 17.9991 267 21.0576 267 24.9798C267 28.8802 266.104 31.9387 264.311 34.1551C262.518 36.3607 260.052 37.4635 256.912 37.4635C253.783 37.4635 251.322 36.3607 249.529 34.1551C247.737 31.9387 246.84 28.8802 246.84 24.9798Z" fill="#353535"/>
</g>
<g filter="url(#filter1_d_373_976)">
<path d="M69.6588 27.8842H75.8355L72.739 17.0302L69.6588 27.8842ZM62.6836 37.0596L70.0011 12.793H75.7051L83.0062 37.0596H78.443L76.9437 31.7467H68.5669L67.0187 37.0596H62.6836Z" fill="#E41F26"/>
</g>
<path d="M41.267 49.9844H0L46.3932 59.3652L41.267 49.9844Z" fill="#5E5E5E"/>
<path d="M0 49.9844L51.6574 68.9983L46.3932 59.3652L0 49.9844Z" fill="#727270"/>
<path d="M21.7909 48.9342L43.7916 12L15.6913 48.9342H21.7909Z" fill="#AA2320"/>
<path d="M43.7916 12L0.757812 48.9342H15.6913L43.7916 12Z" fill="#E41F26"/>
<path d="M33.1016 32.1029L52.9148 68.9109L36.2565 26.7431L33.1016 32.1029Z" fill="#5E5E5E"/>
<path d="M52.9148 68.9109L43.9967 13.5938L36.2565 26.7431L52.9148 68.9109Z" fill="#727270"/>
<g filter="url(#filter2_d_373_976)">
<path d="M95.2716 56.5868H98.663L97.0581 50.9804H96.8911L95.2716 56.5868ZM92.7734 60.9295L96.0922 50.1743H97.9005L101.205 60.9295H99.9557L98.9898 57.5817H94.9884L94.0371 60.9295H92.7734Z" fill="#353535"/>
<path d="M106.552 51.1765H105.434V59.8765H106.392C107.201 59.8765 107.84 59.8184 108.309 59.7022C108.784 59.586 109.186 59.3948 109.515 59.1285C109.965 58.7751 110.309 58.2934 110.546 57.6834C110.788 57.0733 110.909 56.3665 110.909 55.5628C110.909 54.7059 110.791 53.9676 110.553 53.3478C110.316 52.7233 109.965 52.2319 109.5 51.8736C109.176 51.6219 108.803 51.4427 108.382 51.3362C107.961 51.2297 107.351 51.1765 106.552 51.1765ZM104.264 60.9295V50.1743H106.821C107.639 50.1743 108.307 50.2421 108.825 50.3776C109.348 50.5084 109.81 50.7238 110.212 51.024C110.813 51.4791 111.272 52.0963 111.592 52.8758C111.912 53.6504 112.071 54.5413 112.071 55.5483C112.071 57.3348 111.609 58.6783 110.684 59.5788C109.764 60.4793 108.387 60.9295 106.552 60.9295H104.264Z" fill="#353535"/>
<path d="M115.697 60.9295V50.1743H116.867V54.7712H122.27V50.1743H123.446V60.9295H122.27V55.8097H116.867V60.9295H115.697Z" fill="#353535"/>
<path d="M127.668 60.9295V50.1743H134.015V51.191H128.851V54.7858H132.512V55.7807H128.851V59.9056H134.269V60.9295H127.668Z" fill="#353535"/>
<path d="M136.566 58.2353L137.692 57.8649C137.885 58.5524 138.217 59.0946 138.687 59.4916C139.156 59.8838 139.699 60.0799 140.313 60.0799C140.996 60.0799 141.541 59.9104 141.947 59.5715C142.354 59.2278 142.557 58.7727 142.557 58.2062C142.557 57.8722 142.497 57.5817 142.376 57.3348C142.255 57.0879 142.073 56.8821 141.831 56.7175C141.483 56.4851 140.88 56.214 140.023 55.9041C139.718 55.7928 139.488 55.708 139.333 55.65C138.428 55.2965 137.789 54.9068 137.416 54.4807C137.048 54.0547 136.864 53.5173 136.864 52.8685C136.864 52.0019 137.15 51.3072 137.721 50.7843C138.297 50.2614 139.062 50 140.016 50C140.848 50 141.553 50.2251 142.129 50.6754C142.71 51.1256 143.126 51.7768 143.378 52.6289L142.303 52.9412C142.129 52.3069 141.836 51.8252 141.425 51.496C141.013 51.1619 140.502 50.9949 139.892 50.9949C139.316 50.9949 138.856 51.1547 138.512 51.4742C138.174 51.7889 138.004 52.215 138.004 52.7524C138.004 53.0041 138.06 53.2365 138.171 53.4495C138.287 53.6625 138.466 53.8659 138.709 54.0595C138.946 54.2435 139.495 54.4928 140.357 54.8075C140.633 54.9044 140.846 54.9818 140.996 55.0399C142.018 55.4272 142.725 55.8509 143.117 56.3108C143.509 56.7707 143.705 57.3783 143.705 58.1336C143.705 59.0293 143.4 59.7506 142.79 60.2977C142.185 60.84 141.379 61.1111 140.372 61.1111C139.408 61.1111 138.607 60.869 137.968 60.3849C137.329 59.9007 136.862 59.1842 136.566 58.2353Z" fill="#353535"/>
<path d="M147.251 60.9295V50.1743H148.457V60.9295H147.251Z" fill="#353535"/>
<path d="M155.162 60.9295L151.538 50.1743H152.758L155.656 58.8889H155.743L158.662 50.1743H159.868L156.208 60.9295H155.162Z" fill="#353535"/>
<path d="M162.869 60.9295V50.1743H169.217V51.191H164.053V54.7858H167.713V55.7807H164.053V59.9056H169.471V60.9295H162.869Z" fill="#353535"/>
</g>
<g filter="url(#filter3_d_373_976)">
<path d="M179.543 58.2353L180.669 57.8649C180.862 58.5524 181.194 59.0946 181.664 59.4916C182.133 59.8838 182.675 60.0799 183.29 60.0799C183.973 60.0799 184.518 59.9104 184.924 59.5715C185.331 59.2278 185.534 58.7727 185.534 58.2062C185.534 57.8722 185.474 57.5817 185.353 57.3348C185.232 57.0879 185.05 56.8821 184.808 56.7175C184.459 56.4851 183.857 56.214 183 55.9041C182.695 55.7928 182.465 55.708 182.31 55.65C181.404 55.2965 180.765 54.9068 180.393 54.4807C180.025 54.0547 179.841 53.5173 179.841 52.8685C179.841 52.0019 180.126 51.3072 180.698 50.7843C181.274 50.2614 182.039 50 182.992 50C183.825 50 184.53 50.2251 185.106 50.6754C185.687 51.1256 186.103 51.7768 186.355 52.6289L185.28 52.9412C185.106 52.3069 184.813 51.8252 184.401 51.496C183.99 51.1619 183.479 50.9949 182.869 50.9949C182.293 50.9949 181.833 51.1547 181.489 51.4742C181.15 51.7889 180.981 52.215 180.981 52.7524C180.981 53.0041 181.037 53.2365 181.148 53.4495C181.264 53.6625 181.443 53.8659 181.685 54.0595C181.923 54.2435 182.472 54.4928 183.334 54.8075C183.61 54.9044 183.823 54.9818 183.973 55.0399C184.994 55.4272 185.701 55.8509 186.093 56.3108C186.486 56.7707 186.682 57.3783 186.682 58.1336C186.682 59.0293 186.377 59.7506 185.767 60.2977C185.161 60.84 184.355 61.1111 183.348 61.1111C182.385 61.1111 181.584 60.869 180.945 60.3849C180.305 59.9007 179.838 59.1842 179.543 58.2353Z" fill="#353535"/>
<path d="M190.598 55.5483C190.598 56.9717 190.867 58.0803 191.404 58.8743C191.947 59.6683 192.695 60.0653 193.648 60.0653C194.602 60.0653 195.348 59.6683 195.885 58.8743C196.427 58.0803 196.698 56.9717 196.698 55.5483C196.698 54.1201 196.427 53.0089 195.885 52.215C195.348 51.421 194.602 51.024 193.648 51.024C192.695 51.024 191.947 51.421 191.404 52.215C190.867 53.0089 190.598 54.1201 190.598 55.5483ZM189.393 55.5483C189.393 53.8586 189.778 52.5127 190.547 51.5105C191.322 50.5035 192.356 50 193.648 50C194.941 50 195.972 50.5011 196.742 51.5033C197.517 52.5006 197.904 53.8489 197.904 55.5483C197.904 57.2428 197.517 58.5935 196.742 59.6006C195.972 60.6076 194.941 61.1111 193.648 61.1111C192.361 61.1111 191.329 60.6076 190.555 59.6006C189.78 58.5935 189.393 57.2428 189.393 55.5483Z" fill="#353535"/>
<path d="M201.443 60.9295V50.1743H202.663V59.9056H207.463V60.9295H201.443Z" fill="#353535"/>
<path d="M209.898 50.1743H211.068V57.1096C211.068 57.5938 211.089 57.9593 211.133 58.2062C211.177 58.4483 211.249 58.6662 211.351 58.8598C211.549 59.2471 211.859 59.5473 212.28 59.7603C212.702 59.9733 213.195 60.0799 213.762 60.0799C214.338 60.0799 214.837 59.9733 215.258 59.7603C215.679 59.5473 215.989 59.2471 216.187 58.8598C216.289 58.6565 216.362 58.4289 216.405 58.1772C216.449 57.9206 216.471 57.4994 216.471 56.9136V50.1743H217.647V57.2985C217.647 58.5427 217.316 59.4892 216.652 60.138C215.994 60.7867 215.03 61.1111 213.762 61.1111C212.489 61.1111 211.525 60.7915 210.872 60.1525C210.223 59.5086 209.898 58.5572 209.898 57.2985V50.1743Z" fill="#353535"/>
<path d="M223.859 60.9295V51.2055H220.721V50.1743H228.216V51.2055H225.079V60.9295H223.859Z" fill="#353535"/>
<path d="M231.414 60.9295V50.1743H232.619V60.9295H231.414Z" fill="#353535"/>
<path d="M237.364 55.5483C237.364 56.9717 237.632 58.0803 238.17 58.8743C238.712 59.6683 239.46 60.0653 240.414 60.0653C241.367 60.0653 242.113 59.6683 242.65 58.8743C243.193 58.0803 243.464 56.9717 243.464 55.5483C243.464 54.1201 243.193 53.0089 242.65 52.215C242.113 51.421 241.367 51.024 240.414 51.024C239.46 51.024 238.712 51.421 238.17 52.215C237.632 53.0089 237.364 54.1201 237.364 55.5483ZM236.158 55.5483C236.158 53.8586 236.543 52.5127 237.313 51.5105C238.087 50.5035 239.121 50 240.414 50C241.706 50 242.738 50.5011 243.507 51.5033C244.282 52.5006 244.669 53.8489 244.669 55.5483C244.669 57.2428 244.282 58.5935 243.507 59.6006C242.738 60.6076 241.706 61.1111 240.414 61.1111C239.126 61.1111 238.095 60.6076 237.32 59.6006C236.545 58.5935 236.158 57.2428 236.158 55.5483Z" fill="#353535"/>
<path d="M248.136 60.9295V50.1743H249.828L254.766 58.5621V50.1743H255.884V60.9295H254.962L249.247 51.4089V60.9295H248.136Z" fill="#353535"/>
<path d="M259.169 58.2353L260.295 57.8649C260.489 58.5524 260.82 59.0946 261.29 59.4916C261.759 59.8838 262.302 60.0799 262.916 60.0799C263.599 60.0799 264.144 59.9104 264.55 59.5715C264.957 59.2278 265.16 58.7727 265.16 58.2062C265.16 57.8722 265.1 57.5817 264.979 57.3348C264.858 57.0879 264.676 56.8821 264.434 56.7175C264.086 56.4851 263.483 56.214 262.626 55.9041C262.321 55.7928 262.091 55.708 261.936 55.65C261.031 55.2965 260.392 54.9068 260.019 54.4807C259.651 54.0547 259.467 53.5173 259.467 52.8685C259.467 52.0019 259.753 51.3072 260.324 50.7843C260.9 50.2614 261.665 50 262.619 50C263.451 50 264.156 50.2251 264.732 50.6754C265.313 51.1256 265.729 51.7768 265.981 52.6289L264.906 52.9412C264.732 52.3069 264.439 51.8252 264.028 51.496C263.616 51.1619 263.105 50.9949 262.495 50.9949C261.919 50.9949 261.459 51.1547 261.115 51.4742C260.777 51.7889 260.607 52.215 260.607 52.7524C260.607 53.0041 260.663 53.2365 260.774 53.4495C260.89 53.6625 261.069 53.8659 261.312 54.0595C261.549 54.2435 262.098 54.4928 262.96 54.8075C263.236 54.9044 263.449 54.9818 263.599 55.0399C264.621 55.4272 265.328 55.8509 265.72 56.3108C266.112 56.7707 266.308 57.3783 266.308 58.1336C266.308 59.0293 266.003 59.7506 265.393 60.2977C264.788 60.84 263.982 61.1111 262.975 61.1111C262.011 61.1111 261.21 60.869 260.571 60.3849C259.932 59.9007 259.465 59.1842 259.169 58.2353Z" fill="#353535"/>
</g>
<defs>
<filter id="filter0_d_373_976" x="70.1187" y="0.946853" width="208.431" height="48.0672" filterUnits="userSpaceOnUse" color-interpolation-filters="sRGB">
<feFlood flood-opacity="0" result="BackgroundImageFix"/>
<feColorMatrix in="SourceAlpha" type="matrix" values="0 0 0 0 0 0 0 0 0 0 0 0 0 0 0 0 0 0 127 0" result="hardAlpha"/>
<feOffset/>
<feGaussianBlur stdDeviation="5.77462"/>
<feComposite in2="hardAlpha" operator="out"/>
<feColorMatrix type="matrix" values="0 0 0 0 1 0 0 0 0 0.897059 0 0 0 0 0.883333 0 0 0 0.1 0"/>
<feBlend mode="normal" in2="BackgroundImageFix" result="effect1_dropShadow_373_976"/>
<feBlend mode="normal" in="SourceGraphic" in2="effect1_dropShadow_373_976" result="shape"/>
</filter>
<filter id="filter1_d_373_976" x="51.1344" y="1.24373" width="43.4227" height="47.3641" filterUnits="userSpaceOnUse" color-interpolation-filters="sRGB">
<feFlood flood-opacity="0" result="BackgroundImageFix"/>
<feColorMatrix in="SourceAlpha" type="matrix" values="0 0 0 0 0 0 0 0 0 0 0 0 0 0 0 0 0 0 127 0" result="hardAlpha"/>
<feOffset/>
<feGaussianBlur stdDeviation="5.77462"/>
<feComposite in2="hardAlpha" operator="out"/>
<feColorMatrix type="matrix" values="0 0 0 0 1 0 0 0 0 0.897059 0 0 0 0 0.883333 0 0 0 0.1 0"/>
<feBlend mode="normal" in2="BackgroundImageFix" result="effect1_dropShadow_373_976"/>
<feBlend mode="normal" in="SourceGraphic" in2="effect1_dropShadow_373_976" result="shape"/>
</filter>
<filter id="filter2_d_373_976" x="87.627" y="44.8536" width="86.9881" height="21.4022" filterUnits="userSpaceOnUse" color-interpolation-filters="sRGB">
<feFlood flood-opacity="0" result="BackgroundImageFix"/>
<feColorMatrix in="SourceAlpha" type="matrix" values="0 0 0 0 0 0 0 0 0 0 0 0 0 0 0 0 0 0 127 0" result="hardAlpha"/>
<feOffset/>
<feGaussianBlur stdDeviation="2.57321"/>
<feComposite in2="hardAlpha" operator="out"/>
<feColorMatrix type="matrix" values="0 0 0 0 1 0 0 0 0 0.897059 0 0 0 0 0.883333 0 0 0 0.1 0"/>
<feBlend mode="normal" in2="BackgroundImageFix" result="effect1_dropShadow_373_976"/>
<feBlend mode="normal" in="SourceGraphic" in2="effect1_dropShadow_373_976" result="shape"/>
</filter>
<filter id="filter3_d_373_976" x="174.397" y="44.8536" width="97.0584" height="21.4022" filterUnits="userSpaceOnUse" color-interpolation-filters="sRGB">
<feFlood flood-opacity="0" result="BackgroundImageFix"/>
<feColorMatrix in="SourceAlpha" type="matrix" values="0 0 0 0 0 0 0 0 0 0 0 0 0 0 0 0 0 0 127 0" result="hardAlpha"/>
<feOffset/>
<feGaussianBlur stdDeviation="2.57321"/>
<feComposite in2="hardAlpha" operator="out"/>
<feColorMatrix type="matrix" values="0 0 0 0 1 0 0 0 0 0.897059 0 0 0 0 0.883333 0 0 0 0.1 0"/>
<feBlend mode="normal" in2="BackgroundImageFix" result="effect1_dropShadow_373_976"/>
<feBlend mode="normal" in="SourceGraphic" in2="effect1_dropShadow_373_976" result="shape"/>
</filter>
</defs>
</svg>
