<svg width="255" height="88" viewBox="0 0 255 88" fill="none" xmlns="http://www.w3.org/2000/svg">
<path d="M118.658 48.0321V32.5989H113.804V29.5445H127.027V32.5989H122.172V48.0321H118.658Z" fill="white"/>
<path d="M129.609 48.0321V29.5445H134.588L137.258 38.5213C137.506 39.3243 137.713 40.1106 137.878 40.8804C138.052 41.6502 138.185 42.3993 138.276 43.1277C138.425 42.4407 138.594 41.7371 138.785 41.017C138.975 40.2886 139.207 39.4732 139.48 38.571L142.199 29.5445H146.979V48.0321H144V32.5244C143.842 33.2114 143.673 33.8943 143.491 34.573C143.308 35.2518 143.114 35.9305 142.907 36.6093L139.53 48.0321H136.985L133.707 36.6093C133.367 35.4173 133.123 34.5482 132.974 34.0019C132.833 33.4473 132.713 32.9548 132.614 32.5244V48.0321H129.609Z" fill="white"/>
<path d="M154.491 41.0418H159.197L156.838 32.7727L154.491 41.0418ZM149.177 48.0321L154.752 29.5445H159.098L164.66 48.0321H161.183L160.041 43.9844H153.659L152.48 48.0321H149.177Z" fill="white"/>
<path d="M166.783 48.0321V29.5445H170.495L175.81 38.8318C176.215 39.5519 176.592 40.2803 176.939 41.017C177.287 41.7537 177.606 42.4986 177.895 43.2519C177.804 42.7056 177.738 42.122 177.697 41.5012C177.655 40.8721 177.635 40.2017 177.635 39.4898V29.5445H180.863V48.0321H177.635L171.861 38.4965C171.547 37.9585 171.211 37.3129 170.856 36.5596C170.508 35.8064 170.148 34.9704 169.775 34.0516C169.858 34.5565 169.916 35.1111 169.949 35.7153C169.991 36.3196 170.011 37.019 170.011 37.8136V48.0321H166.783Z" fill="white"/>
<path d="M196.035 41.0418H200.741L198.382 32.7727L196.035 41.0418ZM190.721 48.0321L196.296 29.5445H200.642L206.204 48.0321H202.728L201.585 43.9844H195.203L194.024 48.0321H190.721Z" fill="white"/>
<path d="M208.377 41.2405V29.5445H211.853V41.3895C211.853 42.7635 212.131 43.7568 212.685 44.3693C213.24 44.9818 214.134 45.2881 215.367 45.2881C216.675 45.2881 217.606 44.9943 218.161 44.4066C218.724 43.8106 219.005 42.8049 219.005 41.3895V29.5445H222.382V41.7992C222.382 43.9016 221.774 45.5199 220.557 46.6539C219.349 47.7796 217.619 48.3425 215.367 48.3425C213.016 48.3425 211.262 47.7589 210.103 46.5918C208.952 45.4164 208.377 43.6326 208.377 41.2405Z" fill="white"/>
<path d="M229.807 48.0321V32.5989H224.952V29.5445H238.175V32.5989H233.321V48.0321H229.807Z" fill="white"/>
<path d="M243.167 38.8318C243.167 40.9259 243.518 42.5152 244.222 43.5995C244.926 44.6756 245.956 45.2136 247.314 45.2136C248.671 45.2136 249.702 44.6756 250.405 43.5995C251.109 42.5152 251.461 40.9259 251.461 38.8318C251.461 36.721 251.109 35.1193 250.405 34.0267C249.702 32.9341 248.671 32.3878 247.314 32.3878C245.956 32.3878 244.926 32.9341 244.222 34.0267C243.518 35.1193 243.167 36.721 243.167 38.8318ZM239.641 38.8318C239.641 35.8436 240.319 33.5135 241.677 31.8415C243.034 30.1612 244.913 29.321 247.314 29.321C249.714 29.321 251.593 30.1612 252.951 31.8415C254.316 33.5135 254.999 35.8436 254.999 38.8318C254.999 41.8033 254.316 44.1334 252.951 45.822C251.585 47.5023 249.706 48.3425 247.314 48.3425C244.93 48.3425 243.055 47.5023 241.689 45.822C240.323 44.1334 239.641 41.8033 239.641 38.8318Z" fill="white"/>
<g filter="url(#filter0_d_1124_3613)">
<path d="M104.654 41.0446H109.36L107.001 32.7755L104.654 41.0446ZM99.3398 48.0349L104.915 29.5474H109.26L114.823 48.0349H111.346L110.204 43.9872H103.822L102.643 48.0349H99.3398Z" fill="#E41F26"/>
</g>
<path d="M63.4038 58.3593H0L71.2799 72.7721L63.4038 58.3593Z" fill="#5E5E5E"/>
<path d="M0 58.3593L79.3679 87.5728L71.2799 72.7721L0 58.3593Z" fill="#727270"/>
<path d="M33.4819 56.7467L67.2844 0L24.1103 56.7467H33.4819Z" fill="#AA2320"/>
<path d="M67.2844 0L1.16602 56.7467H24.1103L67.2844 0Z" fill="#E41F26"/>
<path d="M50.8613 30.8888L81.3029 87.4416L55.7087 22.6539L50.8613 30.8888Z" fill="#5E5E5E"/>
<path d="M81.3029 87.4416L67.601 2.45081L55.7087 22.6539L81.3029 87.4416Z" fill="#727270"/>
<path d="M124.172 62.9129H126.756L125.533 58.6417H125.406L124.172 62.9129ZM122.269 66.2214L124.797 58.0276H126.175L128.692 66.2214H127.74L127.005 63.6709H123.956L123.231 66.2214H122.269Z" fill="white"/>
<path d="M132.766 58.7911H131.914V65.4192H132.644C133.26 65.4192 133.747 65.375 134.105 65.2864C134.466 65.1979 134.772 65.0522 135.023 64.8493C135.366 64.5801 135.628 64.2131 135.809 63.7483C135.993 63.2836 136.085 62.7451 136.085 62.1328C136.085 61.4799 135.995 60.9175 135.814 60.4453C135.634 59.9695 135.366 59.5952 135.012 59.3222C134.765 59.1304 134.481 58.9939 134.16 58.9128C133.839 58.8316 133.374 58.7911 132.766 58.7911ZM131.023 66.2214V58.0276H132.971C133.594 58.0276 134.103 58.0792 134.498 58.1825C134.896 58.2821 135.248 58.4462 135.554 58.6749C136.012 59.0216 136.362 59.4919 136.605 60.0857C136.849 60.6759 136.971 61.3545 136.971 62.1217C136.971 63.4828 136.618 64.5063 135.914 65.1924C135.213 65.8784 134.164 66.2214 132.766 66.2214H131.023Z" fill="white"/>
<path d="M139.733 66.2214V58.0276H140.624V61.5297H144.74V58.0276H145.637V66.2214H144.74V62.3209H140.624V66.2214H139.733Z" fill="white"/>
<path d="M148.853 66.2214V58.0276H153.688V58.8021H149.755V61.5408H152.543V62.2988H149.755V65.4413H153.882V66.2214H148.853Z" fill="white"/>
<path d="M155.632 64.1688L156.49 63.8867C156.637 64.4104 156.89 64.8235 157.248 65.126C157.605 65.4247 158.019 65.5741 158.487 65.5741C159.007 65.5741 159.422 65.445 159.732 65.1868C160.042 64.925 160.197 64.5782 160.197 64.1467C160.197 63.8922 160.15 63.6709 160.058 63.4828C159.966 63.2947 159.828 63.1379 159.643 63.0125C159.378 62.8355 158.919 62.6289 158.266 62.3928C158.033 62.308 157.858 62.2435 157.74 62.1992C157.05 61.9299 156.563 61.633 156.279 61.3084C155.999 60.9839 155.859 60.5744 155.859 60.0802C155.859 59.4199 156.077 58.8907 156.512 58.4923C156.951 58.094 157.534 57.8948 158.26 57.8948C158.895 57.8948 159.431 58.0663 159.87 58.4093C160.313 58.7523 160.63 59.2484 160.822 59.8976L160.003 60.1355C159.87 59.6523 159.647 59.2853 159.333 59.0345C159.02 58.78 158.631 58.6528 158.166 58.6528C157.727 58.6528 157.377 58.7745 157.115 59.0179C156.857 59.2577 156.728 59.5822 156.728 59.9917C156.728 60.1835 156.77 60.3605 156.855 60.5228C156.943 60.6851 157.08 60.84 157.264 60.9875C157.445 61.1277 157.864 61.3177 158.52 61.5574C158.73 61.6312 158.893 61.6902 159.007 61.7345C159.785 62.0295 160.324 62.3523 160.623 62.7027C160.921 63.0531 161.071 63.516 161.071 64.0914C161.071 64.7737 160.838 65.3233 160.374 65.7401C159.913 66.1532 159.298 66.3598 158.531 66.3598C157.797 66.3598 157.187 66.1753 156.7 65.8065C156.213 65.4377 155.857 64.8918 155.632 64.1688Z" fill="white"/>
<path d="M163.772 66.2214V58.0276H164.691V66.2214H163.772Z" fill="white"/>
<path d="M169.799 66.2214L167.039 58.0276H167.968L170.176 64.6668H170.242L172.466 58.0276H173.384L170.596 66.2214H169.799Z" fill="white"/>
<path d="M175.671 66.2214V58.0276H180.507V58.8021H176.573V61.5408H179.362V62.2988H176.573V65.4413H180.7V66.2214H175.671Z" fill="white"/>
<path d="M188.371 64.1688L189.229 63.8867C189.376 64.4104 189.629 64.8235 189.987 65.126C190.344 65.4247 190.758 65.5741 191.226 65.5741C191.746 65.5741 192.161 65.445 192.471 65.1868C192.781 64.925 192.936 64.5782 192.936 64.1467C192.936 63.8922 192.889 63.6709 192.797 63.4828C192.705 63.2947 192.567 63.1379 192.382 63.0125C192.117 62.8355 191.658 62.6289 191.005 62.3928C190.772 62.308 190.597 62.2435 190.479 62.1992C189.789 61.9299 189.302 61.633 189.018 61.3084C188.738 60.9839 188.598 60.5744 188.598 60.0802C188.598 59.4199 188.816 58.8907 189.251 58.4923C189.69 58.094 190.272 57.8948 190.999 57.8948C191.634 57.8948 192.17 58.0663 192.609 58.4093C193.052 58.7523 193.369 59.2484 193.561 59.8976L192.742 60.1355C192.609 59.6523 192.386 59.2853 192.072 59.0345C191.759 58.78 191.37 58.6528 190.905 58.6528C190.466 58.6528 190.116 58.7745 189.854 59.0179C189.596 59.2577 189.467 59.5822 189.467 59.9917C189.467 60.1835 189.509 60.3605 189.594 60.5228C189.682 60.6851 189.819 60.84 190.003 60.9875C190.184 61.1277 190.603 61.3177 191.259 61.5574C191.469 61.6312 191.632 61.6902 191.746 61.7345C192.524 62.0295 193.063 62.3523 193.362 62.7027C193.66 63.0531 193.81 63.516 193.81 64.0914C193.81 64.7737 193.577 65.3233 193.113 65.7401C192.652 66.1532 192.037 66.3598 191.27 66.3598C190.536 66.3598 189.926 66.1753 189.439 65.8065C188.952 65.4377 188.596 64.8918 188.371 64.1688Z" fill="white"/>
<path d="M196.794 62.1217C196.794 63.2061 196.998 64.0508 197.408 64.6557C197.821 65.2606 198.391 65.5631 199.117 65.5631C199.844 65.5631 200.412 65.2606 200.821 64.6557C201.234 64.0508 201.441 63.2061 201.441 62.1217C201.441 61.0336 201.234 60.1871 200.821 59.5822C200.412 58.9773 199.844 58.6749 199.117 58.6749C198.391 58.6749 197.821 58.9773 197.408 59.5822C196.998 60.1871 196.794 61.0336 196.794 62.1217ZM195.875 62.1217C195.875 60.8345 196.168 59.8091 196.755 59.0456C197.345 58.2784 198.133 57.8948 199.117 57.8948C200.102 57.8948 200.888 58.2765 201.474 59.04C202.064 59.7999 202.359 60.8271 202.359 62.1217C202.359 63.4127 202.064 64.4418 201.474 65.209C200.888 65.9762 200.102 66.3598 199.117 66.3598C198.136 66.3598 197.351 65.9762 196.76 65.209C196.17 64.4418 195.875 63.4127 195.875 62.1217Z" fill="white"/>
<path d="M205.056 66.2214V58.0276H205.985V65.4413H209.642V66.2214H205.056Z" fill="white"/>
<path d="M211.497 58.0276H212.388V63.3113C212.388 63.6801 212.405 63.9586 212.438 64.1467C212.471 64.3311 212.527 64.4971 212.604 64.6446C212.755 64.9397 212.991 65.1684 213.312 65.3307C213.633 65.493 214.009 65.5741 214.441 65.5741C214.88 65.5741 215.26 65.493 215.581 65.3307C215.901 65.1684 216.138 64.9397 216.289 64.6446C216.366 64.4897 216.422 64.3164 216.455 64.1246C216.488 63.9291 216.505 63.6082 216.505 63.1619V58.0276H217.401V63.4551C217.401 64.403 217.148 65.1241 216.643 65.6184C216.141 66.1126 215.407 66.3598 214.441 66.3598C213.471 66.3598 212.737 66.1163 212.239 65.6295C211.745 65.1389 211.497 64.4141 211.497 63.4551V58.0276Z" fill="white"/>
<path d="M222.133 66.2214V58.8132H219.743V58.0276H225.453V58.8132H223.063V66.2214H222.133Z" fill="white"/>
<path d="M227.889 66.2214V58.0276H228.807V66.2214H227.889Z" fill="white"/>
<path d="M232.422 62.1217C232.422 63.2061 232.627 64.0508 233.036 64.6557C233.449 65.2606 234.019 65.5631 234.746 65.5631C235.472 65.5631 236.04 65.2606 236.45 64.6557C236.863 64.0508 237.069 63.2061 237.069 62.1217C237.069 61.0336 236.863 60.1871 236.45 59.5822C236.04 58.9773 235.472 58.6749 234.746 58.6749C234.019 58.6749 233.449 58.9773 233.036 59.5822C232.627 60.1871 232.422 61.0336 232.422 62.1217ZM231.503 62.1217C231.503 60.8345 231.797 59.8091 232.383 59.0456C232.973 58.2784 233.761 57.8948 234.746 57.8948C235.73 57.8948 236.516 58.2765 237.102 59.04C237.693 59.7999 237.988 60.8271 237.988 62.1217C237.988 63.4127 237.693 64.4418 237.102 65.209C236.516 65.9762 235.73 66.3598 234.746 66.3598C233.764 66.3598 232.979 65.9762 232.389 65.209C231.798 64.4418 231.503 63.4127 231.503 62.1217Z" fill="white"/>
<path d="M240.629 66.2214V58.0276H241.918L245.68 64.4178V58.0276H246.532V66.2214H245.829L241.475 58.9681V66.2214H240.629Z" fill="white"/>
<path d="M249.034 64.1688L249.892 63.8867C250.04 64.4104 250.292 64.8235 250.65 65.126C251.008 65.4247 251.421 65.5741 251.889 65.5741C252.409 65.5741 252.824 65.445 253.134 65.1868C253.444 64.925 253.599 64.5782 253.599 64.1467C253.599 63.8922 253.553 63.6709 253.461 63.4828C253.368 63.2947 253.23 63.1379 253.046 63.0125C252.78 62.8355 252.321 62.6289 251.668 62.3928C251.436 62.308 251.26 62.2435 251.142 62.1992C250.453 61.9299 249.966 61.633 249.682 61.3084C249.401 60.9839 249.261 60.5744 249.261 60.0802C249.261 59.4199 249.479 58.8907 249.914 58.4923C250.353 58.094 250.936 57.8948 251.662 57.8948C252.297 57.8948 252.834 58.0663 253.272 58.4093C253.715 58.7523 254.032 59.2484 254.224 59.8976L253.405 60.1355C253.272 59.6523 253.049 59.2853 252.736 59.0345C252.422 58.78 252.033 58.6528 251.568 58.6528C251.129 58.6528 250.779 58.7745 250.517 59.0179C250.259 59.2577 250.13 59.5822 250.13 59.9917C250.13 60.1835 250.172 60.3605 250.257 60.5228C250.346 60.6851 250.482 60.84 250.667 60.9875C250.847 61.1277 251.266 61.3177 251.922 61.5574C252.133 61.6312 252.295 61.6902 252.409 61.7345C253.188 62.0295 253.726 62.3523 254.025 62.7027C254.324 63.0531 254.473 63.516 254.473 64.0914C254.473 64.7737 254.241 65.3233 253.776 65.7401C253.315 66.1532 252.701 66.3598 251.934 66.3598C251.2 66.3598 250.589 66.1753 250.102 65.8065C249.615 65.4377 249.259 64.8918 249.034 64.1688Z" fill="white"/>
<defs>
<filter id="filter0_d_1124_3613" x="90.541" y="20.7486" width="33.08" height="36.0852" filterUnits="userSpaceOnUse" color-interpolation-filters="sRGB">
<feFlood flood-opacity="0" result="BackgroundImageFix"/>
<feColorMatrix in="SourceAlpha" type="matrix" values="0 0 0 0 0 0 0 0 0 0 0 0 0 0 0 0 0 0 127 0" result="hardAlpha"/>
<feOffset/>
<feGaussianBlur stdDeviation="4.3994"/>
<feComposite in2="hardAlpha" operator="out"/>
<feColorMatrix type="matrix" values="0 0 0 0 1 0 0 0 0 0.897059 0 0 0 0 0.883333 0 0 0 0.1 0"/>
<feBlend mode="normal" in2="BackgroundImageFix" result="effect1_dropShadow_1124_3613"/>
<feBlend mode="normal" in="SourceGraphic" in2="effect1_dropShadow_1124_3613" result="shape"/>
</filter>
</defs>
</svg>
