<svg width="50" height="50" viewBox="0 0 50 50" fill="none" xmlns="http://www.w3.org/2000/svg">
<circle cx="25" cy="25" r="25" fill="#E4E5E7"/>
<path d="M17.9069 15.0005C20.1735 14.4019 22.5451 14.542 24.866 14.5C24.7296 16.6964 24.859 18.9611 24.1332 21.0718C23.5735 22.6819 22.1778 23.9297 20.5216 24.32C18.554 24.7891 16.5147 24.8276 14.5017 24.8416C14.5664 22.3879 14.3915 19.8537 15.1611 17.4857C15.5423 16.2221 16.6494 15.3085 17.9069 15.0005ZM25.1581 14.5052C27.5786 14.5437 30.0691 14.3757 32.4127 15.1003C33.609 15.4503 34.5604 16.4146 34.905 17.6135C35.6116 19.9499 35.4681 22.4299 35.4961 24.8416C33.4813 24.8276 31.4386 24.7926 29.4745 24.3131C27.778 23.9071 26.3456 22.5944 25.8191 20.9283C25.1651 18.8526 25.277 16.6509 25.1581 14.5052ZM14.5017 25.1567C16.2926 25.1672 18.0923 25.2529 19.8622 25.5417C21.6095 25.8094 23.3025 26.884 23.9932 28.5588C24.9115 30.7536 24.6824 33.1829 24.873 35.5C22.7777 35.4772 20.6597 35.549 18.589 35.1657C17.4119 34.94 16.1649 34.4237 15.5458 33.3333C14.7448 31.9174 14.6556 30.2461 14.5629 28.657C14.5489 27.4896 14.4755 26.324 14.5017 25.1567ZM29.7753 25.6169C31.6554 25.2406 33.5828 25.1794 35.4961 25.1602C35.4681 27.5718 35.6133 30.0518 34.905 32.3882C34.5587 33.5818 33.6108 34.5427 32.4198 34.898C30.0726 35.6207 27.5769 35.4563 25.1529 35.4947C25.2647 33.2983 25.1529 31.0336 25.8699 28.9229C26.4505 27.213 28.0211 25.9564 29.7753 25.6169Z" fill="#E41F26"/>
</svg>
