<svg width="50" height="50" viewBox="0 0 50 50" fill="none" xmlns="http://www.w3.org/2000/svg">
<circle cx="25" cy="25" r="25" fill="#E4E5E7"/>
<path fill-rule="evenodd" clip-rule="evenodd" d="M34.9474 16.1814C34.8857 16.0467 34.756 15.9219 34.6271 15.8731C34.5697 15.8514 34.4944 15.8338 34.4599 15.834C34.4253 15.8342 34.1198 15.9399 33.781 16.0689C31.0873 17.0945 17.7814 22.2835 14.9304 23.4203C14.353 23.6505 14.3058 23.6806 14.2088 23.8811C14.0842 24.1387 14.2082 24.4682 14.4747 24.5874C14.6685 24.6741 15.9029 25.1522 17.2218 25.6515C17.9297 25.9195 18.6883 26.2101 18.9076 26.2974L19.3062 26.456L19.3474 26.5673C19.3981 26.7044 19.8378 28.1037 20.1197 29.0252C20.7465 31.0738 21.1998 32.5158 21.245 32.6049C21.2957 32.7047 21.3976 32.7962 21.4989 32.8329C21.6137 32.8745 21.8587 32.8772 21.9486 32.8379C22.0165 32.8081 22.7889 32.189 23.7089 31.4268C24.3481 30.8972 24.7319 30.5898 24.8638 30.5015C25 30.4105 25.2109 30.3601 25.3367 30.3887C25.5934 30.4468 25.8454 30.6142 27.4639 31.8013C29.5754 33.3499 29.9148 33.5979 30.2007 33.8013C30.6615 34.129 30.7331 34.1673 30.8839 34.1673C30.9527 34.1673 31.0436 34.1569 31.0858 34.1441C31.1863 34.1136 31.3228 33.9905 31.3728 33.8853C31.3947 33.8391 31.4873 33.4588 31.5787 33.04C32.2574 29.9273 34.6755 18.082 34.9536 16.5077L34.9935 16.282L34.9474 16.1814ZM21.0644 25.3936C22.3198 24.5787 27.3175 21.4595 29.5268 20.1119C29.9785 19.8365 30.3642 19.6111 30.384 19.6111C30.4264 19.6111 30.5344 19.7142 30.5344 19.7546C30.5344 19.8175 29.185 21.1133 26.1731 23.9426C22.8885 27.028 22.5412 27.3655 22.4311 27.5781C22.2913 27.8485 22.2409 28.0818 22.0952 29.134C22.0014 29.8115 21.9394 30.1751 21.9074 30.2355C21.8569 30.3309 21.6228 30.3613 21.5641 30.2801C21.5161 30.2137 21.2217 29.252 20.8953 28.0957C20.416 26.397 20.3805 26.181 20.5309 25.8806C20.6134 25.7158 20.7252 25.6138 21.0644 25.3936Z" fill="#E41F26"/>
</svg>
