<svg width="50" height="50" viewBox="0 0 50 50" fill="none" xmlns="http://www.w3.org/2000/svg">
<circle cx="25" cy="25" r="25" fill="#E4E5E7"/>
<path fill-rule="evenodd" clip-rule="evenodd" d="M12.9639 17.5413C12.75 17.6052 12.6397 17.693 12.5494 17.8711C12.4961 17.976 12.492 18.0043 12.4922 18.2667C12.4924 18.5816 12.5286 18.7975 12.6744 19.3519C13.2024 21.3595 14.3947 23.9121 15.9531 26.3714C16.7831 27.6813 17.3645 28.4688 18.0276 29.1814C19.7171 30.9969 21.7071 32.1283 23.7389 32.4284C24.5409 32.5468 25.6238 32.506 26.0633 32.3407C26.3231 32.2431 26.4914 32.0741 26.5599 31.8423C26.6033 31.6956 26.6047 31.6434 26.6047 30.24C26.6047 29.3573 26.6137 28.7147 26.6275 28.5989C26.6672 28.2679 26.7766 28.0902 26.9775 28.03C27.1378 27.9819 27.4793 27.9934 27.6645 28.0531C28.1871 28.2214 28.7747 28.6492 29.6868 29.5253C30.0493 29.8735 30.4494 30.3079 31.1027 31.0625C31.8796 31.9599 32.1106 32.1868 32.4048 32.3417C32.7113 32.503 32.6487 32.498 34.3694 32.498C36.0259 32.498 36.0538 32.4964 36.2856 32.3826C36.5261 32.2646 36.6421 32.0748 36.6571 31.7746C36.668 31.5586 36.628 31.3584 36.5238 31.1071C36.1707 30.2554 34.9716 28.6896 33.4078 27.0384C32.9898 26.5969 32.5972 26.1634 32.5355 26.075C32.3093 25.7513 32.2563 25.5447 32.336 25.2976C32.3948 25.1153 32.4697 24.9845 32.8019 24.4837C34.0849 22.55 35.1688 20.7207 35.6886 19.6118C36.0139 18.9178 36.1405 18.5306 36.1582 18.1763C36.1683 17.9725 36.1657 17.9551 36.1065 17.8372C36.0294 17.6836 35.9005 17.5872 35.7029 17.5353C35.5775 17.5024 35.3785 17.498 34.0004 17.498C32.292 17.498 32.3141 17.4965 32.0569 17.6333C31.7721 17.7847 31.6749 17.925 31.3832 18.6059C30.3555 21.0044 28.9808 23.2672 27.9632 24.2352C27.6651 24.5189 27.4592 24.6707 27.2867 24.7341C26.9647 24.8524 26.762 24.7329 26.6509 24.3594C26.6214 24.2603 26.6158 23.8648 26.6053 21.1604L26.5934 18.0745L26.5415 17.9285C26.4735 17.7374 26.3367 17.5912 26.1751 17.537C26.0683 17.5012 25.8782 17.498 23.8021 17.498C21.5994 17.498 21.5425 17.4991 21.4298 17.5432C21.1987 17.6336 21.0407 17.8673 21.0407 18.1189C21.0407 18.3121 21.1086 18.4604 21.3349 18.7616C21.5878 19.0983 21.6812 19.2474 21.7912 19.4905C21.9151 19.7644 21.9903 20.0378 22.0423 20.4031C22.0815 20.6786 22.0841 20.8374 22.0836 22.9464C22.0829 25.4468 22.0768 25.5766 21.9492 25.7725C21.8719 25.8913 21.8015 25.933 21.6552 25.9468C21.494 25.9621 21.3799 25.9229 21.1759 25.782C20.6049 25.3876 19.7907 24.2584 18.9602 22.709C18.7397 22.2978 18.1528 21.048 17.9409 20.5387C17.7254 20.0206 17.4353 19.2488 17.2399 18.6736C16.9728 17.8872 16.789 17.6428 16.381 17.5318C16.2764 17.5033 16.0115 17.4983 14.6774 17.4997C13.2342 17.5011 13.0861 17.5047 12.9639 17.5413Z" fill="#E41F26"/>
</svg>
