<svg width="50" height="50" viewBox="0 0 50 50" fill="none" xmlns="http://www.w3.org/2000/svg">
<circle cx="25" cy="25" r="25" fill="#E4E5E7"/>
<path fill-rule="evenodd" clip-rule="evenodd" d="M23.7788 17.3607C23.0266 17.3686 21.4811 17.3986 21.0699 17.4132C20.9408 17.4177 20.7162 17.4253 20.5709 17.43C20.4256 17.4347 20.2218 17.4422 20.1181 17.4467C20.0143 17.4511 19.7973 17.4605 19.6358 17.4674C18.2425 17.5272 16.9895 17.6419 16.4353 17.7603C15.8786 17.8793 15.452 18.1006 15.062 18.4728C14.7 18.8183 14.4428 19.2617 14.3156 19.7596C14.1353 20.4653 14.0068 21.5456 13.933 22.976C13.8599 24.3917 13.8664 25.67 13.954 27.1284C14.0339 28.4597 14.1847 29.5593 14.3662 30.134C14.5368 30.6742 14.8909 31.1604 15.3586 31.4968C15.6758 31.7248 16.0139 31.8705 16.4353 31.9605C16.9918 32.0795 18.2385 32.1935 19.64 32.2536C19.7992 32.2605 20.0143 32.2697 20.1181 32.2742C20.2218 32.2786 20.4256 32.2861 20.5709 32.2908C20.7162 32.2955 20.9408 32.3031 21.0699 32.3077C21.3051 32.316 22.0304 32.3322 22.9737 32.3501C23.6234 32.3625 25.8045 32.3625 26.4542 32.3501C27.3975 32.3322 28.1228 32.316 28.358 32.3077C28.4871 32.3031 28.7117 32.2955 28.857 32.2908C29.0023 32.2861 29.2061 32.2786 29.3098 32.2742C29.4136 32.2697 29.6287 32.2605 29.7879 32.2536C31.1894 32.1935 32.436 32.0795 32.9926 31.9605C33.5493 31.8416 33.9758 31.6202 34.3659 31.248C34.7279 30.9026 34.9851 30.4591 35.1123 29.9612C35.3026 29.2163 35.4373 28.0337 35.5074 26.4933C35.5283 26.0334 35.5495 25.2119 35.5495 24.8604C35.5495 24.5958 35.5412 24.2074 35.5242 23.677C35.4655 21.8482 35.2925 20.3176 35.0617 19.5868C34.7853 18.7115 34.0464 18.0193 33.151 17.7969C32.7922 17.7078 32.2557 17.6354 31.4694 17.57C31.0707 17.5369 30.2696 17.4879 29.7879 17.4672C29.6241 17.4602 29.409 17.4509 29.3098 17.4466C29.2107 17.4423 29.0069 17.4349 28.857 17.4301C28.707 17.4252 28.4825 17.4176 28.358 17.4131C28.1218 17.4046 27.2587 17.3856 26.4961 17.3721C26.0346 17.3639 24.2041 17.3562 23.7788 17.3607ZM22.7611 21.8364C22.9011 21.915 23.2138 22.09 23.4559 22.2254C23.6981 22.3608 24.0585 22.5624 24.2569 22.6733C24.4552 22.7843 24.7571 22.9531 24.9278 23.0485C25.0985 23.144 25.3985 23.3118 25.5945 23.4215C25.7906 23.5311 26.1038 23.7064 26.2906 23.8108C26.4775 23.9153 26.802 24.0969 27.0119 24.2143C27.2218 24.3317 27.5661 24.5242 27.7771 24.642C27.988 24.7599 28.1607 24.8582 28.1607 24.8604C28.1607 24.8627 28.0749 24.9125 27.97 24.9712C27.8651 25.0299 27.6321 25.1601 27.4522 25.2607C27.2723 25.3612 26.944 25.5448 26.7226 25.6686C26.2253 25.9467 25.8429 26.1605 25.3262 26.4495C25.1071 26.572 24.7599 26.7662 24.5546 26.8811C24.3493 26.9959 24.0342 27.1721 23.8543 27.2727C23.2692 27.5996 22.8514 27.8334 22.6771 27.9313C22.5832 27.9841 22.503 28.0273 22.4989 28.0273C22.4946 28.0273 22.4915 26.6931 22.4915 24.8604C22.4915 22.9798 22.4946 21.6936 22.4991 21.6936C22.5032 21.6936 22.6212 21.7578 22.7611 21.8364Z" fill="#E41F26"/>
</svg>
