<svg width="292" height="203" viewBox="0 0 292 203" fill="none" xmlns="http://www.w3.org/2000/svg">
<path fill-rule="evenodd" clip-rule="evenodd" d="M209.652 0.502984C190.689 4.62292 171.629 27.3759 161.766 57.6688C158.641 67.269 155.962 81.337 155.962 88.1543C155.962 89.1144 155.884 89.9003 155.789 89.9003C155.694 89.9003 151.09 88.5946 145.557 86.9988C140.024 85.4026 128.57 82.1245 120.104 79.7135C111.638 77.3025 103.767 75.0374 102.613 74.6798C101.458 74.3218 95.5546 72.624 89.4937 70.9061C83.4328 69.1885 76.2699 67.1465 73.5762 66.3687C49.2308 59.3386 48.0098 59.0153 45.2395 58.8614C31.8369 58.1164 15.9362 73.0262 6.71489 94.9848C4.10196 101.207 2.26113 107.409 0.934903 114.457C-0.0372906 119.623 -0.31436 130.392 0.404902 135.036C1.95397 145.031 6.22442 152.277 12.3966 155.382C13.5 155.938 18.8063 157.529 37.3682 162.871C44.7882 165.006 51.2644 166.881 67.4541 171.581C74.6694 173.676 82.462 175.932 84.7709 176.595C87.0798 177.257 94.8724 179.514 102.088 181.61C109.303 183.706 117.647 186.12 120.629 186.976C123.611 187.831 131.404 190.087 137.946 191.989C144.488 193.891 151.178 195.832 152.814 196.302C154.449 196.772 169.798 201.226 186.923 206.199C216.726 214.853 218.198 215.244 221.331 215.331C224.225 215.411 224.739 215.524 225.778 216.308C227.849 217.87 230.15 218.785 237.124 220.821C241.516 222.103 244.819 222.867 246.395 222.967C252.933 223.378 260.342 219.964 267.432 213.272C280.461 200.974 289.644 181.201 291.72 160.977C292.512 153.259 291.583 144.131 289.43 138.474C287.489 133.377 283.82 128.74 280.172 126.778C279.233 126.272 275.263 124.9 271.35 123.729C265.11 121.861 263.834 121.59 260.959 121.516C257.96 121.44 257.56 121.346 256.237 120.413C255.442 119.853 254.243 119.116 253.573 118.777C252.558 118.263 238.102 113.656 231.614 111.779C230.604 111.487 229.779 111.075 229.779 110.863C229.78 110.652 230.117 109.934 230.529 109.269C230.94 108.603 232.337 105.957 233.633 103.389C238.835 93.0781 242.742 81.3495 244.997 69.2812C245.487 66.6564 246.016 64.4246 246.173 64.3212C246.329 64.2178 252.068 60.4758 258.926 56.0056L262.322 53.7926C267.983 50.1026 271.397 43.8035 271.4 37.0461L271.402 32.7991L271.407 21.5624C271.408 19.2887 269.9 17.2903 267.714 16.6666C265.366 15.997 262.844 16.3756 260.797 17.7047L254.326 21.9054L248.21 25.8756C246.403 27.0485 243.976 26.1917 243.305 24.1445C239.154 11.4662 231.799 3.35291 222.032 0.676954C219.016 -0.149316 213.042 -0.233361 209.652 0.502984ZM220.982 2.23334C223.511 2.8227 227.485 4.69624 229.583 6.28826C234.681 10.155 239.118 17.0004 241.636 24.8778C242.891 28.8075 243.01 29.4356 242.531 29.6026C242.33 29.6728 241.648 28.0549 241.016 26.007C237.244 13.7856 230.226 5.91196 221.021 3.57599C217.994 2.80782 212.07 3.07933 208.613 4.14459C202.42 6.05307 196.885 9.64902 190.561 15.8722C183.41 22.9088 178.176 30.359 172.933 40.9605C158.707 69.7312 155.819 104.611 166.006 124.633C170.307 133.087 176.405 138.333 183.546 139.722C185.774 140.155 185.896 140.244 185.379 141.051C184.944 141.73 182.013 141.298 178.871 140.092C167.919 135.888 160.572 123.557 158.236 105.462C157.492 99.6962 157.664 85.7309 158.555 79.6094C162.536 52.246 175.274 26.3287 191.614 12.345C197.607 7.21621 203.732 3.78973 209.339 2.42807C212.741 1.6018 217.903 1.51567 220.982 2.23334ZM220.646 5.34924C227.435 6.93156 232.975 12.0901 236.977 20.5562C238.457 23.6873 240.273 29.1174 240.273 30.4113C240.273 30.8249 238.194 32.3758 233.888 35.1728C230.377 37.4537 223.522 41.9074 218.655 45.0697C209.817 50.8117 209.805 50.8186 208.789 50.2998C208.2 49.9986 206.846 49.78 205.569 49.7803C198.378 49.781 191.093 58.3924 188.073 70.4603C187.057 74.5245 186.98 81.8271 187.923 84.8748C189.164 88.8889 190.989 91.448 193.537 92.7464C196.405 94.2084 200.687 93.4827 203.89 90.9918C204.563 90.4682 205.785 89.846 206.605 89.609C207.892 89.2372 217.368 83.2213 235.646 71.1721C238.2 69.4884 240.344 68.1108 240.411 68.1108C240.603 68.1108 239.365 73.7892 238.216 78.1744C235.602 88.145 231.656 97.9575 226.745 106.698L226.607 106.943C225.731 108.502 224.047 109.429 222.262 109.336C218.544 109.143 215.02 109.896 211.36 111.665C202.969 115.721 194.815 124.088 188.5 135.122C187.35 137.131 186.456 138.32 186.096 138.316C185.781 138.313 184.516 138.076 183.286 137.79C172.511 135.279 164.756 123.339 162.445 105.706C161.746 100.375 161.746 88.7523 162.445 82.81C164.245 67.4959 168.503 53.535 175.593 39.7022C187.862 15.7656 205.999 1.9359 220.646 5.34924ZM266.632 18.259C267.324 18.4999 267.437 19.4304 266.823 19.8305L261.909 23.0343C245.634 33.6447 226.424 46.1578 213.846 54.3416C205.155 59.9958 204.031 61.0555 201.625 65.8627C199.228 70.6529 198.498 73.6737 198.492 78.8326C198.487 82.5078 198.603 83.4409 199.264 85.0582C199.692 86.1044 200.041 86.9853 200.041 87.0157C200.042 87.3256 195.988 86.0217 195.431 85.533C192.625 83.0708 192.282 74.9572 194.701 68.2837C195.938 64.8714 197.952 61.5996 199.927 59.7966C200.856 58.9478 206.777 54.9074 213.085 50.8176C219.393 46.7277 227.661 41.3582 231.457 38.8853C239.639 33.5565 257.054 22.2551 261.263 19.5432C262.899 18.4893 264.394 17.6364 264.586 17.6478C264.779 17.6589 265.699 17.9339 266.632 18.259ZM269.651 33.6108L269.65 36.0183C269.646 42.7703 266.235 49.0646 260.581 52.755L252.247 58.1945C242.679 64.4398 228.79 73.5208 221.382 78.3754C213.974 83.2296 207.393 87.4249 206.758 87.6985C204.216 88.7918 201.693 87.1396 200.689 83.7245C199.961 81.2481 200.138 75.7406 201.056 72.3006C201.92 69.0626 203.687 65.3418 205.578 62.78C206.867 61.0337 206.963 60.9687 244.646 36.4072C248.879 33.6482 256.12 28.9175 260.738 25.8946C265.356 22.8714 269.252 20.3943 269.397 20.3898C269.541 20.3853 269.656 26.3349 269.651 33.6108ZM207.508 51.7089C207.855 51.8407 206.427 52.9702 203.313 55.0275C197.984 58.5477 196.373 60.3199 194.088 65.171C192 69.6029 191.471 72.0862 191.471 77.4491C191.471 81.5909 191.562 82.3182 192.281 83.8884C193.598 86.7647 194.853 87.7075 198.483 88.5465C203.288 89.6578 203.184 89.5402 200.572 90.9026C198.864 91.7932 195.934 91.8686 194.223 91.0658C190.405 89.2746 188.297 82.5396 189.186 74.9772C190.614 62.8301 198.375 51.5664 205.348 51.52C206.246 51.5142 207.218 51.5992 207.508 51.7089ZM48.7379 61.1548C50.9208 61.7262 67.884 66.5745 87.0449 72.1028C90.7968 73.1857 98.6682 75.4383 104.537 77.1088C110.405 78.7793 117.174 80.7224 119.58 81.4266C121.985 82.1308 128.754 84.0738 134.623 85.7447C140.491 87.4156 147.595 89.4479 150.411 90.2613L150.509 90.2898C153.509 91.1566 155.623 93.8394 155.764 96.959C156.162 105.788 157.046 111.531 158.979 117.852C163.17 131.549 171.144 140.397 181.327 142.653C182.673 142.951 184.191 143.324 184.7 143.482C185.209 143.639 185.76 143.671 185.924 143.552C186.089 143.433 187.089 141.63 188.147 139.545C190.313 135.279 194.996 128.131 197.674 125.005C203.2 118.556 210.004 113.587 215.71 111.834C216.617 111.556 218.618 111.24 220.157 111.133C223.164 110.923 224.353 111.225 238.699 115.851L241.359 116.708C241.902 116.883 241.876 117.66 241.322 117.798C238.773 118.436 234.725 120.346 231.702 122.337C228.701 124.313 222.257 130.604 219.403 134.344C211.528 144.665 205.612 158.171 202.964 171.87C201.879 177.488 201.453 187.829 202.106 192.684C202.984 199.205 205.085 204.775 208.177 208.779C209.092 209.963 209.643 210.865 209.402 210.783C209.16 210.7 201.957 208.615 193.395 206.148C184.833 203.681 173.734 200.479 168.731 199.031C163.729 197.584 157.274 195.716 154.388 194.881C151.502 194.047 145.126 192.194 140.22 190.765C135.313 189.336 129.331 187.602 126.926 186.912C120.009 184.928 99.4133 178.975 92.2924 176.901C88.4173 175.773 84.1006 174.524 66.5795 169.462C64.0781 168.739 59.5128 167.414 56.4342 166.518C53.3557 165.621 48.2393 164.141 45.0646 163.229C41.8898 162.317 37.4032 161.021 35.0943 160.349C32.7853 159.678 28.3774 158.408 25.2989 157.528C12.6572 153.915 11.6052 153.438 8.3885 149.87C0.457028 141.073 -0.514815 121.075 6.0558 101.863C14.1751 78.1208 30.2536 60.7802 44.3649 60.5457C45.4232 60.5281 47.391 60.802 48.7379 61.1548ZM242.583 71.9395C240.072 84.0731 235.689 96.141 230.06 106.415C228.888 108.555 227.715 110.306 227.454 110.306C227.193 110.306 226.979 110.247 226.979 110.176C226.979 110.104 227.712 108.742 228.607 107.149C232.1 100.936 235.745 92.4164 238.133 84.8852C239.668 80.041 241.827 71.4335 242.21 68.6296C242.407 67.1915 243.246 65.7468 243.652 66.1484C243.711 66.2065 243.23 68.8126 242.583 71.9395ZM250.201 119.475C253.451 120.312 256.512 122.412 254.483 122.412C253.69 122.412 247.848 125.413 245.634 126.957C232.982 135.783 221.586 155.355 217.568 175.156C215.969 183.03 215.71 194.02 216.985 199.885C218.066 204.862 219.992 209.655 221.945 212.227C222.405 212.832 222.781 213.438 222.781 213.573C222.781 214.184 217.605 213.308 215.519 212.344C210.038 209.811 206.294 204.119 204.368 195.389C203.559 191.724 203.451 179.927 204.183 175.329C207.046 157.367 215.54 139.807 226.601 128.983C234.819 120.941 243.038 117.631 250.201 119.475ZM266.256 124.174L266.696 124.305C267.298 124.483 267.29 125.338 266.685 125.506C263.815 126.302 261.746 127.258 258.74 129.176C255.477 131.259 254.745 131.857 251 135.493C241.662 144.558 233.613 159.316 229.934 174.118C225.552 191.749 227.032 207.244 233.964 216.298L234.512 217.014C234.872 217.485 234.421 218.142 233.852 217.976C228.247 216.333 225.067 214.001 222.428 209.599C220.885 207.025 219.25 202.353 218.542 198.502C217.832 194.636 217.926 183.712 218.709 179.02C222.547 156.029 235.581 134.168 250.157 126.273C256.074 123.069 260.558 122.484 266.256 124.174ZM276.33 127.111C288.459 130.618 293.433 149.816 288.014 172.216C281.921 197.405 265.433 218.465 249.809 221.015C238.807 222.812 230.575 213.191 229.494 197.276C228.099 176.737 237.129 152.286 251.631 137.333C256.525 132.287 262.595 128.39 267.56 127.105C270.143 126.437 274.007 126.439 276.33 127.111ZM261.846 149.889C258.97 151.058 257.216 152.277 254.729 154.837C247.815 161.951 243.414 172.982 243.427 183.165C243.434 189.367 244.454 192.8 247.173 195.775C249.591 198.421 252.474 199.253 256.07 198.342C259.033 197.592 260.954 196.426 263.966 193.551C269.413 188.351 273.647 180.358 275.45 171.87C276.282 167.95 276.311 161.087 275.507 158.122C273.467 150.596 268.086 147.352 261.846 149.889ZM269.727 152.012C271.456 153.22 273.213 156.196 273.85 158.994C274.594 162.263 274.398 168.019 273.393 172.432C271.635 180.147 268.194 186.721 263.362 191.598C259.397 195.6 256.809 196.914 253.281 196.717C251.298 196.606 250.636 196.409 249.579 195.612C246.753 193.481 245.5 190.252 245.264 184.494C244.853 174.478 248.944 163.585 255.823 156.375C260.917 151.037 266.033 149.431 269.727 152.012ZM262.313 153.863C256.597 155.588 250.801 162.687 247.847 171.581C245.969 177.238 245.73 184.24 247.279 188.299C248.299 190.973 250.684 193.424 252.819 193.993C259.592 195.796 268.383 187.141 271.953 175.156C273.637 169.505 273.537 161.857 271.733 158.341C269.742 154.459 266.089 152.723 262.313 153.863ZM268.113 156.477C270.187 158.041 271.386 161.594 271.4 166.219C271.433 177.382 264.029 190.169 256.397 192.126C255.16 192.443 254.287 192.476 253.418 192.239C252.253 191.921 250.068 190.402 250.068 189.91C250.068 189.784 250.795 189.3 251.683 188.834C256.494 186.311 261.597 178.863 263.901 171.005C265.342 166.088 265.48 159.116 264.201 155.82C263.966 155.215 264.068 155.181 265.479 155.404C266.322 155.537 267.508 156.021 268.113 156.477ZM262.739 156.911C262.978 157.469 263.151 159.724 263.156 162.359C263.167 167.454 262.554 170.328 260.391 175.322C258.091 180.636 254.004 185.625 250.506 187.39L250.257 187.515C249.629 187.832 248.868 187.502 248.67 186.828C246.036 177.878 251.586 162.727 259.501 157.26C261.746 155.709 262.201 155.66 262.739 156.911Z" fill="#CBCBCB"/>
</svg>
