<svg width="305" height="230" viewBox="0 0 305 230" fill="none" xmlns="http://www.w3.org/2000/svg">
<path fill-rule="evenodd" clip-rule="evenodd" d="M194.878 0.602306C185.59 3.55447 175.613 15.5787 170.503 29.9785C165.929 42.8666 165.423 56.304 169.204 64.4913C170.632 67.5829 173.391 70.7357 175.706 71.9193C176.612 72.3827 179.389 73.3418 181.875 74.0505C184.361 74.7588 186.54 75.4748 186.718 75.6418C187.07 75.9726 180.307 82.1295 174.148 87.0857C166.447 93.283 149.6 104.994 142.072 109.383C140.854 110.094 139.397 110.271 138.044 109.874L133.013 108.397C129.08 107.243 125.739 106.367 125.59 106.45C125.441 106.534 114.821 113.064 101.991 120.961C89.1606 128.859 74.8972 137.637 70.2944 140.468L67.542 142.161C64.0512 144.309 61.9226 148.112 61.9176 152.21L61.9142 154.948C61.9112 157.378 60.7739 159.668 58.8391 161.138C42.7705 173.353 27.7886 190.186 17.8407 207.202C11.2657 218.448 4.71015 234.112 1.9193 245.244C-2.07485 261.179 0.291016 275.152 7.84286 280.225C8.89049 280.929 13.137 282.425 19.0712 284.18C24.3199 285.734 30.8093 287.655 33.492 288.449C36.1747 289.244 46.9585 292.415 57.456 295.496C67.9535 298.578 82.6314 302.895 90.0734 305.091C105.039 309.506 106.205 309.674 110.716 308.078C121.944 304.105 133.064 288.329 136.975 270.82C140.202 256.382 138.108 244.092 131.45 238.379C129.607 236.798 128.053 236.218 116.306 232.723C114.148 232.081 112.382 231.385 112.382 231.177C112.382 230.491 119.043 220.951 122.847 216.189C127.708 210.105 140.236 197.271 141.314 197.271C141.763 197.271 144.657 198.036 147.747 198.971C153.495 200.711 154.62 200.926 154.867 200.333C155.161 199.631 201.202 171.556 201.842 171.69C202.211 171.766 204.994 172.564 208.026 173.463C216.6 176.003 227.005 179.067 238.353 182.393C244.068 184.068 253.556 186.858 259.437 188.591C271.444 192.131 273.158 192.339 277.461 190.771C289.754 186.291 301.499 168.175 304.522 149.028C305.296 144.124 305.104 135.501 304.137 131.734C302.718 126.204 300.238 122.23 296.882 120.106C295.241 119.068 295.392 119.118 281.191 114.987C275.942 113.46 271.309 112.108 270.895 111.982C270.284 111.797 270.564 111.379 272.379 109.766C280.697 102.377 287.561 94.7824 292.366 87.652C297.688 79.7551 302.367 68.511 304.148 59.3356C305.29 53.4573 305.282 44.395 304.132 39.8975C302.708 34.3277 300.105 30.2477 296.752 28.3294C295.775 27.7708 287.341 25.075 278.01 22.3392C262.048 17.6593 227.426 7.47765 209.935 2.31987C201.545 -0.154017 198.39 -0.514109 194.878 0.602306ZM216.288 5.72098C250.563 15.8206 279.112 24.2141 282.993 25.3322C285.268 25.9873 287.129 26.6552 287.129 26.8159C287.129 26.9771 286.524 27.23 285.784 27.3784C281.494 28.2384 273.301 35.2396 268.951 41.763C264.306 48.7267 260.536 57.7648 258.691 66.3538C257.421 72.2662 257.315 82.0644 258.473 86.522C259.314 89.7624 260.772 92.976 262.37 95.1098C262.696 95.5465 262.28 96.148 261.756 95.9956L261.368 95.8827C257.689 94.8135 207.018 79.926 191.698 75.4131C182.715 72.7675 176.027 70.5704 175.117 69.9667C173.282 68.7491 170.933 65.2897 169.731 62.0327C168.264 58.0573 167.7 51.8732 168.289 46.2095C170.418 25.7374 182.604 6.04876 195.726 1.87772C199.043 0.823803 200.752 1.14308 216.288 5.72098ZM295.44 29.252C301.01 32.1034 304.042 40.4353 303.518 51.448C302.549 71.7582 290.058 93.206 276.525 97.7941C268.175 100.625 261.422 95.2947 259.525 84.375C258.828 80.3677 259.273 70.1053 260.343 65.4776C263.085 53.6226 268.568 43.1527 275.836 35.8909C279.835 31.8959 282.401 30.1184 286.063 28.8043C288.819 27.8154 293.025 28.0161 295.44 29.252ZM283.733 45.0429C278.656 46.5908 273.254 53.2302 270.74 61.0137C269.416 65.1099 268.936 71.6137 269.704 75.0518C270.793 79.9281 274.437 82.686 278.453 81.6724C282.756 80.5862 286.9 76.4981 289.913 70.3667C292.54 65.0223 293.267 61.9775 293.274 56.307C293.278 51.9127 293.195 51.4332 292.004 49.0796C290.193 45.4978 287.135 44.0056 283.733 45.0429ZM288.796 47.1563C291.348 48.9533 292.605 54.1468 291.809 59.6022C290.853 66.157 288.293 71.7875 284.307 76.1023C279.073 81.7694 273.732 81.8106 271.572 76.2005C270.545 73.5323 270.539 67.1569 271.56 63.3519C273.198 57.2469 277.288 50.5166 280.757 48.2153C284.195 45.9348 286.611 45.6168 288.796 47.1563ZM281.711 48.947C277.892 50.8418 273.653 57.1305 272.103 63.2006C271.736 64.6376 271.437 67.3159 271.44 69.1525C271.449 76.433 275.327 80.1683 280.497 77.8759C283.225 76.6668 286.423 73.1624 288.383 69.2384C294.504 56.9799 290.439 44.6165 281.711 48.947ZM286.481 49.9277C293.029 52.6699 289.392 70.5589 281.233 75.7452C277.574 78.0711 274.537 77.0244 273.354 73.0298C272.489 70.1095 272.54 67.5459 273.544 63.6108C275.171 57.2346 279.334 51.3112 283.143 49.9503C284.052 49.6255 284.85 49.3513 284.916 49.3411C284.981 49.3309 285.686 49.5949 286.481 49.9277ZM206.966 81.4322C216.181 84.1412 228.3 87.7022 233.899 89.3453C239.498 90.9885 249.9 94.0559 257.015 96.162C269.289 99.7952 270.116 99.9819 273.165 99.8144C276.84 99.6124 280.388 98.1733 283.948 95.4401C284.195 95.2503 284.504 95.5813 284.297 95.8148L283.465 96.7564C271.763 109.99 253.26 124.073 225.649 140.762L223.252 142.211C221.009 143.566 218.14 141.986 218.088 139.366C217.975 133.731 217.929 133.453 217.028 133.075C216.509 132.857 210.836 131.15 204.421 129.282C198.006 127.414 184.646 123.509 174.731 120.605C164.817 117.7 153.509 114.391 149.602 113.252C145.695 112.112 142.498 111.072 142.497 110.939C142.497 110.807 143.307 110.242 144.299 109.684C147.101 108.105 160.737 98.9611 165.981 95.1447C172.582 90.3406 179.839 84.4341 184.691 79.9175C187.424 77.3743 189.053 76.1495 189.515 76.2919C189.899 76.4096 197.752 78.7228 206.966 81.4322ZM136.859 111.042C142.74 112.735 147.502 114.169 147.443 114.229C147.383 114.288 145.457 114.132 143.163 113.883C140.139 113.553 137.729 113.56 134.407 113.909C125.418 114.852 119.436 117.085 115.646 120.91C114.091 122.479 112.234 123.719 109.337 125.123C104.738 127.352 100.778 130.674 98.8964 133.882C97.9255 135.538 97.7495 136.327 97.7495 139.027C97.7495 141.726 97.9255 142.515 98.8964 144.171C102.606 150.496 112.221 155.557 125.219 158.028C130.821 159.093 148.234 159.093 153.836 158.028C173.378 154.313 184.108 145.402 180.869 135.577C179.423 131.19 172.29 125.425 165.685 123.305C164.792 123.018 162.937 121.778 161.562 120.548C160.188 119.319 158.437 118.004 157.672 117.626C155.006 116.309 153.487 115.885 191.273 126.988C198.854 129.215 207.399 131.716 210.261 132.544C213.123 133.373 215.414 134.092 215.351 134.144C214.106 135.16 154.341 171.762 153.926 171.762C153.665 171.762 148.171 170.216 141.717 168.327C128.946 164.587 100.45 156.254 79.2993 150.074C71.9511 147.927 65.6941 146.035 65.3951 145.869C65.0477 145.676 66.5038 144.545 69.4245 142.736C90.271 129.831 125.784 107.998 125.955 107.983C126.072 107.972 130.978 109.349 136.859 111.042ZM275.902 115.005C279.394 116.056 282.501 116.917 282.806 116.918C283.112 116.919 283.244 117.111 283.1 117.345C282.955 117.578 282.274 117.77 281.585 117.77C276.324 117.77 259.511 123.515 248.383 129.116C246.784 129.92 245.405 130.507 245.318 130.42C245.231 130.333 247.206 128.853 249.708 127.133C254.671 123.722 264.405 116.465 266.77 114.415C267.587 113.707 268.546 113.12 268.903 113.111C269.26 113.101 272.409 113.953 275.902 115.005ZM150.191 116.435C156.162 118.018 160.135 120.235 161.833 122.932C165.393 128.585 159.218 134.183 147.077 136.309C141.915 137.213 131.832 136.903 127.389 135.704C117.592 133.059 113.002 128.261 115.548 123.326C117.201 120.122 122.871 117.245 130.341 115.821C134.821 114.968 145.954 115.312 150.191 116.435ZM282.414 120.612C278.492 122.574 271.778 129.109 268.518 134.138C263.918 141.234 260.477 149.67 258.635 158.37C257.603 163.246 257.364 173.933 258.211 177.368C259.044 180.745 260.399 183.983 261.886 186.15C262.362 186.843 261.703 187.749 260.898 187.511L260.056 187.262C253.852 185.428 239.325 181.153 221.811 176.006C212.13 173.162 203.981 170.707 203.702 170.55C203.408 170.386 206.257 168.391 210.488 165.799L211.731 165.038C215.49 162.736 217.782 158.645 217.782 154.238C217.782 149.852 220.137 145.804 223.95 143.637L225.84 142.563C235.784 136.911 249.959 129.711 257.015 126.728C267.544 122.275 278.28 119.146 283.262 119.077C283.818 119.069 284 119.818 283.503 120.067L282.414 120.612ZM293.967 120.328C295.898 120.866 299.125 123.682 300.462 125.996C301.022 126.966 301.926 129.195 302.47 130.949C303.336 133.743 303.456 134.979 303.441 140.94C303.427 145.827 303.206 148.759 302.655 151.356C298.652 170.215 287.682 186.065 276.163 189.633C272.903 190.643 271.835 190.668 268.916 189.799C264.664 188.533 261.312 183.967 259.829 177.418C258.831 173.014 258.909 164.905 260.003 159.221C264.021 138.353 278.088 119.98 290.098 119.913C291.381 119.906 293.122 120.093 293.967 120.328ZM170.057 126.928C176.488 130.258 179.954 134.493 179.957 139.027C179.959 143.026 177.661 146.39 172.693 149.659C156.477 160.33 122.578 160.33 106.362 149.659C101.395 146.391 99.097 143.027 99.097 139.027C99.097 134.214 102.506 130.201 109.726 126.513C111.358 125.679 112.814 124.997 112.962 124.997C113.11 124.997 113.231 128.364 113.231 132.479C113.231 141.044 113.419 141.743 116.49 144.581C121.244 148.973 130.308 151.258 141.176 150.804C150.317 150.422 156.958 148.358 161.262 144.561C164.302 141.878 164.633 140.555 164.474 131.714L164.36 125.343C164.35 124.819 164.874 124.451 165.364 124.638C165.926 124.853 168.039 125.884 170.057 126.928ZM119.913 134.465C122.947 136.12 128.764 137.663 134.07 138.22C144.479 139.312 156.333 136.628 161.299 132.055C161.906 131.496 162.887 131.941 162.866 132.767L162.784 135.903L162.722 138.254C162.672 140.167 161.849 141.978 160.441 143.275C152.716 150.392 132.23 151.719 120.95 145.834C115.636 143.061 114.824 141.716 114.578 135.283L114.478 132.66C114.445 131.784 115.471 131.288 116.136 131.859C117.097 132.683 118.797 133.856 119.913 134.465ZM216.721 140.662C216.721 144.056 214.961 147.207 212.07 148.987L189.894 162.638C175.139 171.722 161.292 180.264 159.122 181.622C156.952 182.98 155.091 184.091 154.987 184.091C154.882 184.091 154.797 181.643 154.797 178.651C154.797 175.27 156.549 172.131 159.427 170.356L185.627 154.206C202.583 143.753 216.516 135.2 216.589 135.2C216.662 135.2 216.721 137.658 216.721 140.662ZM282.322 137.29C277.32 139.846 273.211 145.419 270.542 153.269C269.681 155.803 269.53 157.065 269.529 161.772C269.527 167.087 269.574 167.384 270.767 169.541C272.266 172.255 274.156 173.534 276.668 173.534C287.252 173.534 297.433 151.827 291.979 140.887C290.43 137.778 288.63 136.476 285.884 136.476C284.782 136.476 283.214 136.834 282.322 137.29ZM288.717 138.843C292.251 141.164 293.089 149.616 290.526 157.084C287.631 165.517 281.553 172.172 276.737 172.182C270.629 172.194 268.745 161.693 272.951 151.086C276.855 141.241 283.963 135.721 288.717 138.843ZM281.825 140.669C278.005 142.409 273.621 148.9 272.036 155.166C270.622 160.755 271.801 167.553 274.486 169.289C277.503 171.24 280.44 170.455 284.201 166.695C294.896 156 293.031 135.566 281.825 140.669ZM287.838 142.497C289.235 143.812 289.849 146.032 289.82 149.655C289.727 161.006 279.794 172.838 274.829 167.511C269.78 162.093 274.841 145.571 282.666 141.931C284.673 140.997 286.453 141.192 287.838 142.497ZM77.8975 151.177C85.5503 153.416 100.591 157.821 111.322 160.965C122.053 164.109 135.937 168.159 142.175 169.966L148.08 171.676C151.301 172.608 153.519 175.558 153.521 178.912C153.524 184.11 153.464 184.555 152.782 184.342C151.88 184.061 90.7584 166.18 75.0579 161.604L69.2074 159.899C66 158.965 63.7702 156.057 63.6998 152.717C63.6349 149.63 63.6718 147.104 63.7825 147.104C63.8932 147.104 70.2447 148.937 77.8975 151.177ZM216.721 154.767V158.049C216.721 159.448 215.986 160.744 214.786 161.463C213.721 162.101 208.043 165.596 202.168 169.231C176.84 184.9 155.274 198.121 155.044 198.121C154.908 198.121 154.801 195.681 154.807 192.7C154.813 189.333 156.569 186.21 159.444 184.455L160.387 183.879C163.45 182.008 177.331 173.454 191.233 164.87C205.135 156.285 216.557 149.255 216.615 149.246C216.674 149.237 216.721 151.722 216.721 154.767ZM100.931 170.672C120.643 176.455 140.111 182.151 144.193 183.329C148.275 184.507 151.746 185.591 151.906 185.737C152.066 185.884 150.179 187.619 147.714 189.592C122.199 210.012 105.093 234.511 94.8518 265.302C89.6301 281.001 89.6412 295.05 94.881 302.855C95.6547 304.007 96.2141 305.023 96.1246 305.113C96.0351 305.203 91.5142 303.98 86.078 302.396C77.0187 299.757 76.1314 299.414 75.4434 298.284C74.0853 296.053 72.4507 290.06 72.1602 286.248C71.9897 284.009 70.4489 282.11 68.2927 281.481L64.8785 280.486C61.0294 279.364 55.3035 277.692 52.1542 276.769C34.4438 271.582 12.687 265.293 12.4546 265.293C12.307 265.293 12.2798 267.158 12.3939 269.438C12.5814 273.178 13.3936 276.933 14.3271 278.373C14.616 278.818 24.2597 281.789 54.736 290.818C56.9271 291.467 57.6392 291.888 58.0388 292.767C58.3191 293.383 58.4757 293.96 58.3874 294.048C58.239 294.197 48.6975 291.441 21.2419 283.321C15.3209 281.569 9.9623 279.87 9.33415 279.544C7.63164 278.662 5.10757 275.672 3.98529 273.209C-0.403729 263.574 0.735941 250.756 7.61892 232.346C18.1118 204.281 35.368 181.081 59.7718 162.232C62.1793 160.373 63.1938 159.832 64.0133 159.972C64.6058 160.074 81.2186 164.889 100.931 170.672ZM63.7719 170.56C60.2303 173.589 55.9715 177.879 55.9715 178.418C55.9715 178.701 56.3053 179.028 56.7138 179.146C57.1222 179.263 66.6175 181.988 77.8148 185.202C89.0122 188.415 98.2474 191.101 98.3378 191.169C98.4281 191.238 96.4588 193.432 93.9611 196.044C90.2566 199.919 89.5228 200.892 89.9792 201.324C90.5064 201.823 104.7 206.199 105.79 206.199C106.069 206.199 109.091 203.377 112.506 199.928C115.921 196.479 120.426 192.222 122.517 190.468C124.609 188.715 126.332 186.993 126.346 186.642C126.367 186.16 120.504 184.302 102.306 179.023C89.0694 175.183 75.773 171.31 72.7595 170.414C69.7455 169.519 66.9572 168.786 66.5628 168.786C66.1687 168.786 64.9129 169.585 63.7719 170.56ZM74.8458 172.543C79.5114 173.902 92.4426 177.667 103.581 180.91C114.72 184.154 123.834 186.934 123.834 187.089C123.834 187.243 122.069 188.905 119.911 190.782C117.753 192.658 113.675 196.577 110.849 199.489L110.702 199.641C107.632 202.804 103.064 204.008 98.8345 202.766C95.0528 201.656 91.8887 200.678 91.8035 200.593C91.7182 200.508 93.6417 198.381 96.0775 195.868C98.5134 193.354 100.505 191.063 100.503 190.777C100.5 190.462 96.3329 189.048 90.0051 187.215C84.2334 185.542 74.6664 182.768 68.745 181.05L63.4893 179.526C61.0539 178.819 60.3104 175.732 62.1572 173.994C64.4552 171.832 66.3418 170.064 66.3494 170.067C66.3571 170.07 70.1803 171.185 74.8458 172.543ZM45.9244 188.36C42.4053 192.416 35.0019 202.252 33.8661 204.379C33.5819 204.911 33.4704 205.468 33.618 205.617C33.766 205.764 43.3889 208.641 55.0028 212.008C79.1462 219.008 91.9214 222.719 92.9444 223.026C93.4686 223.185 94.4386 222.083 96.6688 218.799C98.3276 216.357 99.9652 214.125 100.307 213.84C101.317 213.001 101.027 212.218 99.5521 211.796C84.4794 207.477 62.0821 200.951 61.9583 200.842C61.8688 200.764 63.2048 199.05 64.9273 197.036C69.8863 191.235 70.1362 190.892 69.7099 190.465C69.4932 190.247 65.3115 188.85 60.417 187.359C55.5228 185.868 51.1007 184.514 50.59 184.349C49.799 184.095 49.1127 184.685 45.9244 188.36ZM59.3647 188.566C63.9136 189.931 67.7084 191.103 67.7979 191.169C67.8874 191.236 66.8274 192.588 65.443 194.174C60.8288 199.46 59.631 201.109 60.0789 201.558C60.3113 201.791 63.8245 202.941 67.8857 204.113C82.5177 208.338 98.6003 213.078 98.7259 213.202C98.7963 213.271 97.8717 214.641 96.6718 216.247C95.4714 217.852 94.216 219.691 93.8817 220.334C93.5475 220.978 93.1984 221.504 93.1056 221.504C93.0127 221.504 87.6257 219.962 81.1342 218.077C74.6431 216.192 61.6974 212.441 52.3663 209.74C43.0352 207.039 35.3692 204.803 35.3311 204.77C35.2929 204.737 36.6383 202.771 38.3209 200.399C43.8843 192.559 49.7896 185.618 50.6375 185.921C50.8886 186.01 54.8157 187.201 59.3647 188.566ZM153.357 198.856C153.169 199.044 142.949 196.166 142.615 195.831C142.523 195.738 144.892 193.693 147.88 191.286L148.734 190.597C150.602 189.093 153.382 190.389 153.43 192.786C153.496 196.019 153.462 198.75 153.357 198.856ZM24.2614 221.397C22.3163 225.499 21.8107 226.936 22.1835 227.302C22.4545 227.569 24.7759 228.373 27.3419 229.088C34.8654 231.185 64.63 239.819 64.7491 239.938C64.8089 239.998 63.903 242.423 62.7349 245.326C61.5672 248.229 60.6651 250.871 60.7304 251.197C60.8402 251.745 75.0761 256.31 76.7986 256.349C77.2808 256.36 78.1245 254.729 79.7031 250.732C80.9263 247.633 83.1531 242.529 84.6507 239.389C86.1488 236.249 87.2227 233.527 87.0369 233.341C86.8516 233.155 81.1698 231.391 74.4107 229.42C40.3941 219.503 28.0867 215.977 27.4891 215.977C27.065 215.977 25.9219 217.897 24.2614 221.397ZM43.9993 222.095C52.3336 224.525 64.8785 228.168 71.8768 230.191C78.8752 232.214 84.8055 233.937 85.0554 234.021C85.3175 234.108 84.6533 235.945 83.4865 238.36C82.3735 240.663 80.366 245.274 79.0253 248.606C77.6842 251.938 76.4058 254.664 76.1844 254.664C75.7136 254.664 62.6123 250.822 62.407 250.623C62.3311 250.55 63.2591 247.969 64.4696 244.887C65.6805 241.806 66.5064 239.143 66.3049 238.97C66.1034 238.796 63.8394 238.054 61.2733 237.322C45.4592 232.807 23.92 226.504 23.7596 226.344C23.397 225.982 27.7368 217.677 28.2895 217.677C28.5957 217.677 35.6653 219.665 43.9993 222.095ZM119.671 236.193C114.875 237.613 108.232 242.846 103.833 248.669C102.703 250.166 101.779 251.292 101.779 251.173C101.779 250.6 105.598 242.824 108.225 238.048L108.626 237.32C110.109 234.623 113.274 233.326 116.224 234.208L119.673 235.238C120.148 235.38 120.147 236.053 119.671 236.193ZM17.4386 238.232C16.506 240.652 15.0749 245.387 14.258 248.755C12.1216 257.561 12.1191 257.585 13.2473 258.085C13.7677 258.316 21.0646 260.489 29.4626 262.914C37.8607 265.339 50.7987 269.084 58.214 271.236C65.6292 273.389 71.9485 275.053 72.2573 274.934C72.5678 274.815 72.9478 273.706 73.1086 272.45C73.268 271.203 73.7965 268.685 74.2826 266.857C74.7881 264.957 75.0074 263.377 74.7945 263.171C74.4119 262.8 71.56 261.948 47.0645 254.885C39.2497 252.632 32.5305 250.694 32.1326 250.578C31.4905 250.391 31.6249 249.746 33.3312 244.83C34.3886 241.784 35.1674 239.068 35.0622 238.794C34.8938 238.356 20.7915 233.833 19.5958 233.833C19.3418 233.833 18.3709 235.812 17.4386 238.232ZM26.889 237.416C30.3321 238.452 33.2434 239.394 33.3584 239.509C33.4733 239.624 32.7871 241.946 31.8332 244.668C29.7146 250.715 29.6599 251.524 31.3433 251.895C33.2384 252.312 72.9868 263.926 73.179 264.118C73.3898 264.329 71.5057 272.822 71.1745 273.153C71.0404 273.288 62.6505 270.993 52.5296 268.055C42.4087 265.116 29.7383 261.454 24.3729 259.917C19.0075 258.379 14.4667 256.981 14.2822 256.81C13.3495 255.947 19.1339 235.533 20.3109 235.533C20.4857 235.533 23.4458 236.38 26.889 237.416ZM128.288 238.028C136.99 242.008 139.544 258.259 134.174 275.492C127.354 297.382 111.237 312.132 100.525 306.288C95.2407 303.405 92.4702 296.611 92.4549 286.499C92.4252 266.501 104.722 243.763 118.628 238.104C121.325 237.007 125.974 236.97 128.288 238.028ZM115.635 254.628C108.44 258.304 102.627 269.242 102.627 279.1C102.627 283.623 103.532 286.613 105.559 288.791C106.984 290.322 107.414 290.529 109.553 290.706C111.545 290.872 112.341 290.713 114.275 289.765C119.388 287.258 124.464 279.361 126.161 271.274C127.821 263.364 126.192 256.553 122.137 254.451C120.444 253.574 117.543 253.653 115.635 254.628ZM122.449 256.436C129.35 262.793 123.17 284.115 113.099 288.698C109.593 290.294 107.247 289.464 105.311 285.942C104.22 283.958 104.127 283.432 104.146 279.322C104.167 274.663 104.523 272.867 106.336 268.269C110.238 258.372 118.202 252.524 122.449 256.436ZM114.884 258.062C114.044 258.507 112.418 259.901 111.271 261.159C104.469 268.618 102.524 281.684 107.555 286.112C110.394 288.61 114.367 287.616 118.158 283.459C124.907 276.056 126.884 262.911 121.906 258.531C120.676 257.448 120.057 257.219 118.412 257.234C117.297 257.245 115.735 257.611 114.884 258.062ZM121.063 259.88C122.443 261.263 123.42 264.198 123.403 266.908C123.386 269.455 122.058 274.201 120.441 277.49C116.393 285.722 109.893 288.682 107.253 283.495C103.272 275.675 110.952 258.56 118.469 258.5C119.277 258.494 120.137 258.951 121.063 259.88ZM34.9765 273.307C46.1738 276.562 58.8188 280.234 63.0759 281.468L68.3048 282.983C69.7927 283.414 70.8165 284.777 70.8165 286.326C70.8165 289.254 72.1122 294.724 73.4101 297.274C74.2113 298.848 74.2168 298.939 73.4949 298.717C73.0716 298.586 70.1989 297.722 67.1112 296.795C64.0234 295.868 61.2996 294.988 61.0591 294.839C60.8182 294.689 60.1485 293.633 59.5708 292.49C58.5596 290.49 58.4078 290.38 55.4435 289.507C53.7511 289.008 48.9308 287.579 44.7318 286.331C40.5328 285.083 32.8028 282.793 27.554 281.244C22.3053 279.694 17.4136 278.237 16.6837 278.007C15.5279 277.644 15.2662 277.267 14.6563 275.087C14.2707 273.711 13.8377 271.322 13.6939 269.778C13.4801 267.482 13.5404 267.01 14.0252 267.181C14.3509 267.296 23.7791 270.052 34.9765 273.307Z" fill="#CBCBCB"/>
</svg>
