<svg width="314" height="230" viewBox="0 0 314 230" fill="none" xmlns="http://www.w3.org/2000/svg">
<path fill-rule="evenodd" clip-rule="evenodd" d="M131.135 0.916102C127.642 2.22183 124.27 4.66413 120.487 8.62895C114.82 14.5672 110.306 22.3712 107.455 31.1614C104.983 38.7799 104.54 41.6299 104.552 49.8441C104.561 56.8552 104.621 57.4038 105.701 60.5199C107.993 67.1249 110.688 69.9942 116.187 71.681C118.106 72.2694 119.827 72.8853 120.011 73.0491C120.688 73.6495 108.199 84.3146 98.8054 91.159C96.7797 92.6347 92.8895 95.3406 90.1603 97.1719C87.0172 99.2811 83.0979 99.8806 79.4679 98.8077L75.4566 97.6219C64.4646 94.3724 64.152 94.3547 61.0713 96.8102C55.8372 100.982 52.7634 111.292 55.1439 116.691C56.032 118.706 57.1336 119.615 59.2121 120.05C59.9434 120.203 60.5421 120.453 60.5421 120.604C60.5421 120.755 59.3909 121.739 57.9844 122.789C46.3573 131.47 33.8483 144.324 25.0735 156.607C14.8922 170.859 5.69306 190.269 1.82458 205.661C-0.936924 216.649 -0.539149 227.799 2.85053 234.412C3.97305 236.602 6.39898 239.234 8.297 240.323C9.23456 240.86 16.1711 243.184 23.7112 245.487C31.2513 247.789 39.9986 250.48 43.1497 251.465C46.3008 252.451 65.1767 258.274 85.0961 264.405C105.015 270.536 132.362 278.968 145.867 283.141C159.372 287.315 171.356 290.831 172.498 290.953C174.991 291.221 178.352 290.335 181.88 288.48C185.102 286.786 191.916 280.001 194.737 275.678C198.952 269.217 202.696 260.253 204.341 252.681C207.401 238.598 204.64 225.309 197.752 220.963C196.557 220.208 192.723 218.801 187.916 217.351C183.583 216.046 180.038 214.825 180.038 214.639C180.038 214.07 185.957 205.536 189.598 200.856C191.491 198.422 194.998 194.274 197.391 191.637C201.451 187.164 201.817 186.865 202.86 187.171C203.475 187.351 221.017 192.511 241.842 198.637C272.039 207.52 280.182 209.776 282.059 209.776C286.862 209.776 291.747 207.232 297.042 201.974C304.511 194.558 310.388 183.028 312.869 170.924C314.285 164.016 314.381 155.839 313.103 150.996C311.129 143.513 307.486 139.335 301.58 137.78C299.45 137.22 281.103 131.92 279.976 131.54C279.668 131.437 280.697 130.291 282.431 128.805C286.894 124.982 294.478 117.202 297.488 113.358C305.227 103.477 310.792 91.6139 313.055 80.1756C314.272 74.0223 314.286 65.5568 313.086 61.0068C311.462 54.8469 307.948 50.1143 303.922 48.6656C302.972 48.3236 294.828 45.8862 285.825 43.2489C268.037 38.0387 250.892 32.9993 241.218 30.1378C237.842 29.1392 213.378 21.9396 186.853 14.1385C133.795 -1.46583 136.065 -0.927114 131.135 0.916102ZM216.698 24.4012C260.12 37.1686 295.923 47.7196 296.26 47.8481C296.651 47.9963 296.28 48.2645 295.237 48.5868C285.697 51.5354 275.339 64.536 270.518 79.6131C268.46 86.0498 267.983 88.8748 267.748 96.0374C267.551 101.988 267.628 103.25 268.379 106.402C269.297 110.255 270.618 113.231 272.301 115.239C272.614 115.612 272.252 116.163 271.785 116.025L270.79 115.729C269.381 115.31 233.65 104.799 191.389 92.3707C149.127 79.9424 114.032 69.5052 113.399 69.1767C112.766 68.8486 111.551 67.8049 110.698 66.8576C100.57 55.6098 106.521 24.8479 121.876 9.06912C126.497 4.32168 132.08 1.2762 136.284 1.2101C137.09 1.19737 173.276 11.6334 216.698 24.4012ZM304.27 50.3795C309.29 52.9782 312.104 58.9731 312.515 67.9473C313.412 87.5009 301.739 110.604 287.655 117.151C279.617 120.888 272.586 116.776 269.811 106.713C268.785 102.991 268.775 92.7144 269.793 87.8253C271.475 79.7486 275.462 69.9491 279.482 64.0096C284.553 56.5168 291.076 51.034 296.565 49.6499C298.812 49.0832 302.427 49.4257 304.27 50.3795ZM291.547 66.6199C284.826 69.7602 278.982 80.8178 278.93 90.4942C278.901 95.8247 280.07 99.0381 282.765 101.04C287.452 104.521 295.184 99.4746 299.553 90.0836C301.72 85.424 302.546 81.8156 302.558 76.9442C302.567 73.546 302.41 72.485 301.645 70.79C299.464 65.9526 296.019 64.5303 291.547 66.6199ZM296.484 67.2949C297.707 67.2949 299.931 69.8259 300.553 71.9249C303.741 82.6984 294.856 100.554 286.306 100.554C282.677 100.554 280.7 97.5981 280.392 91.7108C279.872 81.7795 286.109 70.0443 293.272 67.4764C294.128 67.1697 295.073 67.0034 295.373 67.1068C295.673 67.2103 296.173 67.2949 296.484 67.2949ZM291.02 70.0008C285.641 72.6903 281.081 81.4908 281.051 89.2394C281.036 93.0929 281.667 95.2811 283.294 97.0114C289.25 103.348 300.344 91.4653 300.496 78.5866C300.533 75.4257 300.392 74.5943 299.525 72.8385C298.366 70.4919 296.339 68.9373 294.438 68.9373C293.728 68.9373 292.19 69.4161 291.02 70.0008ZM297.236 71.83C298.739 73.6219 299.259 75.9899 298.995 79.8295C298.24 90.7919 289.176 100.901 284.399 96.1076C279.76 91.453 283.482 76.9819 290.661 71.7643C291.914 70.8536 292.741 70.5797 294.239 70.5797C295.908 70.5797 296.338 70.7592 297.236 71.83ZM130.316 75.9082C134.368 77.0944 142.563 79.5031 148.527 81.2605C154.492 83.0183 165.081 86.136 172.058 88.1886C179.035 90.2409 196.622 95.4166 211.14 99.6893C286.402 121.841 279.717 119.973 282.928 119.752C286.139 119.531 288.969 118.426 292.514 116.009C292.849 115.781 293.237 116.215 292.972 116.521L292.616 116.934C286.483 124.037 273.959 134.531 260.636 143.73C253.457 148.688 232.606 161.735 231.863 161.735C231.71 161.735 231.943 161.031 232.38 160.17C235.291 154.445 235.061 145.92 231.943 143.95C231.417 143.618 227.489 142.323 223.212 141.072C218.936 139.821 202.454 134.979 186.586 130.312C159.417 122.322 149.319 119.35 123.155 111.645C117.19 109.888 106.74 106.813 99.9316 104.81C93.1236 102.808 87.5531 101.059 87.5523 100.923C87.5519 100.787 89.8072 99.1383 92.5646 97.2581C102.588 90.4248 112.635 82.5169 119.08 76.3882C120.758 74.7918 122.316 73.5456 122.541 73.6187C122.766 73.6917 126.265 74.722 130.316 75.9082ZM74.6942 98.8706C79.1774 100.203 93.9867 104.555 107.604 108.541C121.221 112.527 133.467 116.134 134.818 116.556C136.168 116.978 143.074 119.02 150.164 121.094C157.254 123.167 168.58 126.494 175.332 128.485C201.256 136.131 224.077 142.813 225.156 143.074C225.775 143.224 226.281 143.437 226.281 143.547C226.281 143.658 225.387 144.555 224.293 145.541C219.626 149.752 216.821 159.078 218.666 164.257L218.822 164.696C218.974 165.123 218.565 165.538 218.136 165.391C217.552 165.191 181.256 154.498 137.478 141.627C64.6418 120.214 57.8048 118.131 56.972 117.096C52.8649 111.994 59.0906 96.448 65.2409 96.448C65.9575 96.448 70.2115 97.5382 74.6942 98.8706ZM68.7268 122.886C71.3152 123.662 80.7991 126.455 89.8023 129.093C98.8054 131.73 111.052 135.329 117.016 137.091C122.981 138.852 133.662 141.996 140.752 144.078C147.842 146.161 158.615 149.328 164.692 151.118C170.769 152.907 177.583 154.914 179.833 155.576C182.084 156.238 187.333 157.783 191.497 159.01C195.661 160.236 203.948 162.67 209.912 164.419C215.877 166.167 220.807 167.638 220.867 167.686C220.928 167.734 219.519 168.715 217.735 169.866C206.072 177.391 192.792 190.927 182.205 206.08C166.901 227.984 156.441 255.969 157.725 271.572C158.215 277.527 160.044 283.729 161.946 285.888C162.619 286.652 162.606 286.673 161.623 286.432C161.06 286.295 144.762 281.296 125.406 275.325C106.049 269.353 72.7168 259.087 51.3344 252.512C29.952 245.937 11.6392 240.254 10.6399 239.884C4.79111 237.72 1.47714 230.481 1.46077 219.836C1.45054 213.351 2.44047 207.859 5.12791 199.485C12.6643 176 26.6867 153.407 44.2293 136.482C52.2077 128.785 62.134 120.889 63.3552 121.268C63.721 121.382 66.1384 122.11 68.7268 122.886ZM287.024 135.048C291.775 136.463 293.316 137.068 292.577 137.228C292.014 137.35 289.897 137.758 287.871 138.133C279.776 139.635 267.285 144.489 253.323 151.557C248.921 153.785 245.501 155.442 245.724 155.239C245.947 155.036 248.799 153.159 252.063 151.07C259.584 146.254 268.236 140.199 273.738 135.901C278.686 132.036 277.224 132.13 287.024 135.048ZM291.759 140.03C284.635 144.085 278.521 151.357 273.742 161.458C269.678 170.047 268.053 176.691 267.748 185.96C267.551 191.911 267.628 193.173 268.379 196.325C269.3 200.194 270.618 203.155 272.323 205.188L272.617 205.539C272.842 205.806 272.576 206.2 272.244 206.093C271.611 205.887 263.726 203.562 254.723 200.925C239.374 196.43 224.848 192.16 209.81 187.721C206.265 186.674 203.364 185.688 203.364 185.529C203.364 185.37 204.391 184.359 205.646 183.283C207.069 182.063 209.014 181.647 210.811 182.179L215.242 183.488C220.189 184.951 222.901 185.563 223.624 185.381C224.212 185.232 225.514 184.352 226.517 183.424C230.919 179.353 232.644 170.997 229.786 167.589C229.285 166.992 229.45 166.086 230.13 165.705L236.859 161.931C246.842 156.332 261.259 149.04 268.023 146.167C277.458 142.161 288.469 138.845 292.577 138.773C292.956 138.767 293.094 139.27 292.765 139.457L291.759 140.03ZM304.27 140.303C309.248 142.88 312.145 149.042 312.528 157.87C313.378 177.492 301.732 200.53 287.655 207.074C279.617 210.811 272.586 206.699 269.811 196.636C268.662 192.467 268.759 182.567 270.004 176.963C273.71 160.286 282.726 146.216 293.081 140.951C294.153 140.406 295.72 139.786 296.565 139.573C298.812 139.006 302.427 139.349 304.27 140.303ZM231.382 145.463C233.221 147.309 233.655 150.67 232.622 155.066C230.915 162.332 225.58 167.97 221.973 166.321C218.342 164.661 218.886 155.187 222.95 149.31C226.022 144.866 229.298 143.372 231.382 145.463ZM291.554 156.546C282.526 160.792 275.833 179.144 280.165 187.771C284.215 195.834 294.008 191.911 299.551 180.007C301.72 175.35 302.546 171.741 302.558 166.867C302.567 163.469 302.41 162.408 301.645 160.713C299.464 155.876 296.011 154.45 291.554 156.546ZM296.484 157.218C297.707 157.218 299.931 159.749 300.553 161.848C303.741 172.621 294.856 190.477 286.306 190.477C282.655 190.477 280.658 187.488 280.383 181.613C279.915 171.619 286.119 159.964 293.272 157.399C294.128 157.093 295.073 156.926 295.373 157.03C295.673 157.133 296.173 157.218 296.484 157.218ZM291.025 159.921C281.838 164.515 277.427 183.693 284.554 188.054C286.282 189.111 287.927 189.033 290.446 187.774C295.887 185.053 300.403 176.397 300.496 168.51C300.533 165.349 300.392 164.517 299.525 162.762C298.366 160.415 296.339 158.86 294.438 158.86C293.728 158.86 292.192 159.338 291.025 159.921ZM297.236 161.753C298.739 163.545 299.259 165.913 298.995 169.753C298.24 180.715 289.176 190.824 284.399 186.031C280.49 182.109 282.553 170.266 288.253 163.904C290.437 161.468 292.169 160.525 294.485 160.512C295.886 160.504 296.373 160.724 297.236 161.753ZM228.225 168.114C229.608 169.086 230.135 171.672 229.554 174.633C228.129 181.906 222.618 186.511 220.424 182.264C218.548 178.632 221.803 169.739 225.618 168.073C227.235 167.367 227.16 167.366 228.225 168.114ZM219.638 173.476C218.891 175.104 218.714 176.217 218.713 179.288C218.711 181.377 218.692 183.086 218.669 183.086C218.647 183.086 218.094 182.91 217.442 182.696C216.789 182.481 214.649 181.825 212.685 181.237L210.793 180.671C210.064 180.453 209.861 179.517 210.434 179.016C212.738 177.004 220.295 171.195 220.431 171.331C220.503 171.403 220.147 172.368 219.638 173.476ZM209.503 177.89C209.503 177.968 209.088 178.383 208.582 178.814C208.488 178.893 208.362 178.766 208.441 178.672C209.173 177.804 209.503 177.561 209.503 177.89ZM206.229 180.744C206.229 180.811 205.446 181.597 204.49 182.49L202.751 184.113L204.368 182.368C205.873 180.745 206.229 180.434 206.229 180.744ZM183.835 217.631C186.261 218.341 188.15 219.019 188.031 219.138C187.913 219.257 186.923 219.67 185.831 220.055C181.549 221.568 176.085 225.974 172.352 230.922C169.777 234.334 169.675 234.423 170.448 232.564C172.354 227.98 178.597 216.348 179.153 216.343C179.302 216.342 181.409 216.921 183.835 217.631ZM196.71 221.937C199.007 223.352 201.61 226.995 202.663 230.272C205.831 240.128 203.745 255.434 197.539 267.877C192.809 277.358 186.856 284.178 180.285 287.643C177.854 288.925 176.88 289.199 174.22 289.354C171.405 289.518 170.803 289.416 168.821 288.443C166.102 287.108 164.302 285.125 162.838 281.85C161 277.736 160.599 275.37 160.609 268.698C160.619 261.736 161.185 258.291 163.539 250.86C168.066 236.571 177.993 224.019 187.145 221.013C188.154 220.681 190.031 220.514 191.799 220.598C194.204 220.712 195.128 220.964 196.71 221.937ZM183.107 237.69C179.271 239.595 176.1 243.302 173.448 248.981C171.343 253.488 170.51 257.164 170.518 261.923C170.53 269.251 173.103 273.104 177.987 273.104C185.659 273.104 194.029 260.266 194.112 248.373C194.15 242.97 192.906 239.709 190.061 237.752C188.4 236.61 185.335 236.583 183.107 237.69ZM189.292 238.89C190.006 239.327 190.996 240.545 191.543 241.66C192.414 243.435 192.517 244.185 192.494 248.578C192.472 252.845 192.318 253.946 191.342 256.79C189.086 263.364 185.164 268.769 181.178 270.796C175.892 273.483 172.313 270.362 171.944 262.744C171.501 253.598 176.961 242.386 183.433 239.15C185.918 237.908 187.567 237.835 189.292 238.89ZM182.493 240.967C175.237 244.867 170.306 258.922 173.635 266.219C174.529 268.178 174.966 268.649 176.54 269.347C178.138 270.057 178.629 270.105 180.125 269.701C183.829 268.7 187.138 265.25 189.599 259.825C191.418 255.814 191.947 253.468 191.947 249.401C191.947 245.37 191.184 243.154 189.189 241.398C188.042 240.387 187.433 240.164 185.855 240.179C184.784 240.189 183.289 240.539 182.493 240.967ZM187.779 241.99C192.309 244.341 191.338 255.8 185.966 263.38C183.796 266.443 181.486 268.111 179.033 268.389C177.372 268.577 177.074 268.472 176.006 267.325C172.044 263.069 174.106 251.274 179.899 245.06C183.044 241.687 185.415 240.763 187.779 241.99Z" fill="#CBCBCB"/>
</svg>
