<svg width="293" height="230" viewBox="0 0 293 230" fill="none" xmlns="http://www.w3.org/2000/svg">
<path fill-rule="evenodd" clip-rule="evenodd" d="M150.611 10.1566C155.912 4.68179 160.811 1.60537 166.167 0.389342C167.474 0.0925694 169.436 -0.0696971 170.526 0.028836C172.313 0.191103 182.004 2.92149 223.232 14.8815C230.425 16.9679 246.296 21.5556 258.502 25.0766C270.707 28.5972 281.636 31.9477 282.787 32.5217C286.815 34.5299 290.25 39.5868 292.054 46.1639C293.217 50.4031 293.332 62.2768 292.263 67.6691C288.977 84.2395 280.844 99.5516 270.73 108.208C269.303 109.428 263.293 113.375 257.375 116.977C251.456 120.579 245.276 124.356 243.641 125.369C239.231 128.103 208.528 146.797 199.836 152.041C194.599 155.201 192.047 156.53 191.491 156.386C189.873 155.969 171.524 169.802 157.25 182.199C149.8 188.67 141.002 196.842 141.002 197.291C141.002 197.433 143.305 198.212 146.12 199.022C153.539 201.156 156.398 203.321 159.226 208.943C161.635 213.735 162.193 216.889 162.18 225.635C162.17 232.592 162.052 233.995 161.112 238.351C156.995 257.441 145.689 275.016 133.473 281.317C129.5 283.366 126.014 284.238 122.971 283.945C119.881 283.646 108.226 280.159 105.981 278.861C102.191 276.67 99.1148 272.085 97.4484 266.146C97.0022 264.556 96.5765 263.196 96.5024 263.122C96.4279 263.049 95.2367 263.933 93.8544 265.088C88.4812 269.575 83.6346 271.675 78.5871 271.703C75.9149 271.718 74.4209 271.426 69.0762 269.845C65.5888 268.814 61.9327 267.569 60.9515 267.079C58.6502 265.931 55.3828 262.512 54.0097 259.815C53.4165 258.651 52.8815 257.642 52.8208 257.574C52.7602 257.506 51.624 257.992 50.2965 258.653C47.6013 259.995 43.7522 261.006 41.3027 261.015C39.4798 261.022 27.099 257.588 24.3519 256.314C21.864 255.16 18.8919 252.095 17.2243 248.964C11.0957 237.457 12.8291 217.648 21.499 200.117C25.8332 191.353 28.9508 187.221 38.2422 177.93C53.1941 162.977 68.6046 149.304 81.6385 139.425C83.7527 137.823 85.4381 136.468 85.3838 136.415C85.1761 136.209 52.0679 126.739 45.1007 124.892C30.5384 121.031 12.8366 115.892 10.682 114.9C8.56262 113.924 4.62709 109.831 3.42911 107.356C0.653509 101.623 -0.253594 96.4662 0.0586811 88.1968C0.737522 70.2056 9.15349 51.1984 21.4582 39.8671C27.0847 34.6859 32.0522 32.2238 37.3902 31.97C40.2914 31.8324 41.185 31.9942 47.3378 33.7729C51.0554 34.8478 54.8324 36.0971 55.7304 36.5491C59.207 38.2988 62.1253 41.8296 63.9113 46.4466C64.4336 47.7963 65.011 48.8704 65.1941 48.8329C65.3776 48.7953 66.5934 48.0708 67.896 47.2223C71.8894 44.6221 75.2745 43.4972 79.1815 43.4718C82.1069 43.453 83.3837 43.6986 88.8905 45.3408C92.3779 46.3805 95.9853 47.5805 96.9071 48.0074C98.9503 48.9541 102.889 53.0221 103.892 55.223C104.298 56.1146 105.349 56.5095 106.242 56.1064L106.666 55.9151C109.948 54.4332 113.554 53.6719 116.228 53.8956C117.539 54.0055 121.349 54.9059 124.694 55.8967C128.039 56.8875 130.826 57.6985 130.889 57.6985C130.951 57.6985 131.122 56.3347 131.268 54.6682C132.75 37.7651 139.972 21.145 150.611 10.1566ZM203.22 10.7795C190.469 7.09272 178.267 3.56078 176.104 2.93048C171.776 1.66988 167.797 1.45561 164.966 2.33068C149.451 7.12713 134.822 31.2224 132.866 55.2043L132.782 56.2384C132.673 57.566 133.273 58.8522 134.36 59.6222C139.093 62.9759 142.336 70.1168 142.868 78.3596C143.077 81.5807 143.203 82.0522 143.936 82.3552C144.393 82.5441 154.04 85.3566 165.374 88.6047C176.708 91.8527 199.032 98.2805 214.982 102.888C230.933 107.496 244.093 111.266 244.227 111.266C244.36 111.266 243.839 110.452 243.069 109.457C241.286 107.152 239.943 104.346 238.868 100.677C237.776 96.9518 237.37 87.2553 238.074 81.7359C240.496 62.7491 251.612 42.8196 264.248 34.8103C266.675 33.2716 271.478 31.1395 272.638 31.0855C272.927 31.0723 269.33 29.9473 264.644 28.5862C239.186 21.1908 224.115 16.8217 203.22 10.7795ZM290.453 46.5549C288.725 40.0728 285.648 35.6275 281.536 33.674C279.221 32.5749 275.6 32.1553 273.009 32.6863C270.592 33.1821 266.574 35.1 263.671 37.1438C258.49 40.7915 251.415 49.4467 247.76 56.6088C243.692 64.577 240.582 74.4519 239.656 82.3318C238.993 87.9775 239.374 96.499 240.456 100.251C244.468 114.151 254.563 117.558 266.995 109.208C270.162 107.08 275.462 101.393 278.598 96.7551C284.507 88.0182 288.31 78.8503 290.493 68.0761C291.79 61.6754 291.771 51.5034 290.453 46.5549ZM43.9087 35.7823C44.5669 35.5791 44.5652 34.6469 43.9062 34.4461L43.3717 34.2832C39.8547 33.2114 36.512 33.2322 33.2121 34.3461C21.314 38.3633 9.72731 53.5343 4.32829 72.1656C2.25055 79.3371 1.75717 82.715 1.73102 89.9564C1.70288 97.7772 2.32109 101.134 4.68177 105.988C7.11696 110.993 9.93417 113.283 15.6883 114.932L15.7351 114.946C16.3602 115.125 16.8426 114.39 16.4297 113.888C11.5391 107.937 9.63577 97.6275 11.2225 85.685C14.2771 62.6947 28.8613 40.429 43.9087 35.7823ZM62.9571 48.626C61.5166 43.8769 58.5016 39.8667 54.9291 37.9481C53.2258 37.0335 52.2494 36.8005 49.6628 36.6918C43.7007 36.4411 38.8763 38.8399 32.1861 45.3818C24.3333 53.0604 18.0521 64.1653 14.8248 76.0757C10.3939 92.4267 11.8308 106.762 18.6089 113.833C21.3972 116.742 23.7856 117.715 28.0604 117.681C32.11 117.65 34.5432 116.822 38.9686 113.971L40.0835 113.253C41.2419 112.507 41.8583 111.154 41.6606 109.79C41.4818 108.559 41.336 104.714 41.336 101.245V96.3192C41.336 95.77 40.6959 95.4697 40.2736 95.8206C38.2842 97.473 35.6001 98.4936 33.2478 98.4912C30.6727 98.4889 29.0087 97.7546 27.458 95.936C20.9335 88.286 24.9959 69.2273 35.1226 59.9765C39.3189 56.1435 43.3234 54.9313 46.7913 56.4445C49.1615 57.4791 50.7843 59.6187 52.0057 63.3204C52.2022 63.9155 52.5331 63.6195 53.7557 61.7563C55.7113 58.7745 58.521 55.327 61.2701 52.536L62.2346 51.5569C62.994 50.786 63.2712 49.6616 62.9571 48.626ZM85.5348 47.1214C86.0495 46.9799 86.0599 46.2537 85.5494 46.0975L84.9277 45.9074C80.0906 44.4278 76.6666 44.6522 72.1335 46.7453C60.6412 52.0512 49.6256 67.7981 44.9406 85.6174C40.3592 103.043 43.2164 119.515 51.668 124.402C53.2885 125.339 58.1786 127.036 58.4596 126.759C58.5278 126.692 57.9583 125.862 57.1939 124.914C54.2015 121.205 52.3286 114.931 51.9534 107.356C50.7276 82.616 67.7973 51.9984 85.5348 47.1214ZM102.305 55.7059C100.734 52.8567 98.1783 50.3937 95.5719 49.2164C87.0351 45.3603 75.6541 51.5625 66.4428 65.09C53.3435 84.3282 49.5055 110.569 57.9543 123.128C59.6084 125.586 61.0664 126.922 63.4822 128.192C65.8674 129.447 72.1074 129.433 75.2186 128.167C77.1412 127.385 78.0637 127.028 78.3768 126.38C78.6735 125.766 78.4233 124.892 77.9585 123.15C77.4315 121.173 77.0566 118.236 76.9163 114.981L76.8028 112.353C76.7435 110.98 75.6132 109.898 74.239 109.898C70.8979 109.898 68.9529 108.592 67.2703 105.22C63.8531 98.3712 65.4977 87.0571 71.3227 77.3394C73.1809 74.2395 77.7418 69.7829 80.349 68.5195C83.9041 66.7968 87.9918 67.1526 90.0172 69.361C90.7396 70.1485 90.7705 70.1258 93.6175 66.7616C96.993 62.7726 100.293 59.7294 103.295 57.8385C103.371 57.7904 102.926 56.8309 102.305 55.7059ZM260.951 56.8993C262.638 55.1347 264.356 53.7963 265.932 53.0193C274.637 48.7277 280.882 56.0305 279.324 68.6787C277.766 81.3335 269.209 93.38 261.105 94.327C248.012 95.857 247.908 70.5414 260.951 56.8993ZM268.415 88.4299C278.288 78.4944 281.298 58.7706 273.644 54.1658C270.62 52.3464 266.502 53.6696 262.383 57.7833C255.341 64.8155 251.2 77.8063 253.367 86.062C255.483 94.1198 261.777 95.1102 268.415 88.4299ZM120.236 57.9784C121.046 57.6909 120.999 56.5297 120.168 56.3086L119.736 56.1935C117.998 55.7309 115.875 55.3673 115.019 55.3857C109.511 55.5034 103.245 58.9391 97.3057 65.099C89.6332 73.056 83.7317 84.1605 80.538 96.6492C76.0928 114.031 78.933 130.102 87.3066 134.943C88.6187 135.702 93.6916 137.463 94.5646 137.463C94.6355 137.463 94.3807 137.156 93.9987 136.779C92.3886 135.193 90.1892 131.228 89.2928 128.295C84.7489 113.424 89.3292 91.6056 100.478 75.0196C106.279 66.387 113.088 60.5149 120.236 57.9784ZM255.316 70.6466C257.938 63.0404 262.901 57.1425 267.695 55.9358C268.741 55.6723 269.776 55.5065 269.994 55.5675C270.212 55.6285 270.877 55.7833 271.473 55.912C273.243 56.2944 275.23 58.3296 276.117 60.6693C277.126 63.3293 277.223 69.1373 276.318 72.6959C273.808 82.5699 267.045 90.5429 261.178 90.5429C254.386 90.5429 251.654 81.2702 255.316 70.6466ZM50.6004 64.4605C49.6561 60.6525 47.9394 58.3898 45.4641 57.6891C43.7379 57.2007 43.3111 57.2273 41.0812 57.9616C34.3051 60.1935 27.3324 71.4747 26.1459 82.1257C25.693 86.1949 26.1515 90.3587 27.3193 92.7739C29.7906 97.8867 34.651 98.2699 40.2462 93.7929C41.2219 93.0125 41.9304 92.1131 41.9304 91.6549C41.9304 90.9194 41.8409 90.939 40.6425 91.9372C38.9619 93.3374 35.6834 94.8353 34.2892 94.84C31.3325 94.8502 28.488 92.3094 27.4279 88.7114C26.931 87.0254 26.8244 85.547 26.9829 82.555C27.2385 77.7476 27.9819 74.9332 30.1341 70.6274C35.7507 59.3915 45.1471 56.1435 48.9182 64.134C49.4298 65.2183 49.8503 66.5403 49.8522 67.072C49.8535 67.3739 50.2411 67.4966 50.4158 67.2505L50.4609 67.187C50.9678 66.4726 50.9904 66.0327 50.6004 64.4605ZM275.344 66.7174C275.344 62.511 274.574 60.0977 272.721 58.4922C270.141 56.2569 266.884 57.0373 263.032 60.8136C257.83 65.9131 254.354 75.9369 255.544 82.4084C256.093 85.3969 256.711 86.6191 258.371 87.9966C259.479 88.9167 259.916 89.0383 261.561 88.8823C268.214 88.2516 275.344 76.785 275.344 66.7174ZM137.595 104.83C144.582 84.2254 141.747 64.1755 131.195 59.5702C128.906 58.5712 124.881 58.3182 122.179 59.0029C113.323 61.2476 103.997 70.5477 97.4139 83.7003C93.8418 90.8361 91.9249 96.2195 90.4139 103.358C89.5278 107.545 89.355 109.388 89.3241 114.981C89.286 121.955 89.5908 124.13 91.2813 128.95C96.7026 144.403 112.836 143.185 126.048 126.326C130.85 120.198 135.009 112.456 137.595 104.83ZM48.4668 68.7276C48.107 66.0116 47.2098 63.8302 45.971 62.6595C44.6529 61.4134 42.0481 60.7194 42.4365 61.7176C42.57 62.0609 42.8756 63.4107 43.1157 64.7166C44.5792 72.6798 39.2539 85.2561 32.5321 89.7112C30.2344 91.2342 30.2661 91.7483 32.7199 92.7606C34.9324 93.6732 37.8273 92.5182 40.8549 89.5149C41.8983 88.4799 42.8451 87.1884 42.9596 86.6442C43.4165 84.4674 46.2678 76.0604 47.4515 73.3989C48.5033 71.0349 48.6705 70.265 48.4668 68.7276ZM34.7679 85.5744C38.8822 81.0199 41.5488 73.804 41.5163 67.3133C41.5064 65.3587 41.2837 63.2746 41.021 62.6822C40.7669 62.1092 40.0694 61.8865 39.5303 62.2063L39.1564 62.4281C33.2609 65.924 28.4634 75.4661 28.4618 83.7003C28.461 86.7153 29.0487 89.3699 29.7165 89.3699C30.6129 89.3699 32.8749 87.6702 34.7679 85.5744ZM89.3154 72.3889C89.997 71.4693 89.6728 70.7799 88.1111 69.8274C86.4569 68.819 83.5506 68.828 81.2188 69.8493C77.4616 71.4947 71.8248 78.5163 69.6345 84.2809C66.6279 92.1929 66.2922 99.5794 68.7155 104.512C69.9476 107.019 71.5605 108.214 73.9814 108.413C76.0152 108.58 76.5723 108.337 76.9595 107.112C77.2004 106.349 77.0487 106.268 75.0942 106.108C72.3689 105.885 70.7489 104.756 69.3999 102.141C67.999 99.4245 67.6745 93.9677 68.6553 89.6174C71.4828 77.0782 80.9212 68.2724 87.3395 72.1864C88.7245 73.0309 88.8315 73.0419 89.3154 72.3889ZM86.1169 77.7789C87.8562 74.6345 87.882 74.1437 86.3472 73.3715C86.0024 73.1979 85.2066 72.9344 84.5789 72.7862C83.5228 72.5363 83.4598 72.5832 83.7356 73.4161C83.8997 73.9111 84.1204 75.7864 84.2258 77.5834C84.2816 78.5318 85.5424 78.8179 86.0021 77.9866L86.1169 77.7789ZM82.7085 79.0622C82.6867 77.097 82.5484 75.0622 82.4005 74.5406C82.009 73.158 81.5109 73.1674 79.3543 74.5977C74.0341 78.1253 69.6884 87.3941 69.6785 95.2349C69.6749 98.185 70.2365 101.1 70.8083 101.1C70.9775 101.1 71.9853 100.49 73.0474 99.7452C78.5724 95.8695 82.7944 86.8307 82.7085 79.0622ZM101.372 103.596C103.124 91.2099 110.801 79.9025 118.705 78.0651C120.75 77.5897 120.791 77.5897 122.518 78.0624C124.783 78.6833 127.338 81.2084 128.358 83.8344C130.256 88.7216 129.73 96.6895 127.051 103.635C122.613 115.14 113.493 122.734 107.265 120.111C102.681 118.181 100.266 111.412 101.372 103.596ZM125.467 103.198C129.247 93.5243 128.495 83.2616 123.796 80.3963C122.113 79.3703 119.184 79.3558 116.935 80.3631C116.013 80.7764 114.341 81.9599 113.22 82.9937C104.513 91.023 100.209 106.815 104.448 115.176C108.728 123.616 119.999 117.192 125.467 103.198ZM110.276 87.3738C112.248 84.9323 115.674 82.4143 117.688 81.9259C120.345 81.2819 123.288 82.2551 124.732 84.2551C130.316 91.9931 124.896 109.926 115.294 115.478C113.866 116.304 112.953 116.534 111.087 116.538C108.036 116.546 106.582 115.579 105.064 112.528C102 106.371 104.439 94.5984 110.276 87.3738ZM125.139 95.71C125.849 90.5953 124.701 85.8797 122.35 84.2496C121.82 83.8821 120.873 83.4673 120.246 83.3277C119.284 83.1138 119.147 83.1775 119.364 83.7378C120.584 86.8748 120.311 93.1309 118.742 97.9719C116.803 103.955 112.323 110.349 108.731 112.257C107.954 112.67 107.318 113.146 107.318 113.316C107.318 113.88 109.878 115.173 110.996 115.175C116.809 115.182 123.766 105.607 125.139 95.71ZM118.374 88.7278C118.353 87.253 118.211 85.6072 118.06 85.0708C117.909 84.5343 117.507 84.0424 117.167 83.9779C116.409 83.834 112.876 86.5359 111.712 88.1491C111.296 88.7245 111.576 89.5375 112.258 89.7352L113.547 90.1092C115.025 90.5382 116.725 91.0062 117.324 91.1493C117.877 91.2814 118.406 90.8575 118.397 90.2894L118.374 88.7278ZM143.357 84.6778C143.562 84.6778 143.84 84.5018 143.975 84.2868C144.109 84.0717 143.941 83.8958 143.602 83.8958C143.262 83.8958 142.984 84.0717 142.984 84.2868C142.984 84.5018 143.151 84.6778 143.357 84.6778ZM232.743 109.721C222.281 106.682 198.742 99.8851 180.433 94.6175C162.125 89.3499 146.967 84.9855 146.749 84.9187C146.531 84.8518 145.594 85.2522 144.668 85.8082C143.295 86.6328 142.981 87.0367 142.972 87.997C142.964 88.6445 142.62 91.1067 142.205 93.4684C141.685 96.4314 141.582 97.8421 141.873 98.0197C142.337 98.3027 147.143 99.6768 185.585 110.517C199.97 114.573 212.007 118.048 212.334 118.238C212.834 118.529 212.96 120.445 213.127 130.301L213.207 135.038C213.259 138.12 216.645 139.974 219.269 138.358C222.539 136.345 226.194 134.112 227.393 133.396C228.592 132.679 235.279 128.612 242.254 124.357C249.229 120.101 255.398 116.339 255.963 115.996C256.973 115.383 256.945 115.37 254.378 115.309C252.297 115.259 247.892 114.122 232.743 109.721ZM118.018 94.0682C118.018 93.0922 117.795 92.9687 114.256 91.9825C112.187 91.4058 110.334 90.9339 110.14 90.9339C108.766 90.9339 105.357 100.519 105.342 104.426C105.339 105.353 105.953 106.168 106.845 106.419L108.408 106.861L109.905 107.284C110.866 107.555 111.898 107.249 112.556 106.497C114.803 103.927 118.018 96.6128 118.018 94.0682ZM75.0835 104.4C77.2643 104.428 77.3229 104.341 78.1091 99.927C78.4345 98.099 78.675 96.5819 78.6437 96.5557C78.6128 96.5295 77.7152 97.4621 76.65 98.6281C75.5844 99.794 74.0254 101.135 73.1853 101.608C72.3455 102.081 71.6568 102.573 71.6552 102.701C71.6449 103.483 73.452 104.379 75.0835 104.4ZM207.328 118.393C205.831 117.955 190.519 113.614 173.3 108.747C156.081 103.88 141.763 99.8198 141.483 99.724C141.202 99.6278 140.905 99.7663 140.822 100.031C139.396 104.616 137.923 108.773 136.839 111.27L136.178 112.795C135.818 113.625 136.283 114.581 137.158 114.811C138.073 115.05 148.542 117.965 160.42 121.288C172.299 124.61 184.285 127.96 187.055 128.731C190.269 129.626 193.71 129.157 196.567 127.433L197.844 126.663C201.007 124.754 205.048 122.291 206.823 121.191L207.639 120.685C208.57 120.107 208.379 118.701 207.328 118.393ZM108.948 110.111C109.506 109.651 109.32 108.754 108.625 108.555L108.038 108.386C106.812 108.035 105.703 107.747 105.573 107.747C105.253 107.747 105.269 107.919 105.768 109.874C106.268 111.831 106.811 111.872 108.948 110.111ZM46.7263 122.094C44.9359 119.728 43.8053 117.601 43.1007 115.274C42.8241 114.36 42.492 113.624 42.3632 113.639C42.234 113.654 41.4153 114.198 40.5434 114.848C38.4697 116.396 35.5066 117.885 32.899 118.69C32.2894 118.879 32.3041 119.747 32.9197 119.914L37.6545 121.203C41.4232 122.229 45.3516 123.306 46.3843 123.597C46.9899 123.767 47.4649 123.07 47.0854 122.569L46.7263 122.094ZM155.665 121.646C146.62 119.128 138.34 116.818 137.265 116.513C136.19 116.208 135.184 115.958 135.03 115.958C134.875 115.958 133.659 117.801 132.327 120.053L131.61 121.267C130.495 123.153 129.906 125.304 129.906 127.494C129.906 130.232 129.788 130.886 129.258 131.087C128.28 131.456 127.354 130.686 127.132 129.319C127.05 128.814 126.429 128.619 126.073 128.986L123.764 131.365C122.332 132.841 122.996 135.312 124.975 135.871L155.863 144.603L180.21 151.485C185.711 153.04 191.185 148.939 191.238 143.222C191.296 136.979 191.26 131.789 191.159 131.689C190.971 131.504 184.678 129.723 155.665 121.646ZM142.469 135.047C140.843 135.355 140.606 134.538 140.606 128.618V123.973C140.606 123.434 141.043 122.996 141.583 122.996C143.14 122.996 143.413 124.073 143.293 129.732C143.194 134.358 143.106 134.927 142.469 135.047ZM154.08 132.593C154.08 129.537 154.199 126.919 154.344 126.776C154.733 126.393 154.996 126.449 155.973 127.124C156.811 127.703 156.854 127.995 156.854 133.158C156.854 138.283 156.809 138.598 156.042 138.838C154.342 139.37 154.08 138.537 154.08 132.593ZM82.1184 132.352C81.5592 131.615 80.7551 130.352 80.3315 129.546C79.4724 127.909 79.3895 127.878 77.9926 128.665C77.4477 128.973 76.1103 129.518 75.0205 129.877C73.9307 130.236 72.873 130.624 72.6705 130.74C72.4676 130.855 74.6856 131.62 77.5995 132.439C80.513 133.258 82.9506 133.875 83.016 133.81C83.0814 133.746 82.6775 133.09 82.1184 132.352ZM167.523 141.49C167.024 140.195 167.059 132.12 167.568 131.182C168.07 130.255 168.653 130.224 169.603 131.072C170.235 131.637 170.328 132.378 170.328 136.89C170.328 140.796 170.195 142.169 169.784 142.505C169.037 143.117 167.964 142.634 167.523 141.49ZM181.027 140.218C181.027 137.269 181.146 134.739 181.292 134.596C181.739 134.154 182.526 134.306 183.19 134.961C183.72 135.484 183.805 136.454 183.713 140.919C183.615 145.692 183.528 146.265 182.891 146.386C181.278 146.692 181.027 145.862 181.027 140.218ZM172.166 151.029C172.236 150.96 160.394 147.527 145.849 143.401C131.305 139.275 119.226 135.917 119.008 135.939C118.79 135.961 117.631 136.661 116.433 137.495C115.234 138.329 112.963 139.51 111.387 140.12C110.506 140.461 110.588 141.735 111.506 141.96L115.152 142.854C127.356 145.845 140.475 148.164 153.089 149.558C160.401 150.365 171.937 151.256 172.166 151.029ZM95.9326 139.68C95.7649 139.577 94.0225 139.022 92.0608 138.445C90.0992 137.868 88.2268 137.327 87.8998 137.241C87.2971 137.085 86.2992 137.8 77.7957 144.481C66.9049 153.038 54.9291 163.738 42.3267 176.174C32.5796 185.791 29.7256 189.079 26.3211 194.612C13.7326 215.07 11.5296 242.059 21.6128 252.295C23.3901 254.099 25.9371 255.438 29.5829 256.483C30.1821 256.655 30.6438 255.936 30.2229 255.476C28.5054 253.601 26.4241 249.361 25.5114 245.879C24.5619 242.257 24.1565 235.652 24.5568 230.331C25.2447 221.189 27.9684 211.832 32.6399 202.566C37.0208 193.875 39.4893 190.72 50.6468 179.549C65.8734 164.305 78.0691 153.565 92.5641 142.635C94.5848 141.112 96.1006 139.782 95.9326 139.68ZM113.498 144.059C109.118 142.955 104.108 141.733 102.364 141.342C100.621 140.951 98.9039 140.622 98.5493 140.611C97.2617 140.572 80.8503 153.574 70.265 163.019C66.125 166.714 58.422 173.902 58.2773 174.205C58.223 174.32 60.533 175.087 63.4108 175.912C66.8942 176.909 69.3322 177.861 70.7041 178.76C72.7557 180.103 75.4988 183.215 76.438 185.264C76.7091 185.855 77.036 186.336 77.1648 186.332C77.2932 186.328 79.0923 184.734 81.1629 182.79C98.2366 166.759 111.605 155.18 121.069 148.224C123.069 146.755 123.396 146.066 122.094 146.066C121.746 146.066 117.878 145.163 113.498 144.059ZM134.778 148.805C134.606 148.657 132.77 148.231 130.699 147.858C128.628 147.484 126.578 147.104 126.142 147.013C124.617 146.693 104.124 163.537 89.504 177.126C76.1713 189.518 68.3886 197.682 64.7114 203.132C61.4686 207.938 57.8354 215.39 55.8362 221.334C49.4781 240.239 51.4695 259.041 60.4525 264.911C62.0274 265.941 66.5863 267.668 67.7284 267.668C67.9218 267.668 67.4292 266.832 66.6334 265.811C63.6692 262.005 61.9687 256.906 61.3608 249.999C60.1355 236.081 65.1787 218.706 74.4581 204.876C76.9508 201.161 78.962 198.993 90.0406 188.076C105.987 172.362 115.564 163.922 129.281 153.491C132.478 151.061 134.951 148.952 134.778 148.805ZM174.687 152.82C165.877 152.52 152.868 151.335 143.38 149.969C140.438 149.545 137.941 149.199 137.832 149.199C137.514 149.202 126.873 157.28 122.149 161.106C115.435 166.542 105.671 175.096 100.073 180.446L98.9551 181.514C97.1962 183.195 97.9233 186.15 100.261 186.823C107.536 188.916 109.79 190.429 112.655 195.137C114.159 197.607 116.036 202.87 116.036 204.614C116.036 205.498 117.369 204.345 125.448 196.467C142.442 179.898 160.073 164.981 175.314 154.277C175.94 153.837 175.648 152.853 174.883 152.827L174.687 152.82ZM188.423 155.577C188.337 155.493 186.415 154.902 184.153 154.264C181.89 153.626 180.01 153.104 179.975 153.104C179.939 153.104 177.888 154.537 175.416 156.289C157.268 169.152 139.483 184.446 121.116 202.982C114.418 209.743 112.059 212.544 109.125 217.224C101.527 229.343 97.4856 243.512 97.9144 256.524C98.2077 265.42 100.169 271.363 104.116 275.315C106.252 277.453 107.324 278.046 111.173 279.218L112.122 279.507C112.675 279.675 113.105 279.014 112.725 278.577C110.993 276.58 109.043 272.576 108.007 268.887C107.288 266.33 107.167 264.8 107.147 258.088C107.127 251.326 107.251 249.66 108.064 245.772C110.739 232.98 116.729 220.417 124.377 211.559C127.405 208.051 142.455 193.27 149.126 187.251C161.291 176.276 172.762 166.969 183.713 159.188C186.389 157.287 188.508 155.662 188.423 155.577ZM58.7727 176.757C59.5181 176.474 59.5066 176.438 58.5745 176.158C56.8067 175.626 56.3807 175.758 54.8316 177.324C54.4795 177.68 54.8622 178.264 55.3292 178.083L55.6428 177.962C56.9284 177.465 58.3368 176.923 58.7727 176.757ZM71.1816 181.059C70.5103 180.502 69.2402 179.683 68.3589 179.239C63.9312 177.01 57.7328 177.932 51.7798 181.704C46.2337 185.219 38.4831 194.369 34.5884 202C29.1866 212.584 26.5576 222.263 26.2038 232.869C25.8776 242.643 27.3217 248.995 30.9897 253.925C33.3306 257.072 37.8051 259.468 41.3091 259.451C43.2683 259.442 47.3437 258.367 49.3684 257.325C51.0447 256.462 51.7551 256.137 51.949 255.621C52.1048 255.206 51.9273 254.668 51.6494 253.629C50.9111 250.868 50.1027 242.978 50.3623 241.069C50.4677 240.293 49.8238 239.621 49.0441 239.693L48.0955 239.78C46.5995 239.918 45.0536 239.823 44.1822 239.539C42.3517 238.943 39.8143 236.123 38.9515 233.727C38.0678 231.27 37.7663 225.533 38.3318 221.92C38.9567 217.924 41.042 212.066 43.153 208.376C45.2898 204.64 50.0389 199.754 52.7879 198.463C56.6549 196.648 60.2671 197.028 62.7883 199.515C63.5511 200.269 64.2359 200.823 64.3104 200.747C64.3845 200.672 65.2195 199.625 66.1662 198.42C67.1129 197.215 69.6258 194.428 71.7511 192.226C73.8764 190.025 75.6149 187.907 75.6149 187.521C75.6149 186.572 72.6943 182.315 71.1816 181.059ZM95.6274 187.688C95.8979 187.599 95.9108 187.221 95.647 187.114L95.6274 187.107C94.2147 186.533 93.6266 186.707 92.261 188.097C91.9492 188.414 92.29 188.932 92.705 188.772L92.8768 188.705C93.9539 188.289 95.1915 187.831 95.6274 187.688ZM113.387 200.882C111.629 195.313 108.131 191.049 104.194 189.679C97.3164 187.284 89.4192 190.475 81.396 198.89C70.3898 210.434 62.9369 229.365 62.9389 245.772C62.9404 255.362 64.9956 262.134 69.155 266.252C75.4473 272.481 84.2742 271.331 93.8188 263.039C95.3453 261.712 96.2222 259.79 96.2227 257.767L96.2234 255.219C96.2246 250.269 96.7711 244.944 97.6743 241.08C97.8336 240.397 97.4991 240.692 96.567 242.055C94.3974 245.227 90.851 248.459 88.1649 249.713C83.9984 251.658 80.4877 251.116 77.8951 248.128C76.0278 245.975 75.1445 243.169 74.921 238.677C74.2517 225.219 84.0162 209.183 93.3928 208.344C99.366 207.81 102.995 212.454 103.107 220.776C103.12 221.784 104.464 222.116 104.946 221.23L105.087 220.971C107.587 216.376 109.818 213 112.596 209.604C113.683 208.276 114.309 207.515 114.534 206.651C114.84 205.477 114.407 204.114 113.387 200.882ZM62.281 201.284C61.8459 200.698 60.8789 199.912 60.1315 199.536C52.2914 195.591 40.543 210.358 39.6776 225.244C39.1295 234.668 43.2449 240.031 49.4009 237.913C50.2786 237.611 50.6492 237.234 50.6496 236.642C50.6504 235.859 50.4847 235.81 48.2473 235.935C46.206 236.048 45.6167 235.92 44.3316 235.081C41.3206 233.115 39.8301 227.872 40.6639 222.181C42.6069 208.923 52.1075 198.504 59.2189 201.833C59.9663 202.183 60.9249 202.905 61.3493 203.438L61.4145 203.519C61.7388 203.926 62.3779 203.849 62.5961 203.377C63.0011 202.5 62.9543 202.19 62.281 201.284ZM141.674 199.509C141.661 199.412 141.396 199.346 141.002 199.227C139.391 198.742 139.237 198.79 137.845 200.206C137.525 200.532 137.869 201.066 138.298 200.909L138.659 200.777C140.923 199.95 141.695 199.681 141.674 199.509ZM159.721 214.826C158.055 208.839 154.888 204.294 151.03 202.355C148.212 200.939 142.961 200.84 139.489 202.137C125.522 207.357 112.384 227.974 109.067 249.877C108.211 255.53 108.473 264.199 109.631 268.506C112.378 278.728 119.076 283.855 127.231 281.979C141.077 278.795 155.172 259.331 159.693 237.152C160.464 233.371 160.602 231.516 160.579 225.244C160.556 218.966 160.423 217.352 159.721 214.826ZM59.1527 209.304C61.1393 205.564 61.1365 205.14 59.1178 203.574C57.7526 202.514 56.4481 202.476 56.7789 203.505C57.3694 205.34 57.7586 208.989 57.5553 210.777C57.5086 211.186 58.062 211.358 58.2552 210.994L59.1527 209.304ZM55.1625 215.248C55.8853 212.34 56.0002 206.81 55.3832 204.618C55.1565 203.812 54.7464 203.152 54.4726 203.152C53.5056 203.152 50.3995 205.4 48.747 207.294C46.6475 209.702 43.7942 215.399 42.8899 218.988C41.6705 223.829 42.152 231.305 43.6832 231.305C44.6644 231.305 48.3008 228.34 49.9192 226.221C51.9755 223.529 54.3271 218.607 55.1625 215.248ZM101.387 224.583C102.198 218.472 100.58 212.76 97.4511 210.69C93.2751 207.928 86.4879 211.849 81.6413 219.823C74.1696 232.118 74.9705 248.427 83.0833 249.196C90.7353 249.922 99.6077 237.991 101.387 224.583ZM83.7864 217.951C85.494 215.76 88.4911 213.291 90.3192 212.57C91.7803 211.993 94.9434 212.08 96.2211 212.731C99.0549 214.177 100.581 217.804 100.581 223.093C100.581 232.204 94.9327 242.876 88.4562 246.003C86.6682 246.866 85.9259 247.01 84.0507 246.856C81.9725 246.686 81.667 246.531 80.1512 244.88C78.039 242.578 77.3871 240.349 77.4386 235.606C77.5056 229.443 79.7981 223.068 83.7864 217.951ZM96.2135 234.768C99.9937 226.798 99.8875 217.56 95.9813 214.528C95.4012 214.078 94.4964 213.709 93.971 213.709C93.0753 213.709 93.0353 213.801 93.3309 215.176C93.9068 217.856 93.6884 223.913 92.9109 226.808C91.0273 233.824 86.474 240.291 81.3191 243.274C80.6244 243.675 80.6715 243.77 81.9555 244.543C86.3357 247.18 92.2503 243.125 96.2135 234.768ZM88.1741 233.968C91.5964 227.893 92.9545 221.247 91.8298 216.074C91.594 214.989 91.2722 214.1 91.1149 214.1C90.3719 214.1 87.1176 216.505 85.7733 218.047C81.1348 223.369 78.0798 232.91 79.1304 238.795C79.3685 240.13 79.7319 241.388 79.938 241.591C80.8994 242.54 86.0095 237.81 88.1741 233.968ZM120.555 247.846C121.364 236.192 128.962 223.592 136.841 220.834C139.191 220.012 141.884 220.261 143.835 221.482C146.842 223.364 148.426 226.684 148.801 231.891C149.601 243.017 143.008 256.676 134.439 261.646C132.74 262.631 132.083 262.78 129.449 262.78C126.65 262.78 126.299 262.687 124.892 261.569C121.704 259.036 120.125 254.038 120.555 247.846ZM146.413 227.421C145.549 225.188 144.037 223.247 142.587 222.507C136.31 219.304 126.445 229.219 123.134 242.057C121.949 246.652 121.849 252.83 122.912 255.852C126.455 265.932 137.21 261.842 143.834 247.896C146.167 242.983 147.074 239 147.079 233.651C147.082 230.363 146.903 228.688 146.413 227.421ZM123.19 245.404C124.329 236.52 129.31 228.144 135.166 225.264C137.474 224.129 140.051 223.963 141.768 224.839C150.13 229.105 146.15 250.19 135.634 257.336C133.694 258.655 133.071 258.866 130.766 258.984C128.285 259.111 128.031 259.044 126.625 257.882C123.7 255.464 122.473 251.006 123.19 245.404ZM51.4548 231.989C51.4624 231.505 51.796 229.746 52.1967 228.079C52.5973 226.412 52.8731 225.048 52.8097 225.048C52.7467 225.048 52.3271 225.635 51.8777 226.353C50.8116 228.055 47.1991 231.414 45.5046 232.278L45.2447 232.411C44.7479 232.664 44.6869 233.35 45.1313 233.687C47.3326 235.356 51.4199 234.259 51.4548 231.989ZM144.567 235.25C144.564 230.897 144.033 229.12 142.194 227.306C141.194 226.319 140.341 225.83 139.616 225.83C138.668 225.83 138.57 225.941 138.83 226.71C138.994 227.194 139.21 229.292 139.309 231.371C139.537 236.148 138.591 240.17 136.033 245.291C134.074 249.214 130.643 253.257 128.149 254.583C127.372 254.996 126.736 255.553 126.736 255.821C126.736 256.534 128.864 257.502 130.433 257.502C137.12 257.502 144.574 245.767 144.567 235.25ZM131.8 249.12C136.532 242.829 139.012 233.362 137.415 227.688C137.188 226.881 136.863 226.221 136.692 226.221C136.522 226.221 135.552 226.764 134.537 227.428C131.17 229.628 127.947 234.452 125.937 240.298C124.456 244.606 124.434 253.983 125.906 253.983C126.843 253.983 130.268 251.157 131.8 249.12ZM197.202 128.864C194.367 130.623 192.642 133.723 192.642 137.06V137.68C192.642 145.084 200.628 149.736 207.068 146.084C210.246 144.282 212.136 140.842 211.952 137.194L211.921 136.575C211.552 129.239 203.444 124.991 197.202 128.864Z" fill="#CBCBCB"/>
</svg>
