<svg width="360" height="230" viewBox="0 0 360 230" fill="none" xmlns="http://www.w3.org/2000/svg">
<path fill-rule="evenodd" clip-rule="evenodd" d="M258.959 14.5398C155.135 79.2553 163.768 73.931 162.666 73.931C162.175 73.931 158.07 72.8479 153.543 71.5246C149.016 70.2012 143.722 68.669 141.779 68.1188C139.689 67.5277 138.246 65.62 138.246 63.448V59.1535V55.8303C138.246 53.0784 136.432 50.6559 133.791 49.8813C131.341 49.1629 127.13 47.9061 124.432 47.0891C121.313 46.1438 117.939 46.5811 115.164 48.2902L113.679 49.2048C110.463 51.1861 104.724 54.7182 100.926 57.0538C96.6347 59.6934 94.0194 64.37 94.0173 69.4083L94.009 89.0253L94.0017 105.567C93.9986 112.516 90.389 118.965 84.4676 122.601L68.9644 132.122C55.1964 140.576 34.0466 153.568 21.9657 160.992L7.25998 170.028C2.74873 172.8 0 177.716 0 183.011C0 187.697 0.224266 191.671 0.4983 191.841C0.973251 192.135 60.0135 209.328 113.976 224.887C127.831 228.882 158.937 237.89 183.099 244.905C252.817 265.147 262.786 268 263.809 268C264.338 268 273.975 262.354 285.224 255.452C296.473 248.551 321.047 233.475 339.832 221.95C358.618 210.425 374.526 200.707 375.183 200.354C376.108 199.858 378.442 200.331 385.527 202.45L385.98 202.586C391.507 204.24 397.478 203.426 402.362 200.355L407.318 197.237L412.836 193.766C417.283 190.969 420.024 186.124 420.131 180.872L420.202 177.372C420.265 174.3 421.85 171.46 424.432 169.794C428.182 167.375 509.227 117.341 536.187 100.801L544.178 95.8985C546.177 94.672 547.496 92.5891 547.749 90.2575C547.97 88.2244 548.062 84.2426 547.956 81.4085C547.839 78.3352 545.761 75.6847 542.804 74.8387L525.641 69.9283C513.476 66.4474 476.702 55.8192 443.923 46.3098C311.728 7.9599 284.106 0 283.216 0C282.704 0 271.788 6.5429 258.959 14.5398ZM305.76 8.26364C317.88 11.7926 339.962 18.1944 354.831 22.4898C369.7 26.7858 403.709 36.6341 430.405 44.3746C457.102 52.1152 493.461 62.6313 511.202 67.7436C528.944 72.856 543.681 77.1064 543.951 77.1895C544.222 77.2721 538.554 80.973 531.356 85.4125C524.158 89.8527 498.776 105.525 474.951 120.241C427.001 149.858 421.19 153.407 420.643 153.407C420.436 153.407 420.267 152.595 420.267 151.602C420.267 149.659 418.64 150.715 476.18 115.318C520.104 88.2983 526.597 84.1976 526.399 83.6024C526.279 83.2433 515.692 79.9743 502.871 76.3375C490.05 72.7001 454.537 62.611 423.954 53.9173C393.371 45.223 360.468 35.8806 350.837 33.1562C341.206 30.4312 320.331 24.5081 304.448 19.9934L284.077 14.2029C278.659 12.6626 272.842 13.4788 268.057 16.4509L262.36 19.9891C240.773 33.3965 181.982 69.7724 176.268 73.257C171.115 76.4003 170.904 76.4681 168.434 75.8015C167.037 75.4244 165.895 75.0166 165.895 74.8952C165.895 74.7738 167.899 73.4363 170.35 71.9232C172.8 70.4095 189.044 60.3068 206.447 49.4716C274.819 6.90578 282.957 1.86614 283.334 1.85752C283.549 1.85259 293.641 4.73528 305.76 8.26364ZM306.102 22.4467C322.089 26.999 351.759 35.4345 372.035 41.1931C392.311 46.9511 423.555 55.8247 441.465 60.9118C459.376 65.9995 484.951 73.2583 498.299 77.0423C511.648 80.8263 522.65 83.9961 522.749 84.0867C522.939 84.2604 421.011 147.246 420.541 147.246C420.39 147.246 420.267 143.931 420.267 139.879V137.154C420.267 134.403 418.453 131.98 415.813 131.205C413.363 130.487 409.189 129.243 406.539 128.439C403.475 127.511 400.16 127.944 397.437 129.628L392.747 132.528C385.518 137 383.47 138.002 382.206 137.687C380.92 137.366 346.883 127.529 274.188 106.468L269.78 105.191C267.204 104.445 265.432 102.086 265.432 99.4046C265.432 96.915 265.639 94.88 265.893 94.8825C266.147 94.8843 269.533 95.4413 273.42 96.119C313.21 103.061 351.047 106.406 396.626 107.013L417.759 107.295C421.621 107.346 425.415 106.279 428.683 104.22L435.642 99.8377C447.663 92.2672 449.643 90.8588 449.069 90.2833C448.898 90.1121 443.246 89.406 436.51 88.7148C366.191 81.4979 313.455 68.7626 271.7 48.9159C266.609 46.4959 260.635 46.8334 255.849 49.8115L252.387 51.9649C246.259 55.7779 241.155 59.1676 241.045 59.4972C240.935 59.8268 242.023 60.645 243.461 61.3153C246.866 62.9005 247.068 64.965 243.995 66.764C241.42 68.2722 233.447 68.8766 230.221 67.8089C228.055 67.0924 227.892 67.1663 217.848 73.4234C212.25 76.9105 207.758 80.0458 207.868 80.3902C207.976 80.7345 212.402 82.247 217.702 83.7509C224.874 85.7871 227.336 86.7322 227.33 87.4475C227.322 88.4462 223.637 91.1755 222.277 91.1896C221.85 91.1939 210.764 88.082 197.642 84.274C175.503 77.8488 173.872 77.282 175.006 76.4108C175.679 75.8939 192.611 65.352 212.633 52.9839C232.655 40.6159 254.869 26.8474 261.996 22.3869C269.124 17.9264 275.423 14.2533 275.995 14.2237C276.567 14.1941 290.115 17.8944 306.102 22.4467ZM273.135 51.6747C301.719 64.8431 332.212 74.09 371.728 81.5718C390.055 85.0423 421.686 89.3506 443.308 91.3215C444.928 91.4693 443.823 92.3312 434.207 98.4207L428.164 102.248C424.963 104.275 421.251 105.352 417.462 105.351L406.558 105.35C363.014 105.347 313.919 101.285 275.263 94.4876C270.363 93.6263 266.066 92.6818 265.713 92.3898C265.361 92.0977 261.382 90.7793 256.871 89.459C249.964 87.4376 248.54 86.8123 247.853 85.4982C247.405 84.6399 245.923 83.4909 244.561 82.9438C242.25 82.0166 242.084 81.7862 242.084 79.5024C242.084 76.6172 240.987 75.7793 237.209 75.7793C234.094 75.7793 232.256 77.4335 232.246 80.246C232.24 81.9575 231.897 82.4128 229.883 83.3794C227.529 84.5099 227.519 84.5087 220.213 82.5465C216.19 81.4658 212.563 80.3969 212.153 80.1714C211.71 79.9268 214.58 77.7631 219.219 74.8435L222.147 73.0007C225.337 70.9921 229.031 69.9264 232.801 69.9264H234.711C241.417 69.9264 242.707 69.757 244.881 68.5895C249.208 66.2675 249.633 63.2911 246.043 60.4596C245.268 59.8485 245.324 58.657 246.152 58.1209L246.807 57.697C252.28 54.1539 263.266 47.4391 263.589 47.4391C263.783 47.4391 268.078 49.3453 273.135 51.6747ZM127.638 50.0507C131.445 51.1486 134.552 52.1879 134.542 52.361C134.523 52.7239 114.369 65.0753 112.831 65.6668C111.822 66.0549 97.6882 62.2931 97.6999 61.6394C97.7103 61.0633 118.836 48.1014 119.804 48.078C120.306 48.065 123.831 48.9534 127.638 50.0507ZM136.219 66.3112C136.094 66.4369 134.731 66.1603 133.193 65.6957C131.413 65.1586 129.489 65.41 127.908 66.3863L125.257 68.0221L124.667 68.3869C121.827 70.1396 120.054 73.1977 119.943 76.5328C119.734 82.8268 118.979 82.1337 129.183 85.009L134.559 86.5233C135.647 86.8298 136.394 87.828 136.38 88.9581C136.359 90.7762 135.791 91.2173 125.193 97.6506C119.052 101.378 113.808 104.52 113.541 104.633C113.273 104.746 113.054 96.5447 113.054 86.4075V79.1551C113.054 72.2084 116.659 65.7593 122.576 62.1198L124.575 60.8902L130.864 57.0218C133.19 55.591 136.193 57.2135 136.271 59.9433C136.368 63.3195 136.345 66.1855 136.219 66.3112ZM104.299 65.9132C108.395 67.1081 111.21 70.8636 111.208 75.1301L111.202 87.1031L111.197 97.9369C111.194 103.113 108.486 107.911 104.056 110.589C100.13 112.96 96.6775 114.994 96.3844 115.106C96.0876 115.221 95.8505 103.772 95.8505 89.3186C95.8505 68.7824 96.0114 63.3854 96.6185 63.6115C97.0412 63.7686 100.497 64.8042 104.299 65.9132ZM175.523 79.9059C210.135 89.9026 219.726 92.8839 219.226 93.4876C218.119 94.8252 223.565 96.2736 157.474 77.0589C144.563 73.3057 133.549 70.2345 132.999 70.2345C132.449 70.2345 132.113 70.5813 132.252 71.0046C132.49 71.7297 143.91 75.1799 193.851 89.6149C205.341 92.9356 214.835 95.7333 214.948 95.8319C215.061 95.9298 214.602 96.3069 213.927 96.6692C212.939 97.1996 204.836 95.0476 172.247 85.5992C149.998 79.1487 129.892 73.3075 127.567 72.6188L127.072 72.4723C125.625 72.0436 125.363 70.1065 126.645 69.3091C128.464 68.178 130.228 67.2175 130.566 67.175C130.903 67.1331 151.135 72.8615 175.523 79.9059ZM154.528 82.4614C170.749 87.1783 189.965 92.7576 197.231 94.8597L206.687 97.5952C208.885 98.2313 210.356 100.298 210.237 102.584L210.189 103.503C210.109 105.027 208.629 106.077 207.165 105.648C194.192 101.852 151.985 89.6075 138.707 85.7877L126.056 82.1482C123.815 81.5034 122.271 79.4528 122.271 77.1205C122.271 73.3421 122.327 73.1954 123.653 73.5337C124.414 73.7271 138.307 77.7453 154.528 82.4614ZM239.933 78.2437C240.166 78.6207 239.211 78.8598 237.476 78.8598C235.741 78.8598 234.786 78.6207 235.018 78.2437C235.227 77.9048 236.333 77.6276 237.476 77.6276C238.618 77.6276 239.724 77.9048 239.933 78.2437ZM545.478 92.7397C544.898 93.2788 422.027 168.88 421.237 169.184C420.392 169.509 420.267 168.73 420.267 163.118C420.267 157.749 420.446 156.524 421.343 155.751C421.934 155.24 430.989 149.553 441.465 143.111C451.941 136.67 468.807 126.273 478.945 120.006C489.083 113.739 507.193 102.57 519.19 95.1862C531.187 87.803 541.97 81.1048 543.153 80.3014C544.082 79.6708 545.341 80.3175 545.369 81.4401L545.478 85.7095C545.573 89.4867 545.573 92.6504 545.478 92.7397ZM240.241 83.4139C240.241 85.8093 240.059 86.1648 238.652 86.519C235.721 87.2565 234.711 86.4673 234.711 83.4392C234.711 81.9308 235.934 80.708 237.442 80.708H237.476H237.535C239.029 80.708 240.241 81.9195 240.241 83.4139ZM232.493 85.8968C233.362 89.3678 242.084 89.3888 242.084 85.9202C242.084 84.0959 243.248 83.9641 245.221 85.5653C245.921 86.1341 245.855 87.2234 245.09 87.7025L244.52 88.0593C242.686 89.2083 241.656 89.3672 237.079 89.2089C232.883 89.0641 231.493 88.7776 230.468 87.8473C229.253 86.7433 229.236 86.5973 230.193 85.537C231.551 84.0313 232.046 84.1089 232.493 85.8968ZM140.089 88.4092C140.089 88.5059 139.674 88.745 139.167 88.9403C138.611 89.1541 138.246 88.9434 138.246 88.4092C138.246 87.875 138.611 87.6643 139.167 87.8781C139.674 88.0734 140.089 88.3125 140.089 88.4092ZM147.559 90.4429C147.782 90.6801 141.699 94.734 134.042 99.4526C126.385 104.171 114.314 111.637 107.217 116.043C100.121 120.45 78.4161 133.869 58.9849 145.864C39.5537 157.858 23.2573 168.059 22.7706 168.534C22.2834 169.008 22.0597 169.571 22.2723 169.784C22.4849 169.998 36.7083 174.175 53.8784 179.067C71.0492 183.958 115.097 196.527 151.763 206.997C253.237 235.973 271.216 241.075 271.884 241.084C272.221 241.088 280.793 235.968 290.931 229.705C324.988 208.667 365.232 183.828 370.499 180.596L374.316 178.254C374.974 177.85 375.829 178.262 375.923 179.028C376.034 179.928 375.896 180.888 375.616 181.16C375.336 181.432 367.78 186.153 358.825 191.653C349.87 197.152 325.538 212.09 304.755 224.849C283.972 237.608 266.277 248.49 265.432 249.032C263.969 249.97 263.194 249.814 249.15 245.74C241.039 243.388 222.376 237.984 207.676 233.73C192.976 229.478 163.253 220.871 141.625 214.604C119.997 208.337 80.3208 196.852 53.4551 189.082C26.5893 181.312 4.35874 174.875 4.05398 174.777C3.53049 174.61 13.2022 168.596 70.3518 133.557C83.5312 125.476 94.7291 118.606 95.236 118.29C95.7429 117.973 99.451 115.695 103.476 113.227C107.502 110.759 117.87 104.37 126.517 99.0275C141.428 89.8157 142.367 89.3321 144.697 89.6636C146.049 89.8552 147.337 90.2063 147.559 90.4429ZM245.755 96.4369C243.778 98.8261 234.073 99.2962 230.822 97.1602C229.4 96.2256 229.181 95.6643 229.181 92.9498C229.181 90.2187 229.319 89.8712 230.256 90.2341C234.599 91.9166 241.279 91.9154 244.542 90.231C246.072 89.4412 246.078 89.4498 246.265 92.5161C246.368 94.2091 246.138 95.9736 245.755 96.4369ZM255.179 90.9419C258.283 91.826 261.042 92.752 261.309 92.9991C261.876 93.524 240.387 106.857 239.017 106.83C237.251 106.796 213.901 99.5586 214.166 99.128C214.484 98.6129 226.469 91.1816 226.982 91.1816C227.178 91.1816 227.338 92.3091 227.338 93.6866C227.338 97.0801 228.087 98.2488 231.019 99.4249C233.868 100.568 241.111 100.762 243.734 99.7656C247.171 98.4601 248.228 96.8503 248.228 92.9227C248.228 90.8009 248.495 89.3333 248.881 89.3333C249.239 89.3333 252.073 90.0572 255.179 90.9419ZM182.177 100.405C196.371 104.508 208.467 108.012 209.058 108.191C210.027 108.483 210.134 109.545 210.134 118.918V127.249C210.134 128.474 210.951 129.548 212.131 129.875C213.229 130.18 218.205 131.637 223.19 133.113L230.051 135.145C231.357 135.532 232.253 136.731 232.253 138.093C232.253 140.07 232.737 140.868 235.727 143.818C237.637 145.703 239.434 147.246 239.721 147.246C240.006 147.246 240.241 146.128 240.241 144.763C240.241 143.123 240.554 142.158 241.162 141.924C241.772 141.689 242.089 140.706 242.101 139.017C242.111 137.43 242.942 135.962 244.297 135.136L252.546 130.109L255.453 128.338C260.245 125.417 266.045 124.645 271.435 126.209L292.007 132.18C307.974 136.815 332.512 143.907 346.536 147.942C360.561 151.975 372.933 155.57 374.032 155.929C375.223 156.319 376.029 157.431 376.029 158.684V165.735V166.758C376.029 171.811 373.414 176.504 369.116 179.163C289.341 228.522 272.221 239.044 271.681 239.044C271.151 239.044 242.127 230.808 154.528 205.8C115.666 194.705 70.8157 181.913 54.8621 177.372C32.61 171.04 26.0277 168.95 26.5985 168.398C27.0071 168.003 40.7518 159.389 57.1416 149.257C73.5314 139.125 94.1301 126.383 102.916 120.941C111.703 115.499 126.072 106.61 134.847 101.187L148.336 92.8523C149.907 91.8819 151.815 91.6217 153.587 92.1359C155.119 92.5801 167.984 96.3007 182.177 100.405ZM263.589 99.4403C263.589 102.267 262.092 104.882 259.656 106.314L258.673 106.892C255.628 108.682 253.758 111.982 253.758 115.514V118.088C253.758 119.941 255.028 121.553 256.83 121.986C258.52 122.393 259.9 122.905 259.898 123.126C259.896 123.346 259.136 123.964 258.209 124.498C257.282 125.032 252.86 127.726 248.382 130.483C244.828 132.672 240.251 130.11 240.259 125.936L240.266 122.119L240.27 119.906C240.283 112.966 243.893 106.529 249.807 102.899L251.479 101.873C257.633 98.0954 262.874 94.9761 263.128 94.9416C263.382 94.9065 263.589 96.931 263.589 99.4403ZM225.187 104.94C232.84 107.244 238.157 114.261 238.256 122.253C238.387 132.896 238.26 135.625 237.642 135.408C237.212 135.259 231.263 133.494 224.422 131.488C217.047 129.325 211.981 122.56 211.979 114.875L211.979 114.439C211.978 107.069 212.046 101.043 212.131 101.047C212.215 101.051 218.091 102.804 225.187 104.94ZM284.479 111.415C385.014 140.5 381.531 139.447 380.225 140.365C378.813 141.357 386.115 143.347 310.592 121.39C284.909 113.923 263.489 107.66 262.992 107.474C262.195 107.174 262.195 107.065 262.992 106.561C263.489 106.245 264.311 105.988 264.818 105.99C265.325 105.992 274.172 108.433 284.479 111.415ZM283.865 115.598C294.848 118.791 320.18 126.147 340.159 131.945C371.297 140.983 376.444 142.639 376.209 143.54C375.898 144.732 380.789 146.072 305.37 124.135C281.207 117.107 260.369 111.072 259.062 110.725C256.751 110.112 256.724 110.072 258.088 109.341C259.095 108.801 260.114 108.758 261.693 109.191C262.905 109.522 272.882 112.405 283.865 115.598ZM328.411 132.816C352.404 139.764 372.933 145.735 374.032 146.087C376.005 146.718 376.029 146.771 376.029 150.598C376.029 152.536 374.17 153.934 372.308 153.396L345.461 145.646C328.649 140.793 301.622 132.974 285.401 128.271L259.773 120.84C257.463 120.17 255.836 118.103 255.728 115.7C255.64 113.728 257.517 112.253 259.412 112.804L270.167 115.932C278.208 118.271 304.417 125.869 328.411 132.816ZM409.659 131.375C413.466 132.473 416.581 133.531 416.581 133.727C416.581 134.352 395.171 147.246 394.134 147.246C393.586 147.246 390.115 146.358 386.421 145.272C381.122 143.715 379.866 143.141 380.477 142.554C381.705 141.374 401.39 129.379 402.099 129.379C402.45 129.379 405.852 130.278 409.659 131.375ZM418.277 161.86L418.183 177.256C418.142 184.065 414.64 190.384 408.889 194.028L407.151 195.129C401.121 198.952 396.072 202.078 395.932 202.078C395.792 202.078 395.749 190.117 395.837 175.499L395.931 159.978C395.972 153.096 399.549 146.719 405.4 143.096L406.75 142.259C412.664 138.596 417.713 135.586 417.97 135.57C418.227 135.554 418.365 147.385 418.277 161.86ZM237.865 137.486C241.869 138.689 240.293 141.85 236.203 140.821C235.041 140.529 234.711 140.04 234.711 138.609C234.711 136.516 234.676 136.528 237.865 137.486ZM108.139 147.385C102.563 150.909 96.7942 154.561 95.319 155.5C93.5949 156.598 92.849 157.421 93.2305 157.803C93.5568 158.13 100.155 159.058 107.894 159.865C176.39 167.007 229.349 179.885 270.134 199.317C275.347 201.801 281.467 201.452 286.363 198.391L289.587 196.376C295.683 192.566 300.763 189.165 300.875 188.818C300.986 188.472 299.901 187.64 298.462 186.97C293.038 184.444 296.277 180.709 304.465 180.05C306.615 179.877 309.661 180.06 311.233 180.457C313.059 180.918 314.995 180.616 316.593 179.619L324.169 174.896C329.713 171.44 334.248 168.286 334.248 167.886C334.248 167.039 315.821 161.99 299.533 158.373C268.483 151.479 241.461 147.487 201.225 143.85C187.203 142.583 165.033 141.611 143.468 141.319L124.215 141.057C120.34 141.005 116.533 142.079 113.257 144.149L108.139 147.385ZM182.177 144.47C221.843 146.954 256.057 151.321 288.996 158.103C302.57 160.899 328.072 167.153 329.762 168.102C330.441 168.483 328.466 169.991 322.207 173.873C314.544 178.625 313.553 179.076 311.859 178.589C309.013 177.771 302.843 177.945 299.557 178.937C293.701 180.704 291.97 184.494 295.616 187.57C296.673 188.462 297.433 189.273 297.306 189.373C296.012 190.395 278.742 200.846 278.346 200.846C278.056 200.846 274.548 199.295 270.55 197.398C230.936 178.608 179.648 165.852 114.898 158.686C107.294 157.845 100.107 157.074 98.9244 156.976C96.8944 156.805 97.3828 156.413 107.834 149.821L113.876 146.01C117.149 143.945 120.951 142.875 124.821 142.928L142.854 143.177C156.033 143.359 173.729 143.941 182.177 144.47ZM386.79 147.354C390.964 148.529 393.847 152.337 393.847 156.673V176.018C393.847 190.69 393.673 202.694 393.459 202.694C393.246 202.694 389.652 201.686 385.472 200.454C380.966 199.125 377.872 194.988 377.872 190.29V171.431C377.872 147.768 377.98 144.692 378.802 145.008C379.314 145.205 382.908 146.26 386.79 147.354ZM29.6012 184.181C43.5659 188.199 80.9813 199.027 112.747 208.24C165.806 223.63 186.058 229.487 242.845 245.871L256.047 249.679C260.143 250.861 262.964 254.607 262.968 258.869L262.971 262.067C262.972 264.066 261.055 265.509 259.134 264.952C257.022 264.34 242.161 260.036 226.109 255.388C210.057 250.74 191.394 245.318 184.635 243.339C177.876 241.36 153.96 234.435 131.487 227.95C77.3777 212.334 6.34026 191.727 3.84016 190.921C2.64999 190.537 1.84328 189.429 1.84328 188.179V183.198C1.84328 176.489 1.90534 176.139 3.02728 176.496C3.67857 176.703 15.6365 180.161 29.6012 184.181ZM376.029 190.583C376.029 194.922 373.765 198.947 370.058 201.2L369.116 201.773C365.315 204.084 355.568 210.052 347.458 215.035C326.55 227.882 269.199 263.031 266.814 264.461C265.935 264.988 264.818 264.354 264.818 263.329V258.656C264.818 254.305 267.075 250.266 270.78 247.986L312.858 222.092C359.757 193.232 375.528 183.595 375.863 183.595C375.954 183.595 376.029 186.74 376.029 190.583Z" fill="#CBCBCB"/>
</svg>
