<svg width="264" height="230" viewBox="0 0 264 230" fill="none" xmlns="http://www.w3.org/2000/svg">
<path fill-rule="evenodd" clip-rule="evenodd" d="M137.518 0.246868C130.464 1.75478 122.468 7.88307 116.225 16.566C112.872 21.2303 107.968 31.0376 106.02 36.9765C100.922 52.5176 101.005 67.8419 106.235 76.7094C107.605 79.0324 110.596 82.1733 112.312 83.0904C113.049 83.4842 113.643 83.8954 113.632 84.0041C113.575 84.5828 108.167 88.3664 107.436 88.3395C106.969 88.3221 101.432 86.8164 95.1312 84.994C88.8304 83.1712 81.0117 80.9087 77.7563 79.9662C73.3561 78.6925 71.3922 78.295 70.1011 78.417C58.8952 79.477 47.7589 100.463 50.813 114.764C52.0362 120.491 54.3125 122.798 60.2978 124.377C61.7222 124.753 62.8391 125.184 62.7799 125.334C62.7208 125.484 59.2359 128.406 55.0353 131.827C50.8348 135.248 43.4457 141.274 38.6151 145.219C33.7845 149.164 27.6934 154.103 25.0795 156.194C17.7129 162.087 12.6231 168.546 8.04792 177.807C-0.614313 195.342 -2.47591 214.978 3.39909 226.846C4.90899 229.897 7.61413 232.859 10.1329 234.219C11.2021 234.797 18.2201 237.055 25.7279 239.238C56.9214 248.306 81.5227 255.47 108.188 263.25C114.74 265.162 121.024 266.821 122.154 266.936C127.932 267.528 135.25 263.973 141.719 257.432C152.791 246.236 160.517 228.248 161.596 211.157C161.9 206.337 161.311 199.89 160.26 196.539C159.873 195.304 159.63 194.293 159.72 194.293C159.811 194.293 162.632 195.073 165.99 196.027C171.651 197.636 172.234 197.733 174.014 197.354C176.448 196.836 177.89 196.104 180.301 194.164C185.515 189.969 189.699 182.841 192.009 174.219C193.04 170.37 193.155 162.797 192.229 159.806C190.747 155.022 187.657 152.167 183.901 152.111C182.859 152.095 182.006 152.058 182.006 152.03C182.006 152 182.822 151.4 183.819 150.695C184.817 149.99 187.867 147.776 190.598 145.774C193.328 143.773 198.913 139.689 203.008 136.697C207.104 133.706 211.657 130.374 213.128 129.294C228.625 117.908 235.226 113.126 236.994 112.003C240.396 109.842 243.638 106.977 246.468 103.631C256.074 92.2724 262.344 77.0019 263.785 61.4567C265.003 48.3201 260.953 36.5361 253.929 32.7813C252.911 32.2371 245.806 29.9655 238.14 27.7338C230.474 25.5017 219.562 22.3255 213.891 20.6751C208.221 19.0247 201.863 17.1727 199.762 16.5599C197.662 15.9471 191.218 14.0712 185.442 12.3913C172.173 8.53187 169.91 7.87133 155.466 3.63939C143.43 0.113092 140.624 -0.417084 137.518 0.246868ZM182.96 13.3338C204.173 19.5227 223.763 25.2311 226.493 26.019C229.223 26.8068 234.241 28.2647 237.645 29.2591L240.845 30.1944C241.761 30.4623 241.786 31.7515 240.881 32.0544C232.017 35.0198 222.61 45.0193 216.239 58.2476C213.293 64.3633 212.12 67.5459 210.658 73.3775C208.887 80.4422 208.576 82.9813 208.611 90.0763C208.639 95.8897 208.762 97.157 209.607 100.342C210.65 104.277 211.911 107.055 213.936 109.877C214.646 110.868 215.15 111.678 215.057 111.678C214.963 111.678 208.82 109.905 201.406 107.738C193.991 105.572 182.512 102.227 175.896 100.305C164.484 96.9914 158.705 95.3076 127.855 86.3113C120.65 84.2099 114.12 82.1654 113.344 81.7671C110.513 80.3149 107.607 76.6093 106.04 72.4543C102.634 63.4174 103.257 50.4787 107.744 37.0958C114.921 15.6891 130.204 0.171453 142.483 1.82413C143.533 1.96587 161.748 7.14485 182.96 13.3338ZM252.052 33.5601C256.022 35.3022 259.638 40.4368 261.296 46.6845C262.294 50.442 262.307 63.3636 261.318 68.2118C256.225 93.1854 240.154 113.903 225.721 114.099C222.984 114.136 222.387 114.008 220.109 112.895C217.01 111.382 214.914 109.135 213.093 105.379C209.172 97.2873 209.103 84.2478 212.913 71.1222C217.71 54.5966 228.111 39.9271 238.814 34.5935C243.329 32.3432 248.382 31.9487 252.052 33.5601ZM238.552 52.4232C232.114 54.6599 225.966 62.8497 223.163 72.9231C222.516 75.2526 222.34 76.9697 222.321 81.1706C222.299 85.902 222.394 86.7172 223.2 88.7048C226.428 96.6692 234.127 96.814 241.195 89.0429C249.131 80.3168 252.732 64.6949 248.641 56.7396C246.479 52.5357 242.782 50.9539 238.552 52.4232ZM243.185 53.764C245.077 54.3267 247.048 56.5524 247.955 59.1491C248.928 61.9379 248.819 69.1334 247.745 73.1224C245.458 81.6083 239.957 89.7315 234.85 92.1641C232.603 93.2343 229.453 93.3286 227.917 92.3717C223.401 89.559 222.339 80.6658 225.402 71.3174C228.686 61.2945 235.094 54.0732 241.341 53.3551C241.527 53.3339 242.357 53.518 243.185 53.764ZM238.291 56.1276C230.031 58.6936 222.81 73.5438 224.932 83.6051C225.957 88.4672 228.222 90.8301 231.86 90.8327C234.666 90.835 237.239 89.4184 240.205 86.2404C244.819 81.2934 247.707 73.8789 247.713 66.9593C247.718 61.1618 246.207 57.7795 242.957 56.3152C241.13 55.4917 240.429 55.4637 238.291 56.1276ZM243.254 58.279C243.814 58.7156 244.653 59.7812 245.12 60.6476C245.869 62.038 245.967 62.7758 245.956 66.9593C245.943 72.349 245.232 75.2818 242.857 79.7468C237.89 89.0834 230.521 92.1607 227.387 86.2067C226.698 84.8992 226.5 83.7877 226.375 80.5263C226.239 77.0046 226.349 76.0212 227.21 73.0425C229.793 64.1056 235.428 57.4987 240.475 57.4885C241.69 57.4862 242.553 57.7318 243.254 58.279ZM78.6598 81.9213C82.6786 83.0639 87.6848 84.496 89.7851 85.1039C91.8854 85.7117 98.7589 87.69 105.06 89.4995C129.628 96.5552 137.686 98.8703 152.602 103.156C161.108 105.6 170.875 108.404 174.307 109.389C180.472 111.158 180.532 111.184 179.315 111.685C174.985 113.465 170.185 118.951 166.855 125.927C162.618 134.805 161.789 145.191 164.845 151.135C165.281 151.985 165.582 152.736 165.512 152.805C165.443 152.874 162.553 152.107 159.089 151.102C155.626 150.097 149.098 148.216 144.583 146.922C140.067 145.627 133.537 143.751 130.072 142.753C126.606 141.754 120.077 139.878 115.561 138.584C111.045 137.29 104.516 135.414 101.05 134.416C97.5847 133.417 91.1407 131.565 86.7302 130.299C62.4645 123.336 57.2299 121.775 56.2703 121.217C54.9635 120.456 53.6014 118.455 52.722 116.004C51.7387 113.263 51.8193 105.672 52.8736 101.749C55.172 93.1964 59.8843 85.5863 65.0776 82.0403C66.7685 80.886 69.2457 79.9192 70.6406 79.8696C71.0328 79.8556 74.6415 80.7787 78.6598 81.9213ZM170.741 100.543C220.685 115.131 222.396 115.601 225.615 115.629C227.442 115.644 228.817 115.764 228.67 115.896C228.523 116.027 225.997 117.891 223.056 120.037C220.116 122.183 216.078 125.135 214.082 126.595C212.087 128.056 208.908 130.382 207.018 131.764C205.128 133.146 199.693 137.121 194.94 140.599C190.188 144.076 186.194 146.922 186.065 146.922C185.937 146.922 186.336 146.107 186.953 145.112C192.151 136.728 194.3 125.506 192.109 118.185C191.402 115.821 189.516 113.032 187.994 112.1C186.869 111.41 180.096 109.359 159.094 103.347C151.493 101.171 148.239 100.235 130.263 95.0533C126.692 94.024 120.647 92.2884 116.828 91.1962L113.476 90.2373C111.956 89.8023 111.546 87.8404 112.766 86.8339L114.224 85.6314C115.114 84.8971 116.309 84.6503 117.417 84.972C118.392 85.2547 142.387 92.2618 170.741 100.543ZM75.4602 93.3923C72.2563 97.8262 69.7643 104.459 68.9849 110.628C68.7687 112.341 68.5916 114.031 68.5916 114.384C68.5916 115.176 68.2192 115.054 87.6848 120.593C102.665 124.856 112.904 127.782 132.284 133.34C137.386 134.803 141.787 135.914 142.064 135.808C142.379 135.688 142.671 134.583 142.842 132.863C143.266 128.594 144.787 123.255 146.678 119.396C148.27 116.149 148.655 115.088 148.24 115.088C148.152 115.088 145.36 114.321 142.038 113.383C138.715 112.445 135.699 111.678 135.336 111.678C134.566 111.678 132.056 116.613 130.975 120.256C130.593 121.54 129.259 122.286 127.965 121.939L126.333 121.501C124.157 120.917 122.14 120.244 121.851 120.006C121.137 119.418 119.38 115.862 119.38 115.004C119.38 114.137 119.077 114.026 110.749 111.84C106.99 110.854 103.778 109.929 103.612 109.785C102.921 109.187 102.501 104.373 102.905 101.677C103.213 99.6233 103.2 98.8839 102.848 98.5698C102.412 98.1802 78.3704 91.2132 77.4619 91.2132C77.2271 91.2132 76.3262 92.1936 75.4602 93.3923ZM97.3445 98.4636L98.9693 98.9347C100.417 99.3544 101.359 100.747 101.211 102.247C101.057 103.794 101.147 106.071 101.435 107.906C101.843 110.51 102.047 111.026 102.773 111.3C103.245 111.478 106.766 112.434 110.599 113.425L116.156 114.861C117.044 115.091 117.769 115.728 118.111 116.578C119.013 118.822 119.91 120.396 120.716 121.149C121.449 121.834 129.285 124.183 130.835 124.183C131.344 124.183 131.658 123.848 131.812 123.141C132.201 121.351 133.589 117.644 134.714 115.391C135.741 113.333 135.843 113.246 136.846 113.562C137.426 113.745 139.812 114.435 142.149 115.095L144.659 115.804C145.545 116.055 145.963 117.069 145.512 117.871C144.101 120.377 141.995 127.109 141.492 130.721C141.238 132.545 140.903 134.037 140.747 134.037C140.59 134.037 139.371 133.707 138.036 133.304C136.701 132.901 125.642 129.729 113.461 126.255C101.279 122.781 86.6729 118.613 81.0022 116.991L73.3783 114.811C71.7957 114.359 70.7177 112.896 70.7548 111.25C70.8663 106.318 73.4897 98.804 76.6023 94.5027C77.317 93.515 78.5736 93.0804 79.7458 93.4155L85.5074 95.0628C89.7504 96.2759 95.077 97.8061 97.3445 98.4636ZM82.4613 102.436C79.9544 103.663 79.3804 107.393 81.4497 109.008C82.6328 109.932 83.5175 109.981 85.0244 109.208C87.4309 107.973 88.0262 104.758 86.1868 102.932C84.9251 101.68 84.2022 101.584 82.4613 102.436ZM85.7041 105.164C86.0837 107.674 82.5327 109.149 81.78 106.795C81.4723 105.833 82.2379 104.263 83.2415 103.796C84.261 103.322 85.5323 104.028 85.7041 105.164ZM186.416 113.038C192.208 115.766 192.946 128.326 187.983 139.692C185.26 145.929 180.62 151.46 176.469 153.419C169.346 156.78 164.651 152.222 164.701 141.995C164.753 131.669 170.088 120.085 177.142 114.983C178.359 114.103 179.908 113.183 180.585 112.938C182.357 112.297 184.936 112.341 186.416 113.038ZM76.6107 129.072C82.3865 130.725 89.7756 132.848 93.031 133.791C96.2864 134.733 102.902 136.634 107.733 138.016C112.563 139.398 118.492 141.102 120.907 141.802C123.322 142.503 131.571 144.874 139.237 147.07C146.903 149.267 157.041 152.184 161.767 153.552C166.492 154.92 171.078 156.077 171.958 156.122C172.837 156.169 173.438 156.312 173.294 156.442C173.15 156.572 169.681 159.12 165.585 162.103C151.148 172.621 145.207 176.96 139.483 181.167C136.302 183.505 132.887 185.971 131.893 186.647C116.544 197.093 104.298 225.195 106.348 245.269C107.046 252.1 108.736 257.139 111.666 261.132C112.738 262.592 112.868 262.931 112.287 262.75C111.882 262.625 102.702 259.95 91.8854 256.807C25.1376 237.413 12.1083 233.552 10.7168 232.753C7.30978 230.798 4.47824 226.598 2.88281 221.134C1.8701 217.667 1.4554 207.921 2.09349 202.584C4.07079 186.05 13.4628 167.587 24.3475 158.84C28.3116 155.653 54.0516 134.697 59.9996 129.813C62.8498 127.473 65.2078 125.807 65.5366 125.902C65.8517 125.992 70.835 127.419 76.6107 129.072ZM177.276 129.901C175.814 131.042 175.132 132.591 175.132 134.767C175.132 136.403 175.273 136.764 176.131 137.321C177.017 137.898 177.238 137.909 178.098 137.425C179.712 136.516 180.59 134.989 180.776 132.769C180.92 131.043 180.818 130.584 180.14 129.911C179.127 128.906 178.554 128.904 177.276 129.901ZM179.333 132.275C179.333 133.588 177.906 136.126 177.232 136.012C176.512 135.89 176.624 133.497 177.409 132.237C178.433 130.592 179.333 130.61 179.333 132.275ZM63.462 137.027C63.3459 137.214 59.04 140.728 53.8928 144.839C48.7452 148.949 44.534 152.442 44.534 152.602C44.534 153.165 45.5254 153.611 48.9255 154.578C50.8157 155.115 55.9919 156.613 60.4277 157.906L66.133 159.57C67.6305 160.006 69.2442 159.764 70.5471 158.906C72.7925 157.428 76.5248 156.011 78.3291 155.951C78.9592 155.93 83.7405 157.215 88.9545 158.805C96.8477 161.214 98.5703 161.626 99.2473 161.266C100.426 160.639 103.729 159.816 105.06 159.815C106.058 159.815 113.543 161.846 113.919 162.219C113.995 162.295 111.899 163.952 109.26 165.9C106.446 167.978 104.507 169.667 104.57 169.984C104.64 170.336 107.142 171.233 111.702 172.542L114.972 173.48C117.333 174.158 119.875 173.674 121.821 172.177C135.063 161.993 138.88 158.889 138.777 158.383C138.706 158.029 137.313 157.427 135.036 156.765C131.326 155.686 114.703 150.912 82.9791 141.816C73.1449 138.997 64.7779 136.689 64.3857 136.689C63.9935 136.689 63.5777 136.841 63.462 137.027ZM74.8923 141.182C83.8578 143.763 100.481 148.53 118.043 153.556C133.708 158.038 135.949 158.691 136.066 158.807C136.199 158.939 135.884 159.192 125.912 166.988L122.561 169.608C120.012 171.601 116.666 172.259 113.553 171.38C110.828 170.611 108.274 169.862 107.877 169.716C107.29 169.501 108.052 168.787 111.93 165.917C114.557 163.974 116.707 162.15 116.707 161.864C116.707 161.103 107.463 158.291 104.959 158.291C103.868 158.291 101.865 158.652 100.508 159.094C98.9019 159.618 97.1737 159.636 95.5568 159.146L88.3886 156.976L81.2061 154.801C79.5915 154.313 77.8729 154.282 76.2419 154.712C73.6513 155.396 69.5898 157.229 69.1697 157.903C68.7577 158.565 67.8924 158.375 57.3479 155.321L52.8703 154.024C50.4431 153.321 49.8162 150.174 51.7887 148.594C54.3694 146.528 58.3033 143.358 60.5311 141.549C62.7593 139.741 64.8397 138.325 65.1548 138.402C65.4698 138.48 69.8517 139.731 74.8923 141.182ZM64.1268 145.788C62.778 146.328 61.9574 147.844 62.4851 148.823C63.3818 150.486 66.7166 151.182 69.0811 150.202C70.735 149.516 71.4006 148.647 71.1207 147.54C70.6891 145.835 66.5826 144.807 64.1268 145.788ZM68.5347 147.338C70.1202 147.886 70.0526 148.313 68.2983 148.835C65.7906 149.58 62.6306 148.201 64.8363 147.324C66.0518 146.84 67.1092 146.845 68.5347 147.338ZM186.456 154.365C190.031 156.048 191.979 162.196 191.174 169.252C189.911 180.315 183.452 191.435 176.352 194.769C166.55 199.371 161.55 187.741 166.618 172.123C170.664 159.656 179.981 151.315 186.456 154.365ZM169.767 161.918C167.764 164.807 165.22 170.562 164.213 174.481C162.349 181.731 162.654 188.601 165.021 192.723C165.543 193.631 165.755 194.299 165.491 194.206C165.228 194.113 163.625 193.645 161.929 193.166C158.964 192.328 158.811 192.23 157.928 190.576C155.597 186.216 151.852 183.52 145.604 181.707C144.385 181.353 144.105 179.754 145.13 179.007L145.985 178.384C158.109 169.552 167.188 162.903 168.831 161.652C169.881 160.853 170.792 160.195 170.854 160.192C170.917 160.188 170.428 160.965 169.767 161.918ZM30.5345 165.948C27.2783 169.248 24.3322 173.479 21.9879 178.219C20.3211 181.589 20.0859 182.313 20.5254 182.719C20.9672 183.127 39.6007 188.987 40.4565 188.987C40.6153 188.987 41.641 188.386 42.7351 187.651C44.7735 186.283 48.8144 184.818 50.5526 184.818C51.088 184.818 55.7952 186.102 61.0127 187.671C69.9861 190.369 70.5582 190.493 71.5877 189.964C73.6077 188.928 77.4818 188.433 79.4022 188.967C80.284 189.212 80.7135 190.209 80.2854 191.018L78.8359 193.757C77.5799 196.13 76.61 198.366 76.6799 198.726C76.7776 199.23 78.9638 200.013 86.16 202.119C91.3042 203.624 95.8568 204.867 96.2772 204.88C96.8706 204.898 97.4132 204.137 98.7093 201.465C100.658 197.449 103.9 192.444 106.754 189.048C108.125 187.416 108.647 186.522 108.383 186.259C108.169 186.047 99.515 183.352 89.152 180.27C48.9988 168.328 34.011 163.875 33.4599 163.722C33.1262 163.629 31.9057 164.558 30.5345 165.948ZM54.7077 171.715C66.2293 175.138 82.3578 179.924 90.5488 182.351C98.7398 184.779 105.575 186.894 105.739 187.052C105.902 187.211 105.495 188.009 104.835 188.827C102.649 191.535 99.9316 195.724 97.9001 199.519C96.7304 201.703 94.194 202.775 91.8123 202.09L87.2121 200.768C82.4365 199.395 78.5269 198.097 78.5246 197.884C78.522 197.671 79.5595 195.641 80.83 193.374C82.1004 191.107 83.057 189.037 82.9554 188.774C82.8539 188.512 81.7717 188.008 80.5501 187.653C77.9599 186.903 74.8969 187.053 72.0459 188.07C70.8275 188.505 69.5019 188.538 68.263 188.166L64.703 187.094C49.3337 182.47 51.1094 182.864 48.5436 183.51C46.3173 184.07 42.4548 185.757 40.9063 186.846C40.227 187.324 39.6358 187.224 35.5602 185.946C33.0399 185.156 28.9596 183.891 26.4928 183.135L25.3426 182.783C23.5999 182.249 22.7572 180.275 23.5772 178.648C24.4403 176.935 25.9314 174.356 26.8903 172.916C28.6213 170.318 32.8936 165.491 33.4622 165.491C33.6257 165.491 43.186 168.292 54.7077 171.715ZM177.276 171.209C175.824 172.343 175.132 173.896 175.132 176.024C175.132 178.94 176.69 179.924 178.754 178.312C180.836 176.687 181.593 172.661 180.096 171.175C179.128 170.214 178.542 170.221 177.276 171.209ZM35.3754 172.728C33.7948 173.064 32.3143 174.628 32.3143 175.963C32.3143 176.514 32.7871 177.388 33.4305 178.026C34.3665 178.955 34.8549 179.134 36.456 179.134C39.6183 179.134 41.4657 176.968 40.4794 174.417C40.0021 173.182 37.3576 172.307 35.3754 172.728ZM179.331 173.544C179.329 175.038 178.053 177.239 177.188 177.239C176.669 177.239 176.594 176.941 176.756 175.518C177.074 172.714 179.334 170.981 179.331 173.544ZM38.588 174.803C38.9179 175.13 39.1879 175.632 39.1879 175.918C39.1879 176.653 37.6708 177.618 36.5149 177.618C35.4277 177.618 33.8418 176.667 33.8418 176.016C33.8418 174.423 37.3118 173.536 38.588 174.803ZM141.424 182.394C141.298 182.52 140.968 182.534 140.693 182.424C140.388 182.304 140.479 182.214 140.923 182.195C141.326 182.179 141.551 182.269 141.424 182.394ZM150.042 184.954C160.255 189.912 163.056 208.812 156.553 228.884C151.941 243.12 143.326 255.755 134.272 261.564C128.152 265.49 122.527 266.415 118.043 264.233C113.735 262.137 110.777 258.007 108.964 251.561C108.261 249.061 108.15 247.635 108.135 240.906C108.114 231.819 108.76 227.778 111.569 219.427C117.699 201.2 129.6 186.945 141.096 184.061C143.622 183.427 147.747 183.839 150.042 184.954ZM14.044 198.366C12.5677 201.167 11.4797 211.786 12.0743 217.588C12.2996 219.787 12.5707 221.81 12.6769 222.085C12.8904 222.636 33.6574 228.937 34.1885 228.611C34.3714 228.499 34.6391 227.936 34.7839 227.361C35.1039 226.089 36.626 224.046 37.8434 223.254C38.6854 222.706 39.3407 222.865 48.8029 225.914C54.338 227.698 59.145 229.158 59.4848 229.158C59.8247 229.158 60.3715 228.751 60.6999 228.253C61.0283 227.755 61.8818 226.99 62.5966 226.551C63.8278 225.796 63.9966 225.784 65.8097 226.318C66.9542 226.656 67.758 227.683 67.8105 228.875L67.9187 231.336C68.0447 234.202 68.3395 236.337 68.7462 237.326C69.1452 238.296 69.9673 239.029 70.9764 239.315L79.1998 241.647C84.6017 243.178 89.1737 244.448 89.3601 244.469C89.5472 244.489 89.7286 240.514 89.7652 235.6C89.8149 228.913 89.9913 225.943 90.4732 223.678C90.8264 222.02 90.988 220.543 90.8322 220.398C90.5263 220.112 15.4378 197.703 14.7863 197.703C14.5702 197.703 14.2361 198.002 14.044 198.366ZM50.1723 209.804C69.0189 215.417 85.53 220.31 86.8638 220.677L87.9688 220.981C88.7176 221.187 89.1879 221.928 89.0561 222.693C88.1862 227.744 87.9984 230.087 87.9984 235.884C87.9984 239.48 87.9174 242.421 87.8185 242.421C87.3675 242.421 71.3841 237.756 70.8228 237.46C69.9338 236.992 69.2064 232.562 69.4359 229.012C69.5562 227.153 69.4729 226.004 69.2025 225.787C68.9715 225.601 67.7037 225.152 66.3855 224.787C64.1012 224.156 63.9179 224.157 62.4993 224.792C61.6802 225.158 60.5571 225.927 60.0034 226.501C59.3878 227.139 58.4618 227.369 57.6192 227.093L49.3024 224.371C43.9704 222.627 39.2983 221.2 38.9206 221.201C37.3515 221.204 35.2662 223.076 33.269 226.275C32.9295 226.818 31.8481 226.575 23.5314 224.081L15.5967 221.703C14.7249 221.441 14.0736 220.712 13.9115 219.817C13.5292 217.706 13.5602 208.903 13.9592 206.164C14.5351 202.215 15.167 199.598 15.5451 199.598C15.7433 199.598 31.3253 204.191 50.1723 209.804ZM135.976 203.693C133.331 204.794 131.73 205.982 129.042 208.838C126.143 211.919 123.175 217.138 121.546 222.019C118.173 232.124 119.857 242.676 125.247 245.214C127.426 246.24 130.701 246.028 133.409 244.685C139.496 241.666 145.709 231.872 147.465 222.526C148.238 218.413 148.055 212.078 147.086 209.401C145.267 204.375 140.376 201.862 135.976 203.693ZM142.497 205.723C146.887 208.705 147.713 217.953 144.442 227.494C141.18 237.01 134.317 244.316 128.641 244.316C125.921 244.316 124.465 243.229 122.816 239.967C121.49 237.343 121.48 237.287 121.528 232.577C121.6 225.568 123.518 219.332 127.392 213.51C132.397 205.989 138.361 202.914 142.497 205.723ZM135.913 207.347C130.792 208.936 125.741 215.574 123.345 223.866C122.474 226.875 122.372 227.825 122.497 231.729C122.627 235.788 122.735 236.341 123.759 238.186C125.145 240.686 126.582 241.733 128.931 241.957C133.726 242.415 138.641 238.33 142.28 230.863C144.623 226.056 145.508 222.45 145.488 217.789C145.462 211.895 143.469 208.232 139.724 207.2C137.981 206.72 137.929 206.722 135.913 207.347ZM141.506 210.141C143.282 211.993 143.819 213.832 143.819 218.056C143.819 226.03 139.586 235.076 134.099 238.826C130.178 241.506 126.878 240.929 125.076 237.248C123.763 234.564 123.592 229.261 124.681 224.986C126.978 215.971 133.03 208.693 138.229 208.693C139.922 208.693 140.263 208.844 141.506 210.141ZM21.0111 210.74C19.5677 212.172 19.3702 213.379 20.2894 215.143C20.9851 216.478 21.9337 217.031 23.5314 217.031C25.1486 217.031 26.0789 216.477 26.8071 215.079C27.6453 213.47 27.2424 211.642 25.7802 210.421C24.1287 209.042 22.6203 209.143 21.0111 210.74ZM25.2036 212.216C25.9364 213.194 25.9532 213.355 25.4209 214.301C24.6026 215.755 22.6703 215.919 21.805 214.608C21.1261 213.58 21.2891 212.488 22.2675 211.518C23.1003 210.691 24.2688 210.969 25.2036 212.216Z" fill="#CBCBCB"/>
</svg>
